<svg xmlns="http://www.w3.org/2000/svg" width="50" height="50" viewBox="0 0 50 50">
  <g id="education" transform="translate(0 -0.001)">
    <path id="Trazado_872947" data-name="Trazado 872947" d="M195.449,74.226a13.863,13.863,0,1,0-13.863-13.863A13.879,13.879,0,0,0,195.449,74.226Zm0-25.773a11.91,11.91,0,1,1-11.91,11.91A11.924,11.924,0,0,1,195.449,48.453Zm0,0" transform="translate(-163.853 -41.958)" fill="#00ffdf"/>
    <path id="Trazado_872948" data-name="Trazado 872948" d="M31.452,37.1a18.567,18.567,0,1,0-15.3-8.079l-3.034,3.034-.413-.413a.977.977,0,0,0-1.381,0L1.459,41.5A4.979,4.979,0,1,0,8.5,48.543l9.861-9.861a.978.978,0,0,0,0-1.381l-.414-.413,3.034-3.034A18.443,18.443,0,0,0,31.451,37.1Zm0-35.145a16.6,16.6,0,1,1-16.6,16.6,16.614,16.614,0,0,1,16.6-16.6ZM7.119,47.162A3.026,3.026,0,0,1,2.84,42.883l9.171-9.171.413.413h0l3.865,3.865Zm9.448-11.656L14.5,33.435l2.852-2.852a18.758,18.758,0,0,0,2.071,2.071Zm0,0" fill="#00ffdf"/>
    <path id="Trazado_872949" data-name="Trazado 872949" d="M280.285,113.241a.976.976,0,0,0,.977-.977,2.367,2.367,0,1,1,3.519,2.068,4.091,4.091,0,0,0-2.129,3.544v1.394a.977.977,0,1,0,1.953,0v-1.394a2.137,2.137,0,0,1,1.129-1.839,4.32,4.32,0,1,0-6.426-3.772A.976.976,0,0,0,280.285,113.241Zm0,0" transform="translate(-252.032 -97.403)" fill="#00ffdf"/>
    <path id="Trazado_872950" data-name="Trazado 872950" d="M314.516,252.891a.977.977,0,1,0,.69.286A.983.983,0,0,0,314.516,252.891Zm0,0" transform="translate(-282.92 -228.194)" fill="#00ffdf"/>
  </g>
</svg>
