<svg xmlns="http://www.w3.org/2000/svg" width="50" height="50" viewBox="0 0 50 50">
  <g id="problem-solving" transform="translate(-1 -1)">
    <path id="Trazado_872960" data-name="Trazado 872960" d="M41,50h1.613v1.613H41Z" transform="translate(-7.742 -9.484)" fill="#00ffdf"/>
    <path id="Trazado_872961" data-name="Trazado 872961" d="M61,50h1.613v1.613H61Z" transform="translate(-11.613 -9.484)" fill="#00ffdf"/>
    <path id="Trazado_872962" data-name="Trazado 872962" d="M51,40h1.613v1.613H51Z" transform="translate(-9.677 -7.548)" fill="#00ffdf"/>
    <path id="Trazado_872963" data-name="Trazado 872963" d="M0,0H1.613V1.613H0Z" transform="translate(35.282 35.623) rotate(-45)" fill="#00ffdf"/>
    <path id="Trazado_872964" data-name="Trazado 872964" d="M0,0H1.613V1.613H0Z" transform="translate(46.681 47.01) rotate(-45)" fill="#00ffdf"/>
    <path id="Trazado_872965" data-name="Trazado 872965" d="M0,0H1.613V1.613H0Z" transform="translate(35.28 47.024) rotate(-45)" fill="#00ffdf"/>
    <path id="Trazado_872966" data-name="Trazado 872966" d="M0,0H1.613V1.613H0Z" transform="translate(46.683 35.626) rotate(-45)" fill="#00ffdf"/>
    <path id="Trazado_872967" data-name="Trazado 872967" d="M54.2,45.258a5.645,5.645,0,1,0-6.379,9.274V56.5a2.823,2.823,0,1,0,5.645,0V54.533a5.645,5.645,0,0,0,.734-9.274ZM51.856,56.5a1.21,1.21,0,1,1-2.419,0v-.4h2.419Zm.468-3.226a.806.806,0,0,0-.468.734v.476H49.437v-.444a.806.806,0,0,0-.468-.734,4.027,4.027,0,1,1,3.371,0Z" transform="translate(-8.518 -8.323)" fill="#00ffdf"/>
    <path id="Trazado_872968" data-name="Trazado 872968" d="M24.048,31.911a1.274,1.274,0,0,0,.145,1.024l.911,1.548a1.387,1.387,0,0,0,1.855.492l.21-.121a5.8,5.8,0,0,0,1,.565V35.6A1.363,1.363,0,0,0,29.54,36.9h1.823a1.363,1.363,0,0,0,1.371-1.347v-.177a5.509,5.509,0,0,0,1-.565l.21.121a1.387,1.387,0,0,0,1.855-.492l.911-1.508a1.274,1.274,0,0,0,.145-1.024A1.339,1.339,0,0,0,36.2,31.1l-.169-.1V29.96l.169-.1a1.339,1.339,0,0,0,.653-.806,1.274,1.274,0,0,0-.145-1.024L35.8,26.524a1.387,1.387,0,0,0-1.855-.492l-.21.121a5.8,5.8,0,0,0-1-.565v-.177A1.363,1.363,0,0,0,31.363,24H29.54a1.363,1.363,0,0,0-1.371,1.347v.177a5.508,5.508,0,0,0-1,.565l-.21-.121a1.387,1.387,0,0,0-1.855.492l-.911,1.508a1.274,1.274,0,0,0-.145,1.024,1.339,1.339,0,0,0,.653.806l.169.1v1.048l-.169.1a1.339,1.339,0,0,0-.653.871Zm2.419-1.46v-.508a1.331,1.331,0,0,0-.685-1.347l-.081-.048.637-1.065.145.081a1.419,1.419,0,0,0,1.548-.1,3.9,3.9,0,0,1,.879-.492,1.363,1.363,0,0,0,.879-1.258v-.1h1.339v.1a1.363,1.363,0,0,0,.879,1.258,4.145,4.145,0,0,1,.887.492,1.4,1.4,0,0,0,1.508.1l.145-.081.637,1.065L35.1,28.6a1.347,1.347,0,0,0-.694,1.347,3.6,3.6,0,0,1,.073.508v.508a1.331,1.331,0,0,0,.685,1.347l.081.048-.637,1.065-.145-.081a1.419,1.419,0,0,0-1.516.1,3.9,3.9,0,0,1-.879.492,1.363,1.363,0,0,0-.879,1.258v.1H29.782v-.1a1.363,1.363,0,0,0-.879-1.258,4.145,4.145,0,0,1-.887-.492,1.4,1.4,0,0,0-1.508-.1l-.145.081-.637-1.065.081-.048A1.347,1.347,0,0,0,26.5,30.96a3.6,3.6,0,0,1-.04-.508Z" transform="translate(-4.452 -4.452)" fill="#00ffdf"/>
    <path id="Trazado_872969" data-name="Trazado 872969" d="M31.371,33.992a2.621,2.621,0,1,0-2.621-2.621,2.621,2.621,0,0,0,2.621,2.621Zm0-3.629a1.008,1.008,0,1,1-1.008,1.008A1.008,1.008,0,0,1,31.371,30.363Z" transform="translate(-5.371 -5.371)" fill="#00ffdf"/>
    <path id="Trazado_872970" data-name="Trazado 872970" d="M17.871,32.613h.806V31h-.806a8.871,8.871,0,1,0,0,17.742h9.992l-1.532.919.806,1.387,4.032-2.419a.806.806,0,0,0,0-1.387l-4.032-2.419-.806,1.387,1.532.919H17.871a7.258,7.258,0,1,1,0-14.516Z" transform="translate(-1.548 -5.806)" fill="#00ffdf"/>
    <path id="Trazado_872971" data-name="Trazado 872971" d="M40.71,11H27v1.613H40.71a7.258,7.258,0,1,1,0,14.516H39.9v1.613h.806A8.871,8.871,0,1,0,40.71,11Z" transform="translate(-5.032 -1.935)" fill="#00ffdf"/>
    <path id="Trazado_872972" data-name="Trazado 872972" d="M9.871,18.742A8.871,8.871,0,1,0,1,9.871a8.871,8.871,0,0,0,8.871,8.871Zm0-16.129A7.258,7.258,0,1,1,2.613,9.871,7.258,7.258,0,0,1,9.871,2.613Z" fill="#00ffdf"/>
    <path id="Trazado_872973" data-name="Trazado 872973" d="M11.226,6.612a1.613,1.613,0,0,1,0,3.226.806.806,0,0,0-.806.806v2.419h1.613V11.346A3.226,3.226,0,1,0,8,8.225H9.613A1.613,1.613,0,0,1,11.226,6.612Z" transform="translate(-1.355 -0.774)" fill="#00ffdf"/>
    <path id="Trazado_872974" data-name="Trazado 872974" d="M11,17h1.613v1.613H11Z" transform="translate(-1.935 -3.097)" fill="#00ffdf"/>
  </g>
</svg>
