<svg xmlns="http://www.w3.org/2000/svg" width="70" height="70" viewBox="0 0 70 70">
  <g id="Grupo_1098743" data-name="Grupo 1098743" transform="translate(-515 -526)">
    <circle id="Elipse_11440" data-name="Elipse 11440" cx="35" cy="35" r="35" transform="translate(515 526)" fill="#3a1d71"/>
    <g id="Grupo_1098749" data-name="Grupo 1098749" transform="translate(484.392 536.949)">
      <path id="Trazado_873003" data-name="Trazado 873003" d="M71.6,0H48.2a2.343,2.343,0,0,0-2.336,2.336v43.43A2.343,2.343,0,0,0,48.2,48.1H71.6a2.343,2.343,0,0,0,2.336-2.336V2.336A2.343,2.343,0,0,0,71.6,0Z" fill="#e4eaf8"/>
      <path id="Trazado_873004" data-name="Trazado 873004" d="M47.8,45.766V2.336A2.343,2.343,0,0,1,50.137,0H48.2a2.343,2.343,0,0,0-2.336,2.336v43.43A2.343,2.343,0,0,0,48.2,48.1h1.936A2.343,2.343,0,0,1,47.8,45.766Z" fill="#d8dce5"/>
      <path id="Trazado_873005" data-name="Trazado 873005" d="M175.09,32.949h-3.051a.726.726,0,0,1,0-1.452h3.051a.726.726,0,1,1,0,1.452Z" transform="translate(-113.661 -28.538)" fill="#c3c8d1"/>
      <path id="Trazado_873006" data-name="Trazado 873006" d="M100.44,77.475H79.825a.6.6,0,0,0-.595.595V109.7a.6.6,0,0,0,.595.595H100.44a.6.6,0,0,0,.595-.595V78.07A.6.6,0,0,0,100.44,77.475Z" transform="translate(-30.229 -70.196)" fill="#5bddfc"/>
      <g id="Grupo_1098762" data-name="Grupo 1098762" transform="translate(49.001 7.279)">
        <path id="Trazado_873007" data-name="Trazado 873007" d="M81.166,109.7V78.07a.6.6,0,0,1,.595-.595H79.825a.6.6,0,0,0-.595.595V109.7a.6.6,0,0,0,.595.595H81.76A.6.6,0,0,1,81.166,109.7Z" transform="translate(-79.23 -77.475)" fill="#00c3ff"/>
        <path id="Trazado_873008" data-name="Trazado 873008" d="M100.44,77.475H79.825a.6.6,0,0,0-.595.595v4.009h21.8V78.07A.594.594,0,0,0,100.44,77.475Z" transform="translate(-79.23 -77.475)" fill="#00c3ff"/>
      </g>
      <path id="Trazado_873009" data-name="Trazado 873009" d="M83.477,77.475H79.825a.6.6,0,0,0-.595.595v4.009h4.247Z" transform="translate(-30.229 -70.196)" fill="#ff5050"/>
      <path id="Trazado_873010" data-name="Trazado 873010" d="M81.166,78.144a.723.723,0,0,1,.448-.668H79.825a.6.6,0,0,0-.595.595v4.009h1.936Z" transform="translate(-30.229 -70.197)" fill="#ed3a3a"/>
      <path id="Trazado_873011" data-name="Trazado 873011" d="M167.218,457.583H163.1a1.068,1.068,0,0,1-1.065-1.065V455.9a1.068,1.068,0,0,1,1.065-1.065h4.116a1.068,1.068,0,0,1,1.065,1.065v.616A1.068,1.068,0,0,1,167.218,457.583Z" transform="translate(-105.257 -412.106)" fill="#c3c8d1"/>
      <path id="Trazado_873012" data-name="Trazado 873012" d="M167.185,462.829h-4.052a1.1,1.1,0,0,1-1.016-.686,1.085,1.085,0,0,0-.081.411v.552a1.1,1.1,0,0,0,1.1,1.1h4.052a1.1,1.1,0,0,0,1.1-1.1v-.552a1.085,1.085,0,0,0-.081-.411A1.1,1.1,0,0,1,167.185,462.829Z" transform="translate(-105.256 -418.725)" fill="#b0b3b7"/>
      <g id="Grupo_1098763" data-name="Grupo 1098763" transform="translate(51.942 17.329)">
        <path id="Trazado_873013" data-name="Trazado 873013" d="M124.237,185.9H111.263a.726.726,0,0,1,0-1.452h12.974a.726.726,0,0,1,0,1.452Z" transform="translate(-110.537 -184.449)" fill="#00aaf0"/>
        <path id="Trazado_873014" data-name="Trazado 873014" d="M124.237,227.884H111.263a.726.726,0,0,1,0-1.452h12.974a.726.726,0,0,1,0,1.452Z" transform="translate(-110.537 -222.488)" fill="#00aaf0"/>
        <path id="Trazado_873015" data-name="Trazado 873015" d="M124.237,269.867H111.263a.726.726,0,0,1,0-1.452h12.974a.726.726,0,0,1,0,1.452Z" transform="translate(-110.537 -260.527)" fill="#00aaf0"/>
        <path id="Trazado_873016" data-name="Trazado 873016" d="M124.237,311.849H111.263a.726.726,0,1,1,0-1.452h12.974a.726.726,0,1,1,0,1.452Z" transform="translate(-110.537 -298.564)" fill="#00aaf0"/>
        <path id="Trazado_873017" data-name="Trazado 873017" d="M124.237,353.832H111.263a.726.726,0,0,1,0-1.452h12.974a.726.726,0,0,1,0,1.452Z" transform="translate(-110.537 -336.603)" fill="#00aaf0"/>
      </g>
      <path id="Trazado_873018" data-name="Trazado 873018" d="M275.764,179.511h-2.752a6.943,6.943,0,0,0-.862-2.083l1.946-1.946a.3.3,0,0,0,0-.428l-1.83-1.83a.3.3,0,0,0-.428,0l-1.946,1.946a6.942,6.942,0,0,0-2.083-.862v-2.752a.3.3,0,0,0-.3-.3h-2.587a.3.3,0,0,0-.3.3v2.752a6.942,6.942,0,0,0-2.083.862l-1.946-1.946a.3.3,0,0,0-.428,0l-1.83,1.83a.3.3,0,0,0,0,.428l1.946,1.946a6.94,6.94,0,0,0-.862,2.083h-2.752a.3.3,0,0,0-.3.3V182.4a.3.3,0,0,0,.3.3h2.752a6.941,6.941,0,0,0,.862,2.083l-1.946,1.946a.3.3,0,0,0,0,.428l1.83,1.83a.3.3,0,0,0,.428,0l1.946-1.946a6.94,6.94,0,0,0,2.083.862v2.752a.3.3,0,0,0,.3.3h2.587a.3.3,0,0,0,.3-.3v-2.752a6.94,6.94,0,0,0,2.083-.862l1.946,1.946a.3.3,0,0,0,.428,0l1.83-1.83a.3.3,0,0,0,0-.428l-1.946-1.946a6.939,6.939,0,0,0,.862-2.083h2.752a.3.3,0,0,0,.3-.3v-2.587A.3.3,0,0,0,275.764,179.511Zm-9.551,4.76a3.163,3.163,0,1,1,3.163-3.163A3.163,3.163,0,0,1,266.213,184.27Z" transform="translate(-190.718 -155.164)" fill="#ffc850"/>
      <g id="Grupo_1098764" data-name="Grupo 1098764" transform="translate(65.642 16.089)">
        <path id="Trazado_873019" data-name="Trazado 873019" d="M258.368,262.038v-2.587a.3.3,0,0,1,.3-.3h-2.008a.3.3,0,0,0-.3.3v2.587a.3.3,0,0,0,.3.3h2.008A.3.3,0,0,1,258.368,262.038Z" transform="translate(-256.36 -250.89)" fill="#f9b428"/>
        <path id="Trazado_873020" data-name="Trazado 873020" d="M278.432,195.586a6.941,6.941,0,0,0-.862,2.083h1.625a.4.4,0,0,0,.387-.295,6.94,6.94,0,0,1,.686-1.621.25.25,0,0,0-.037-.3l-1.808-1.808a.3.3,0,0,1,0-.428l1.076-1.076-.754-.754a.3.3,0,0,0-.428,0l-1.83,1.83a.3.3,0,0,0,0,.428Z" transform="translate(-274.515 -189.411)" fill="#f9b428"/>
        <path id="Trazado_873021" data-name="Trazado 873021" d="M278.424,297.592a.3.3,0,0,1,0-.428l1.775-1.775a.307.307,0,0,0,.052-.369,6.941,6.941,0,0,1-.689-1.667.3.3,0,0,0-.285-.217h-1.705a6.941,6.941,0,0,0,.862,2.083l-1.946,1.946a.3.3,0,0,0,0,.428l1.83,1.829a.3.3,0,0,0,.428,0l.754-.754Z" transform="translate(-274.517 -281.684)" fill="#f9b428"/>
        <path id="Trazado_873022" data-name="Trazado 873022" d="M346.19,171.557a.3.3,0,0,1,.3-.3h-1.936a.3.3,0,0,0-.3.3v2.752h1.506a.47.47,0,0,0,.43-.473v-2.279Z" transform="translate(-335.996 -171.254)" fill="#f9b428"/>
        <path id="Trazado_873023" data-name="Trazado 873023" d="M346.19,351.266v-2.454a.3.3,0,0,0-.3-.3h-1.638v2.752a.3.3,0,0,0,.3.3h1.936A.3.3,0,0,1,346.19,351.266Z" transform="translate(-335.996 -331.861)" fill="#f9b428"/>
      </g>
    </g>
  </g>
</svg>
