<svg xmlns="http://www.w3.org/2000/svg" width="70" height="70" viewBox="0 0 70 70">
  <g id="Grupo_1098745" data-name="Grupo 1098745" transform="translate(-515 -526)">
    <circle id="Elipse_11440" data-name="Elipse 11440" cx="35" cy="35" r="35" transform="translate(515 526)" fill="#3a1d71"/>
    <g id="Code" transform="translate(526.569 537.569)">
      <path id="Trazado_873090" data-name="Trazado 873090" d="M3,43v2.818a1.413,1.413,0,0,0,1.409,1.409H42.453a1.413,1.413,0,0,0,1.409-1.409V43Z" transform="translate(0 -11.819)" fill="#d1d3d4"/>
      <path id="Trazado_873091" data-name="Trazado 873091" d="M43.862,12.409V33.545H3V12.409A1.413,1.413,0,0,1,4.409,11H42.453A1.413,1.413,0,0,1,43.862,12.409Z" transform="translate(0 -2.364)" fill="#a7a9ac"/>
      <path id="Trazado_873092" data-name="Trazado 873092" d="M6,14H42.635V32.318H6Z" transform="translate(-0.886 -3.25)" fill="#414042"/>
      <path id="Trazado_873093" data-name="Trazado 873093" d="M31,32.318H50.022V14C50.022,24.125,41.514,32.318,31,32.318Z" transform="translate(-8.273 -3.25)" fill="#3a3a3b"/>
      <path id="Trazado_873094" data-name="Trazado 873094" d="M26,49h8.454v4.227H26Z" transform="translate(-6.796 -13.592)" fill="#a7a9ac"/>
      <path id="Trazado_873095" data-name="Trazado 873095" d="M26,49h8.454v1.409H26Z" transform="translate(-6.796 -13.592)" fill="#808285"/>
      <path id="Trazado_873096" data-name="Trazado 873096" d="M20.409,55A1.409,1.409,0,0,0,19,56.409v2.818H37.318V56.409A1.409,1.409,0,0,0,35.909,55Z" transform="translate(-4.728 -15.365)" fill="#d1d3d4"/>
      <path id="Trazado_873097" data-name="Trazado 873097" d="M39.59,3H11.409A1.409,1.409,0,0,0,10,4.409V7.227H41V4.409A1.409,1.409,0,0,0,39.59,3Z" transform="translate(-2.068)" fill="#006df0"/>
      <path id="Trazado_873098" data-name="Trazado 873098" d="M10,9V26.613a1.409,1.409,0,0,0,1.409,1.409H39.59A1.409,1.409,0,0,0,41,26.613V9Z" transform="translate(-2.068 -1.773)" fill="#ffeb99"/>
      <path id="Trazado_873099" data-name="Trazado 873099" d="M54.114,45H52.7a.7.7,0,0,0,0,1.409h1.409a.7.7,0,0,0,0-1.409Z" transform="translate(-14.478 -12.41)" fill="#5eac24"/>
      <path id="Trazado_873100" data-name="Trazado 873100" d="M13,5h1.409V6.409H13Z" transform="translate(-2.955 -0.591)" fill="#f1f2f2"/>
      <path id="Trazado_873101" data-name="Trazado 873101" d="M17,5h1.409V6.409H17Z" transform="translate(-4.137 -0.591)" fill="#f1f2f2"/>
      <path id="Trazado_873102" data-name="Trazado 873102" d="M21,5h1.409V6.409H21Z" transform="translate(-5.319 -0.591)" fill="#f1f2f2"/>
      <path id="Trazado_873103" data-name="Trazado 873103" d="M17.7,13.409h1.409a.7.7,0,1,0,0-1.409H17.7a.7.7,0,1,0,0,1.409Z" transform="translate(-4.137 -2.659)" fill="#d80027"/>
      <path id="Trazado_873104" data-name="Trazado 873104" d="M22.7,13.409h.7a.7.7,0,1,0,0-1.409h-.7a.7.7,0,1,0,0,1.409Z" transform="translate(-5.614 -2.659)" fill="#d80027"/>
      <path id="Trazado_873105" data-name="Trazado 873105" d="M17.7,26.409h1.409a.7.7,0,1,0,0-1.409H17.7a.7.7,0,1,0,0,1.409Z" transform="translate(-4.137 -6.501)" fill="#d80027"/>
      <path id="Trazado_873106" data-name="Trazado 873106" d="M24.114,25.7a.7.7,0,0,0-.7-.7h-.7a.7.7,0,1,0,0,1.409h.7A.7.7,0,0,0,24.114,25.7Z" transform="translate(-5.614 -6.501)" fill="#d80027"/>
      <path id="Trazado_873107" data-name="Trazado 873107" d="M19,15.7a.7.7,0,0,0,.7.7h4.227a.7.7,0,1,0,0-1.409H19.7A.7.7,0,0,0,19,15.7Z" transform="translate(-4.728 -3.546)" fill="#ff5023"/>
      <path id="Trazado_873108" data-name="Trazado 873108" d="M19.7,19.409h4.227a.7.7,0,1,0,0-1.409H19.7a.7.7,0,1,0,0,1.409Z" transform="translate(-4.728 -4.432)" fill="#ff5023"/>
      <path id="Trazado_873109" data-name="Trazado 873109" d="M29.7,19.409h8.454a.7.7,0,1,0,0-1.409H29.7a.7.7,0,1,0,0,1.409Z" transform="translate(-7.682 -4.432)" fill="#ff5023"/>
      <path id="Trazado_873110" data-name="Trazado 873110" d="M19.7,22.409h4.227a.7.7,0,1,0,0-1.409H19.7a.7.7,0,1,0,0,1.409Z" transform="translate(-4.728 -5.319)" fill="#ff5023"/>
      <path id="Trazado_873111" data-name="Trazado 873111" d="M29.7,22.409H40.977a.7.7,0,0,0,0-1.409H29.7a.7.7,0,1,0,0,1.409Z" transform="translate(-7.682 -5.319)" fill="#ff5023"/>
      <g id="Grupo_1098769" data-name="Grupo 1098769" transform="translate(14.272 20.613)">
        <path id="Trazado_873112" data-name="Trazado 873112" d="M20.409,28h-.7a.7.7,0,1,0,0,1.409h.7a.7.7,0,0,0,0-1.409Z" transform="translate(-19 -28)" fill="#ff6243"/>
        <path id="Trazado_873113" data-name="Trazado 873113" d="M30.341,28H24.7a.7.7,0,0,0,0,1.409h5.636a.7.7,0,0,0,0-1.409Z" transform="translate(-20.477 -28)" fill="#ff6243"/>
        <path id="Trazado_873114" data-name="Trazado 873114" d="M40.932,28H36.7a.7.7,0,0,0,0,1.409h4.227a.7.7,0,0,0,0-1.409Z" transform="translate(-24.023 -28)" fill="#ff6243"/>
        <path id="Trazado_873115" data-name="Trazado 873115" d="M20.409,31h-.7a.7.7,0,1,0,0,1.409h.7a.7.7,0,0,0,0-1.409Z" transform="translate(-19 -28.886)" fill="#ff6243"/>
        <path id="Trazado_873116" data-name="Trazado 873116" d="M30.341,31H24.7a.7.7,0,0,0,0,1.409h5.636a.7.7,0,0,0,0-1.409Z" transform="translate(-20.477 -28.886)" fill="#ff6243"/>
        <path id="Trazado_873117" data-name="Trazado 873117" d="M38.114,31H36.7a.7.7,0,0,0,0,1.409h1.409a.7.7,0,1,0,0-1.409Z" transform="translate(-24.023 -28.886)" fill="#ff6243"/>
      </g>
      <path id="Trazado_873118" data-name="Trazado 873118" d="M29.7,16.409h1.409a.7.7,0,1,0,0-1.409H29.7a.7.7,0,1,0,0,1.409Z" transform="translate(-7.682 -3.546)" fill="#ff5023"/>
    </g>
  </g>
</svg>
