<svg xmlns="http://www.w3.org/2000/svg" width="70" height="70" viewBox="0 0 70 70">
  <g id="Grupo_1098748" data-name="Grupo 1098748" transform="translate(-515 -526)">
    <circle id="Elipse_11440" data-name="Elipse 11440" cx="35" cy="35" r="35" transform="translate(515 526)" fill="#3a1d71"/>
    <g id="Grupo_1098878" data-name="Grupo 1098878" transform="translate(528.5 539.57)">
      <path id="Trazado_873180" data-name="Trazado 873180" d="M68.585,107.137H43.914a5.9,5.9,0,0,0-5.9,5.9V137.66H74.487V113.039a5.9,5.9,0,0,0-5.9-5.9Zm0,0" transform="translate(-34.819 -98.139)" fill="#efe1f9"/>
      <path id="Trazado_873181" data-name="Trazado 873181" d="M38.012,432H74.487v3.258H38.012Zm0,0" transform="translate(-34.819 -395.714)" fill="#d7c6e5"/>
      <path id="Trazado_873182" data-name="Trazado 873182" d="M109.068,152.007v15.184a3.316,3.316,0,0,1-3.316,3.316H82.89a3.315,3.315,0,0,1-3.316-3.316V152.007a3.316,3.316,0,0,1,3.316-3.316h22.863A3.317,3.317,0,0,1,109.068,152.007Zm0,0" transform="translate(-72.891 -136.203)" fill="#c3edfc"/>
      <path id="Trazado_873183" data-name="Trazado 873183" d="M98.6,164.007H75.733a3.977,3.977,0,0,1-3.972-3.972V144.851a3.977,3.977,0,0,1,3.972-3.972H98.6a3.977,3.977,0,0,1,3.972,3.972v15.184A3.977,3.977,0,0,1,98.6,164.007ZM75.733,142.191a2.663,2.663,0,0,0-2.66,2.66v15.184a2.663,2.663,0,0,0,2.66,2.66H98.6a2.663,2.663,0,0,0,2.66-2.66V144.851a2.663,2.663,0,0,0-2.66-2.66Zm0,0" transform="translate(-65.734 -129.047)" fill="#d7c6e5"/>
      <path id="Trazado_873184" data-name="Trazado 873184" d="M40.33,450.008H2.536a2.533,2.533,0,0,0,0,5.066H40.33a2.533,2.533,0,1,0,0-5.066Zm0,0" transform="translate(-0.003 -412.214)" fill="#efe1f9"/>
      <path id="Trazado_873185" data-name="Trazado 873185" d="M42.528,453.8a2.532,2.532,0,0,1-2.2,1.28H2.533a2.533,2.533,0,1,1,0-5.065H3.589a2.533,2.533,0,0,0,2.2,3.786Zm0,0" transform="translate(0 -412.217)" fill="#d7c6e5"/>
      <path id="Trazado_873186" data-name="Trazado 873186" d="M180.878,452.54h-9.419a2.533,2.533,0,0,1-2.533-2.533h14.486a2.533,2.533,0,0,1-2.533,2.533Zm0,0" transform="translate(-154.738 -412.213)" fill="#d7c6e5"/>
      <path id="Trazado_873187" data-name="Trazado 873187" d="M13.044,16.339H3.3a3.3,3.3,0,0,1-3.3-3.3V3.3A3.3,3.3,0,0,1,3.3,0h9.748a3.3,3.3,0,0,1,3.3,3.3v9.748A3.3,3.3,0,0,1,13.044,16.339Zm0,0" transform="translate(-0.001)" fill="#617ed1"/>
      <path id="Trazado_873188" data-name="Trazado 873188" d="M170.036,284.121h-1.9a1.387,1.387,0,0,0-1.387,1.387v4.635a1.387,1.387,0,0,0,1.387,1.387h1.9a1.387,1.387,0,0,0,1.387-1.387v-4.635A1.387,1.387,0,0,0,170.036,284.121Zm0,0" transform="translate(-152.746 -260.259)" fill="#ff557e"/>
      <path id="Trazado_873189" data-name="Trazado 873189" d="M256.966,176.9h-1.407a1.633,1.633,0,0,0-1.633,1.633v13.148a1.633,1.633,0,0,0,1.633,1.633h1.407a1.633,1.633,0,0,0,1.633-1.633V178.531A1.633,1.633,0,0,0,256.966,176.9Zm0,0" transform="translate(-232.6 -162.041)" fill="#ffe76e"/>
      <path id="Trazado_873190" data-name="Trazado 873190" d="M344.391,240.688h-1.9a1.387,1.387,0,0,0-1.387,1.387v8.282a1.387,1.387,0,0,0,1.387,1.387h1.9a1.387,1.387,0,0,0,1.387-1.387v-8.282A1.387,1.387,0,0,0,344.391,240.688Zm0,0" transform="translate(-312.457 -220.473)" fill="#617ed1"/>
      <path id="Trazado_873191" data-name="Trazado 873191" d="M323,17.428a8.285,8.285,0,1,1,8.285-8.285A8.294,8.294,0,0,1,323,17.428Zm0-12.2a3.911,3.911,0,1,0,3.911,3.912A3.916,3.916,0,0,0,323,5.232Zm0,0" transform="translate(-288.279 -0.786)" fill="#80e29d"/>
      <path id="Trazado_873192" data-name="Trazado 873192" d="M413.352.855V5.229a3.916,3.916,0,0,1,3.912,3.912h4.373A8.294,8.294,0,0,0,413.352.855Zm0,0" transform="translate(-378.636 -0.783)" fill="#ff557e"/>
      <g id="Grupo_1098877" data-name="Grupo 1098877" transform="translate(2.042 3.113)">
        <path id="Trazado_873193" data-name="Trazado 873193" d="M27.351,38.374H24.973a.656.656,0,1,1,0-1.312h2.378a.656.656,0,0,1,0,1.312Zm0,0" transform="translate(-24.316 -37.063)" fill="#ffe76e"/>
        <path id="Trazado_873194" data-name="Trazado 873194" d="M35.915,73.308H24.973a.656.656,0,1,1,0-1.312H35.915a.656.656,0,0,1,0,1.312Zm0,0" transform="translate(-24.316 -69.062)" fill="#ffe76e"/>
        <path id="Trazado_873195" data-name="Trazado 873195" d="M28.034,108.242H24.973a.656.656,0,1,1,0-1.312h3.062a.656.656,0,1,1,0,1.312Zm0,0" transform="translate(-24.316 -101.062)" fill="#ffe76e"/>
        <path id="Trazado_873196" data-name="Trazado 873196" d="M32.273,143.171h-7.3a.656.656,0,1,1,0-1.312h7.3a.656.656,0,0,1,0,1.312Zm0,0" transform="translate(-24.317 -133.058)" fill="#ffe76e"/>
      </g>
    </g>
  </g>
</svg>
