<svg xmlns="http://www.w3.org/2000/svg" width="267" height="80" viewBox="0 0 267 80">
  <g id="Grupo_1099372" data-name="Grupo 1099372" transform="translate(-628 -1166)">
    <rect id="Rectángulo_401139" data-name="Rectángulo 401139" width="267" height="80" rx="10" transform="translate(628 1166)" fill="#ae7bdc"/>
    <path id="Trazado_874201" data-name="Trazado 874201" d="M7.438,12.656H3.328L2.547,15H.055L4.289,3.625H6.461L10.719,15H8.227Zm-3.477-1.9H6.8L5.375,6.5ZM16.383,8.664A6.134,6.134,0,0,0,15.57,8.6a1.654,1.654,0,0,0-1.68.867V15H11.633V6.547h2.133l.063,1.008a2.092,2.092,0,0,1,1.883-1.164,2.366,2.366,0,0,1,.7.1Zm4.18-4.2V6.547h1.445V8.2H20.563v4.219a1.007,1.007,0,0,0,.18.672.9.9,0,0,0,.688.2,3.6,3.6,0,0,0,.664-.055v1.711a4.648,4.648,0,0,1-1.367.2,2.156,2.156,0,0,1-2.422-2.4V8.2H17.07V6.547H18.3V4.469Zm6.594,10.688a4.15,4.15,0,0,1-3.027-1.141,4.054,4.054,0,0,1-1.168-3.039v-.219a5.106,5.106,0,0,1,.492-2.277,3.612,3.612,0,0,1,1.395-1.547,3.914,3.914,0,0,1,2.059-.543,3.508,3.508,0,0,1,2.73,1.094,4.444,4.444,0,0,1,1,3.1v.922H25.25a2.1,2.1,0,0,0,.66,1.328,2,2,0,0,0,1.395.5,2.437,2.437,0,0,0,2.039-.945l1.109,1.242a3.389,3.389,0,0,1-1.375,1.121A4.511,4.511,0,0,1,27.156,15.156ZM26.9,8.211a1.411,1.411,0,0,0-1.09.455,2.357,2.357,0,0,0-.535,1.3h3.141V9.788a1.681,1.681,0,0,0-.406-1.165A1.456,1.456,0,0,0,26.9,8.211ZM32.531,15V8.2H31.273V6.547h1.258V5.828a2.918,2.918,0,0,1,.816-2.207,3.162,3.162,0,0,1,2.285-.785,5.321,5.321,0,0,1,1.148.155l-.023,1.736a2.878,2.878,0,0,0-.687-.07q-1.273,0-1.273,1.205v.685h1.68V8.2H34.8V15Zm10.016,0a2.507,2.507,0,0,1-.227-.758,2.732,2.732,0,0,1-2.133.914,3,3,0,0,1-2.059-.719,2.312,2.312,0,0,1-.816-1.812,2.389,2.389,0,0,1,1-2.062,4.915,4.915,0,0,1,2.879-.727h1.039V9.352a1.393,1.393,0,0,0-.3-.937,1.183,1.183,0,0,0-.949-.352,1.345,1.345,0,0,0-.895.273.929.929,0,0,0-.324.75H37.5a2.268,2.268,0,0,1,.453-1.359,3,3,0,0,1,1.281-.98,4.669,4.669,0,0,1,1.859-.355,3.689,3.689,0,0,1,2.48.785,2.747,2.747,0,0,1,.918,2.207v3.664a4.041,4.041,0,0,0,.336,1.82V15ZM40.68,13.43a1.945,1.945,0,0,0,.922-.223,1.462,1.462,0,0,0,.625-.6V11.156h-.844q-1.7,0-1.8,1.172l-.008.133a.9.9,0,0,0,.3.7A1.153,1.153,0,0,0,40.68,13.43Zm9.063-.094a1.481,1.481,0,0,0,1.016-.344,1.2,1.2,0,0,0,.406-.914h2.117a2.9,2.9,0,0,1-.469,1.574,3.093,3.093,0,0,1-1.262,1.109,3.949,3.949,0,0,1-1.77.395A3.67,3.67,0,0,1,46.922,14a4.56,4.56,0,0,1-1.047-3.184v-.148a4.508,4.508,0,0,1,1.039-3.117,3.627,3.627,0,0,1,2.852-1.164,3.555,3.555,0,0,1,2.543.9,3.2,3.2,0,0,1,.973,2.4H51.164a1.551,1.551,0,0,0-.406-1.072,1.51,1.51,0,0,0-2.223.163,3.333,3.333,0,0,0-.4,1.866v.235a3.375,3.375,0,0,0,.4,1.878A1.377,1.377,0,0,0,49.742,13.336Zm7.531-8.867V6.547h1.445V8.2H57.273v4.219a1.007,1.007,0,0,0,.18.672.9.9,0,0,0,.688.2,3.6,3.6,0,0,0,.664-.055v1.711a4.648,4.648,0,0,1-1.367.2,2.156,2.156,0,0,1-2.422-2.4V8.2H53.781V6.547h1.234V4.469ZM59.391,10.7a5.013,5.013,0,0,1,.484-2.242A3.546,3.546,0,0,1,61.27,6.93a4.069,4.069,0,0,1,2.113-.539,3.849,3.849,0,0,1,2.793,1.047,4.2,4.2,0,0,1,1.207,2.844l.016.578a4.418,4.418,0,0,1-1.086,3.121,4.209,4.209,0,0,1-5.832,0,4.5,4.5,0,0,1-1.09-3.187Zm2.258.16A3.16,3.16,0,0,0,62.1,12.7a1.628,1.628,0,0,0,2.578.008,3.457,3.457,0,0,0,.461-2.015A3.128,3.128,0,0,0,64.68,8.86a1.5,1.5,0,0,0-1.3-.649,1.474,1.474,0,0,0-1.281.646A3.516,3.516,0,0,0,61.648,10.856Zm11.719,1.808a.727.727,0,0,0-.41-.652,4.659,4.659,0,0,0-1.316-.426q-3.016-.633-3.016-2.562a2.323,2.323,0,0,1,.934-1.879A3.766,3.766,0,0,1,72,6.391a4.053,4.053,0,0,1,2.574.758,2.388,2.388,0,0,1,.965,1.969H73.281a1.092,1.092,0,0,0-.312-.8A1.322,1.322,0,0,0,71.992,8a1.351,1.351,0,0,0-.883.258.814.814,0,0,0-.312.656.7.7,0,0,0,.355.605,3.657,3.657,0,0,0,1.2.4,9.8,9.8,0,0,1,1.422.379,2.336,2.336,0,0,1,1.789,2.273,2.2,2.2,0,0,1-.992,1.871,4.28,4.28,0,0,1-2.562.715,4.47,4.47,0,0,1-1.887-.379,3.166,3.166,0,0,1-1.293-1.039,2.414,2.414,0,0,1-.469-1.426H70.5a1.179,1.179,0,0,0,.445.922,1.766,1.766,0,0,0,1.109.32,1.635,1.635,0,0,0,.98-.246A.766.766,0,0,0,73.367,12.664Z" transform="translate(654 1197)" fill="#12263f"/>
    <g id="Grupo_1099371" data-name="Grupo 1099371" transform="translate(788.141 1176)">
      <g id="Grupo_1099370" data-name="Grupo 1099370" transform="translate(48 0)">
        <g id="Grupo_1099369" data-name="Grupo 1099369" transform="translate(0 0)">
          <path id="Trazado_874153" data-name="Trazado 874153" d="M96.344,11.827,85.062.545A1.88,1.88,0,0,0,83.727,0H53.641A5.641,5.641,0,0,0,48,5.641V54.53a5.641,5.641,0,0,0,5.641,5.641H91.248a5.641,5.641,0,0,0,5.641-5.641V13.162A1.88,1.88,0,0,0,96.344,11.827Zm-3.215,42.7a1.88,1.88,0,0,1-1.88,1.88H53.641a1.88,1.88,0,0,1-1.88-1.88V5.641a1.88,1.88,0,0,1,1.88-1.88H81.846v7.521a3.761,3.761,0,0,0,3.761,3.761h7.521Z" transform="translate(-48 0)" fill="#3a1d71"/>
          <rect id="Rectángulo_401140" data-name="Rectángulo 401140" width="4" height="4" transform="translate(37.859 46.191)" fill="#3a1d71"/>
          <rect id="Rectángulo_401141" data-name="Rectángulo 401141" width="34" height="4" transform="translate(7.859 26.191)" fill="#3a1d71"/>
          <rect id="Rectángulo_401142" data-name="Rectángulo 401142" width="34" height="4" transform="translate(7.859 36.191)" fill="#3a1d71"/>
          <rect id="Rectángulo_401143" data-name="Rectángulo 401143" width="27" height="4" transform="translate(7.859 46.191)" fill="#3a1d71"/>
        </g>
      </g>
    </g>
  </g>
</svg>
