<svg xmlns="http://www.w3.org/2000/svg" width="70" height="70" viewBox="0 0 70 70">
  <g id="Grupo_1098739" data-name="Grupo 1098739" transform="translate(-515 -526)">
    <circle id="Elipse_11440" data-name="Elipse 11440" cx="35" cy="35" r="35" transform="translate(515 526)" fill="#00ffdf"/>
    <g id="coding" transform="translate(526.534 527.004)">
      <path id="Trazado_872938" data-name="Trazado 872938" d="M62.834,55.271a3.1,3.1,0,1,0,3.1,3.1A3.1,3.1,0,0,0,62.834,55.271Zm0,4.351a1.251,1.251,0,1,1,1.255-1.251A1.253,1.253,0,0,1,62.834,59.622Z" transform="translate(-54.258 -39.308)" fill="#8722e2"/>
      <path id="Trazado_872939" data-name="Trazado 872939" d="M277.4,55.271h-8.2a3.1,3.1,0,1,0,0,6.2h8.2a3.1,3.1,0,1,0,0-6.2Zm0,4.351h-8.2a1.251,1.251,0,1,1,0-2.5h8.2a1.251,1.251,0,1,1,0,2.5Z" transform="translate(-241.713 -39.308)" fill="#8722e2"/>
      <path id="Trazado_872940" data-name="Trazado 872940" d="M150.506,55.271a3.1,3.1,0,1,0,3.1,3.1A3.1,3.1,0,0,0,150.506,55.271Zm0,4.351a1.251,1.251,0,1,1,1.255-1.251A1.253,1.253,0,0,1,150.506,59.622Z" transform="translate(-133.893 -39.308)" fill="#8722e2"/>
      <path id="Trazado_872941" data-name="Trazado 872941" d="M135.329,222.19a.924.924,0,0,0-1.114.684l-1.834,7.674a.924.924,0,1,0,1.8.43l1.834-7.674A.924.924,0,0,0,135.329,222.19Z" transform="translate(-120.223 -190.904)" fill="#8722e2"/>
      <path id="Trazado_872942" data-name="Trazado 872942" d="M198.747,237.631a.925.925,0,0,0,1.305-.075l2.592-2.91a1.283,1.283,0,0,0,0-1.695l-2.595-2.913a.924.924,0,1,0-1.381,1.23l2.253,2.529-2.253,2.529A.925.925,0,0,0,198.747,237.631Z" transform="translate(-180.248 -197.775)" fill="#8722e2"/>
      <path id="Trazado_872943" data-name="Trazado 872943" d="M61.273,229.964a.925.925,0,0,0-1.305.075l-2.592,2.909a1.282,1.282,0,0,0,0,1.7l2.595,2.913a.924.924,0,0,0,1.381-1.23L59.1,233.8l2.253-2.529A.925.925,0,0,0,61.273,229.964Z" transform="translate(-51.825 -197.776)" fill="#8722e2"/>
      <path id="Trazado_872944" data-name="Trazado 872944" d="M44.859,42.019h-.343a9.732,9.732,0,0,0-.7-1.681l.245-.246a2.071,2.071,0,0,0,0-2.929l-.477-.477V17c0-2.757-1.946-5-4.337-5H4.337C1.946,12,0,14.239,0,17V42.832c0,2.757,1.946,5,4.337,5H9.761a.924.924,0,1,0,0-1.849H4.337c-1.349,0-2.489-1.443-2.489-3.151V26.062H41.74V35.4a2.1,2.1,0,0,0-.321-.027h0a2.049,2.049,0,0,0-1.459.6l-.25.249A9.759,9.759,0,0,0,38,35.524v-.329a2.074,2.074,0,0,0-2.072-2.072H34.254a2.073,2.073,0,0,0-2.07,2.072v.352a9.812,9.812,0,0,0-1.669.7l-.239-.239a2.052,2.052,0,0,0-1.462-.607h0A2.058,2.058,0,0,0,27.346,36l-1.182,1.181a2.071,2.071,0,0,0,0,2.926l.255.256a9.761,9.761,0,0,0-.681,1.651h-.351a2.072,2.072,0,0,0-2.07,2.069v1.674a2.083,2.083,0,0,0,.012.22H17.95a.924.924,0,1,0,0,1.849h7.791a9.7,9.7,0,0,0,.692,1.664l-.25.249a2.075,2.075,0,0,0,0,2.926l1.182,1.182a2.052,2.052,0,0,0,1.462.607h0a2.058,2.058,0,0,0,1.465-.606l.248-.247a9.767,9.767,0,0,0,1.671.692v.358a2.073,2.073,0,0,0,2.07,2.072h1.675a2.073,2.073,0,0,0,2.07-2.072V54.3a9.742,9.742,0,0,0,1.678-.695l.246.246a2.052,2.052,0,0,0,1.462.607h0a2.059,2.059,0,0,0,1.466-.606l1.179-1.181a2.071,2.071,0,0,0,0-2.929l-.247-.247a9.761,9.761,0,0,0,.691-1.664h.349a2.073,2.073,0,0,0,2.072-2.069V44.088a2.073,2.073,0,0,0-2.072-2.069ZM1.849,24.213V17c0-1.708,1.14-3.151,2.489-3.151H39.252c1.349,0,2.489,1.443,2.489,3.151v7.217H1.849Zm43.234,21.55a.228.228,0,0,1-.224.22H43.8a.924.924,0,0,0-.9.718,7.935,7.935,0,0,1-1.019,2.456.924.924,0,0,0,.129,1.146l.748.748a.222.222,0,0,1,.064.157.214.214,0,0,1-.065.156l-1.181,1.183a.223.223,0,0,1-.158.064h0a.215.215,0,0,1-.157-.065l-.751-.748a.925.925,0,0,0-1.145-.128A7.92,7.92,0,0,1,36.9,52.691a.925.925,0,0,0-.719.9v1.064a.228.228,0,0,1-.221.223H34.285a.228.228,0,0,1-.221-.223V53.59a.924.924,0,0,0-.72-.9,7.931,7.931,0,0,1-2.462-1.019.924.924,0,0,0-1.144.13l-.748.748a.223.223,0,0,1-.158.064h0a.215.215,0,0,1-.156-.064l-1.184-1.184a.228.228,0,0,1,0-.311l.751-.748a.924.924,0,0,0,.129-1.149A7.879,7.879,0,0,1,27.35,46.7a.924.924,0,0,0-.9-.718H25.387a.224.224,0,0,1-.221-.22V44.089a.224.224,0,0,1,.221-.22h1.06a.925.925,0,0,0,.9-.719A7.93,7.93,0,0,1,28.355,40.7a.924.924,0,0,0-.13-1.142l-.756-.758a.212.212,0,0,1-.062-.153.221.221,0,0,1,.064-.157l1.182-1.181a.223.223,0,0,1,.158-.064h0a.216.216,0,0,1,.157.065l.745.742a.924.924,0,0,0,1.147.126,7.974,7.974,0,0,1,2.459-1.031.924.924,0,0,0,.714-.9V35.195a.225.225,0,0,1,.221-.223h1.673a.226.226,0,0,1,.224.223v1.041a.924.924,0,0,0,.724.9,7.925,7.925,0,0,1,2.494,1.028.925.925,0,0,0,1.144-.128l.754-.751a.213.213,0,0,1,.154-.062h0a.222.222,0,0,1,.158.064l1.182,1.181a.222.222,0,0,1,.064.157.215.215,0,0,1-.065.156l-.748.75a.924.924,0,0,0-.127,1.146,7.912,7.912,0,0,1,1.023,2.469.924.924,0,0,0,.9.719h1.052a.228.228,0,0,1,.224.22Z" fill="#8722e2"/>
      <path id="Trazado_872945" data-name="Trazado 872945" d="M327.208,309.652a5.645,5.645,0,1,0,5.646,5.647A5.654,5.654,0,0,0,327.208,309.652Zm0,9.442a3.8,3.8,0,1,1,3.8-3.8A3.8,3.8,0,0,1,327.208,319.094Z" transform="translate(-292.084 -270.372)" fill="#8722e2"/>
      <path id="Trazado_872946" data-name="Trazado 872946" d="M142.114,382.778H142.1a.924.924,0,1,0,0,1.849h.018a.924.924,0,1,0,0-1.849Z" transform="translate(-128.232 -336.795)" fill="#8722e2"/>
    </g>
  </g>
</svg>
