<svg xmlns="http://www.w3.org/2000/svg" width="609" height="141" viewBox="0 0 609 141">
  <g id="Grupo_1099347" data-name="Grupo 1099347" transform="translate(-495 -589)">
    <path id="Rectángulo_401112" data-name="Rectángulo 401112" d="M10,0H179a10,10,0,0,1,10,10v91a0,0,0,0,1,0,0H0a0,0,0,0,1,0,0V10A10,10,0,0,1,10,0Z" transform="translate(495 589)" fill="#fff"/>
    <path id="Rectángulo_401115" data-name="Rectángulo 401115" d="M10,0H180a10,10,0,0,1,10,10v91a0,0,0,0,1,0,0H0a0,0,0,0,1,0,0V10A10,10,0,0,1,10,0Z" transform="translate(914 589)" fill="#fff"/>
    <rect id="Rectángulo_401118" data-name="Rectángulo 401118" width="190" height="141" rx="10" transform="translate(704 589)" fill="#fff" opacity="0.4"/>
    <path id="Rectángulo_401114" data-name="Rectángulo 401114" d="M0,0H189a0,0,0,0,1,0,0V30a10,10,0,0,1-10,10H10A10,10,0,0,1,0,30V0A0,0,0,0,1,0,0Z" transform="translate(495 690)" fill="#00ffdf"/>
    <path id="Rectángulo_401117" data-name="Rectángulo 401117" d="M0,0H190a0,0,0,0,1,0,0V30a10,10,0,0,1-10,10H10A10,10,0,0,1,0,30V0A0,0,0,0,1,0,0Z" transform="translate(914 690)" fill="#00ffdf"/>
    <g id="Rectángulo_401113" data-name="Rectángulo 401113" transform="translate(505 599)" fill="none" stroke="#3a1d71" stroke-linecap="round" stroke-width="3">
      <rect width="170" height="81" rx="8" stroke="none"/>
      <rect x="1.5" y="1.5" width="167" height="78" rx="6.5" fill="none"/>
    </g>
    <g id="Rectángulo_401116" data-name="Rectángulo 401116" transform="translate(924 599)" fill="none" stroke="#3a1d71" stroke-linecap="round" stroke-width="3">
      <rect width="170" height="81" rx="8" stroke="none"/>
      <rect x="1.5" y="1.5" width="167" height="78" rx="6.5" fill="none"/>
    </g>
    <g id="Grupo_1099332" data-name="Grupo 1099332" transform="translate(561 612)">
      <path id="Trazado_874122" data-name="Trazado 874122" d="M63.52,55.271a3.785,3.785,0,1,0,3.79,3.785A3.79,3.79,0,0,0,63.52,55.271Zm0,5.313a1.528,1.528,0,1,1,1.532-1.528A1.53,1.53,0,0,1,63.52,60.584Z" transform="translate(-53.047 -50.427)" fill="#a854f3"/>
      <path id="Trazado_874123" data-name="Trazado 874123" d="M279.9,55.271h-10.01a3.785,3.785,0,1,0,0,7.571H279.9a3.785,3.785,0,1,0,0-7.571Zm0,5.313h-10.01a1.528,1.528,0,1,1,0-3.056H279.9a1.528,1.528,0,1,1,0,3.056Z" transform="translate(-236.318 -50.427)" fill="#a854f3"/>
      <path id="Trazado_874124" data-name="Trazado 874124" d="M151.192,55.271a3.785,3.785,0,1,0,3.79,3.785A3.79,3.79,0,0,0,151.192,55.271Zm0,5.313a1.528,1.528,0,1,1,1.532-1.528A1.53,1.53,0,0,1,151.192,60.584Z" transform="translate(-130.905 -50.427)" fill="#a854f3"/>
      <path id="Trazado_874125" data-name="Trazado 874125" d="M135.986,222.2a1.129,1.129,0,0,0-1.36.835l-2.239,9.371a1.129,1.129,0,1,0,2.2.525l2.239-9.371A1.129,1.129,0,0,0,135.986,222.2Z" transform="translate(-117.54 -198.639)" fill="#a854f3"/>
      <path id="Trazado_874126" data-name="Trazado 874126" d="M198.815,239.379a1.129,1.129,0,0,0,1.594-.092l3.165-3.553a1.566,1.566,0,0,0,0-2.07l-3.169-3.557a1.129,1.129,0,1,0-1.686,1.5l2.751,3.088-2.751,3.088A1.129,1.129,0,0,0,198.815,239.379Z" transform="translate(-176.225 -205.357)" fill="#a854f3"/>
      <path id="Trazado_874127" data-name="Trazado 874127" d="M62.206,230.016a1.129,1.129,0,0,0-1.594.092l-3.165,3.553a1.566,1.566,0,0,0,0,2.07l3.169,3.557a1.129,1.129,0,0,0,1.686-1.5L59.548,234.7,62.3,231.61A1.129,1.129,0,0,0,62.206,230.016Z" transform="translate(-50.668 -205.358)" fill="#a854f3"/>
      <path id="Trazado_874128" data-name="Trazado 874128" d="M54.781,48.659h-.419a11.885,11.885,0,0,0-.851-2.053l.3-.3a2.529,2.529,0,0,0,0-3.577l-.583-.582V18.1c0-3.367-2.376-6.106-5.3-6.106H5.3C2.376,12,0,14.735,0,18.1v31.55c0,3.367,2.376,6.106,5.3,6.106h6.623a1.129,1.129,0,1,0,0-2.258H5.3c-1.647,0-3.039-1.762-3.039-3.848V29.172H50.971V40.579a2.567,2.567,0,0,0-.392-.033h0a2.5,2.5,0,0,0-1.781.738l-.305.3a11.917,11.917,0,0,0-2.086-.861v-.4a2.533,2.533,0,0,0-2.531-2.53H41.83a2.532,2.532,0,0,0-2.528,2.53v.43a11.982,11.982,0,0,0-2.038.854l-.292-.291a2.506,2.506,0,0,0-1.785-.742h0a2.513,2.513,0,0,0-1.789.739l-1.443,1.443a2.529,2.529,0,0,0,0,3.574l.312.313a11.92,11.92,0,0,0-.831,2.016H31a2.53,2.53,0,0,0-2.528,2.527V53.23a2.544,2.544,0,0,0,.014.269H21.92a1.129,1.129,0,0,0,0,2.258h9.514a11.85,11.85,0,0,0,.845,2.032l-.305.3a2.533,2.533,0,0,0,0,3.573l1.444,1.443a2.506,2.506,0,0,0,1.785.742h0A2.513,2.513,0,0,0,37,63.111l.3-.3a11.926,11.926,0,0,0,2.04.845v.437a2.532,2.532,0,0,0,2.528,2.53h2.046a2.532,2.532,0,0,0,2.528-2.53v-.434a11.9,11.9,0,0,0,2.049-.848l.3.3a2.506,2.506,0,0,0,1.785.742h0a2.514,2.514,0,0,0,1.79-.74l1.44-1.443a2.529,2.529,0,0,0,0-3.577l-.3-.3a11.919,11.919,0,0,0,.843-2.032h.427a2.532,2.532,0,0,0,2.531-2.527V51.186a2.531,2.531,0,0,0-2.531-2.527ZM2.258,26.915V18.1c0-2.086,1.392-3.848,3.039-3.848H47.933c1.647,0,3.039,1.762,3.039,3.848v8.813H2.258Zm52.8,26.316a.278.278,0,0,1-.273.269H53.49a1.129,1.129,0,0,0-1.1.877,9.69,9.69,0,0,1-1.245,3,1.129,1.129,0,0,0,.158,1.4l.913.913a.271.271,0,0,1,.078.192.262.262,0,0,1-.079.19l-1.442,1.445a.272.272,0,0,1-.193.079h0a.263.263,0,0,1-.191-.08l-.917-.913a1.129,1.129,0,0,0-1.4-.156,9.672,9.672,0,0,1-3.012,1.247,1.129,1.129,0,0,0-.878,1.1v1.3a.278.278,0,0,1-.27.272H41.868a.278.278,0,0,1-.27-.272v-1.3a1.129,1.129,0,0,0-.88-1.1,9.685,9.685,0,0,1-3.006-1.244,1.128,1.128,0,0,0-1.4.159l-.913.913a.272.272,0,0,1-.193.079h0a.262.262,0,0,1-.19-.078l-1.446-1.446a.278.278,0,0,1,0-.38l.917-.913a1.129,1.129,0,0,0,.158-1.4,9.621,9.621,0,0,1-1.246-3,1.129,1.129,0,0,0-1.1-.877H31a.273.273,0,0,1-.27-.269V51.186a.273.273,0,0,1,.27-.269H32.3a1.129,1.129,0,0,0,1.1-.878,9.683,9.683,0,0,1,1.23-2.985,1.129,1.129,0,0,0-.158-1.395l-.923-.926a.259.259,0,0,1-.076-.187.27.27,0,0,1,.078-.192l1.443-1.442a.272.272,0,0,1,.193-.079h0a.264.264,0,0,1,.191.08l.91.907a1.129,1.129,0,0,0,1.4.154,9.738,9.738,0,0,1,3-1.259,1.129,1.129,0,0,0,.871-1.1v-1.29a.275.275,0,0,1,.27-.272h2.043a.277.277,0,0,1,.273.272V41.6a1.129,1.129,0,0,0,.884,1.1,9.678,9.678,0,0,1,3.046,1.256,1.129,1.129,0,0,0,1.4-.156l.92-.917a.26.26,0,0,1,.188-.076h0a.272.272,0,0,1,.193.079l1.443,1.442a.271.271,0,0,1,.078.192.263.263,0,0,1-.08.191l-.914.916a1.129,1.129,0,0,0-.155,1.4,9.662,9.662,0,0,1,1.25,3.015,1.129,1.129,0,0,0,1.1.878H54.78a.278.278,0,0,1,.273.269Z" transform="translate(0 -11.996)" fill="#a854f3"/>
      <path id="Trazado_874129" data-name="Trazado 874129" d="M328.457,309.652a6.894,6.894,0,1,0,6.9,6.9A6.9,6.9,0,0,0,328.457,309.652Zm0,11.53a4.636,4.636,0,1,1,4.638-4.635A4.643,4.643,0,0,1,328.457,321.182Z" transform="translate(-285.565 -276.334)" fill="#a854f3"/>
      <path id="Trazado_874130" data-name="Trazado 874130" d="M142.323,382.778H142.3a1.129,1.129,0,0,0,0,2.258h.022a1.129,1.129,0,1,0,0-2.258Z" transform="translate(-125.37 -341.274)" fill="#a854f3"/>
    </g>
    <path id="Trazado_874200" data-name="Trazado 874200" d="M8.235-2.391H4.008L3.27,0h-3.3L4.667-12.8h2.9L12.3,0H8.982ZM4.746-4.772H7.5L6.117-9.211Zm13.324,2.1a.684.684,0,0,0-.4-.606,6.016,6.016,0,0,0-1.5-.475A6.853,6.853,0,0,1,14.344-4.4a3.062,3.062,0,0,1-1.1-.971,2.319,2.319,0,0,1-.378-1.31,2.628,2.628,0,0,1,1.081-2.158,4.453,4.453,0,0,1,2.83-.848,4.934,4.934,0,0,1,3.023.853,2.666,2.666,0,0,1,1.143,2.241H17.974q0-1.143-1.2-1.143a1.194,1.194,0,0,0-.782.259.8.8,0,0,0-.316.646.737.737,0,0,0,.387.642,3.654,3.654,0,0,0,1.235.4,10.671,10.671,0,0,1,1.49.378A2.706,2.706,0,0,1,20.927-2.76,2.491,2.491,0,0,1,19.771-.642a5.068,5.068,0,0,1-2.993.817A5.172,5.172,0,0,1,14.6-.264a3.645,3.645,0,0,1-1.494-1.2,2.707,2.707,0,0,1-.536-1.591h2.769a1.145,1.145,0,0,0,.439.962,1.808,1.808,0,0,0,1.081.3,1.422,1.422,0,0,0,.91-.246A.787.787,0,0,0,18.07-2.672Zm3.867-2.171a5.613,5.613,0,0,1,.554-2.536,3.96,3.96,0,0,1,1.591-1.709,4.791,4.791,0,0,1,2.435-.6,4.373,4.373,0,0,1,3.366,1.323,5.076,5.076,0,0,1,1.23,3.6v.105a4.925,4.925,0,0,1-1.235,3.529A4.384,4.384,0,0,1,26.534.176a4.434,4.434,0,0,1-3.261-1.217,4.761,4.761,0,0,1-1.327-3.3Zm2.962.185a3.538,3.538,0,0,0,.413,1.934,1.376,1.376,0,0,0,1.222.615q1.582,0,1.617-2.435v-.3q0-2.558-1.635-2.558-1.485,0-1.608,2.206Zm11.54,2.549a1.317,1.317,0,0,0,.967-.338,1.241,1.241,0,0,0,.334-.945h2.777A3.288,3.288,0,0,1,39.4-.826a4.168,4.168,0,0,1-2.887,1,4.22,4.22,0,0,1-3.27-1.3,5.125,5.125,0,0,1-1.2-3.6v-.123A5.792,5.792,0,0,1,32.577-7.4a3.872,3.872,0,0,1,1.534-1.7,4.573,4.573,0,0,1,2.373-.593,4.116,4.116,0,0,1,2.944,1.028,3.647,3.647,0,0,1,1.09,2.786H37.74A1.626,1.626,0,0,0,37.38-7a1.244,1.244,0,0,0-.967-.4q-1.151,0-1.345,1.468a10.357,10.357,0,0,0-.062,1.283,4.068,4.068,0,0,0,.343,1.986A1.187,1.187,0,0,0,36.439-2.109ZM44.895,0H41.924V-9.51h2.971ZM41.748-11.971a1.334,1.334,0,0,1,.457-1.043,1.718,1.718,0,0,1,1.187-.407,1.718,1.718,0,0,1,1.187.407,1.334,1.334,0,0,1,.457,1.043,1.334,1.334,0,0,1-.457,1.043,1.718,1.718,0,0,1-1.187.407,1.718,1.718,0,0,1-1.187-.407A1.334,1.334,0,0,1,41.748-11.971ZM52.075,0a3.344,3.344,0,0,1-.281-.853A2.754,2.754,0,0,1,49.509.176a3.374,3.374,0,0,1-2.285-.813,2.588,2.588,0,0,1-.94-2.043,2.66,2.66,0,0,1,1.143-2.338,5.821,5.821,0,0,1,3.322-.791h.914v-.5q0-1.316-1.134-1.316a.927.927,0,0,0-1.055,1.042H46.512a2.655,2.655,0,0,1,1.173-2.239,4.931,4.931,0,0,1,2.993-.86,4.323,4.323,0,0,1,2.874.888,3.086,3.086,0,0,1,1.081,2.435v4.21a4.311,4.311,0,0,0,.4,2V0ZM50.221-1.934a1.652,1.652,0,0,0,.918-.237,1.487,1.487,0,0,0,.523-.536V-4.228H50.8q-1.547,0-1.547,1.389a.848.848,0,0,0,.272.655A.986.986,0,0,0,50.221-1.934Zm10.072-.176a1.317,1.317,0,0,0,.967-.338,1.241,1.241,0,0,0,.334-.945h2.777A3.288,3.288,0,0,1,63.25-.826a4.168,4.168,0,0,1-2.887,1,4.22,4.22,0,0,1-3.27-1.3,5.125,5.125,0,0,1-1.2-3.6v-.123A5.792,5.792,0,0,1,56.43-7.4a3.872,3.872,0,0,1,1.534-1.7,4.573,4.573,0,0,1,2.373-.593,4.116,4.116,0,0,1,2.944,1.028,3.647,3.647,0,0,1,1.09,2.786H61.594A1.626,1.626,0,0,0,61.233-7a1.244,1.244,0,0,0-.967-.4q-1.151,0-1.345,1.468a10.357,10.357,0,0,0-.062,1.283A4.068,4.068,0,0,0,59.2-2.663,1.187,1.187,0,0,0,60.293-2.109ZM68.748,0H65.777V-9.51h2.971ZM65.6-11.971a1.334,1.334,0,0,1,.457-1.043,1.718,1.718,0,0,1,1.187-.407,1.718,1.718,0,0,1,1.187.407,1.334,1.334,0,0,1,.457,1.043,1.334,1.334,0,0,1-.457,1.043,1.718,1.718,0,0,1-1.187.407,1.718,1.718,0,0,1-1.187-.407A1.334,1.334,0,0,1,65.6-11.971Zm4.6,7.128a5.613,5.613,0,0,1,.554-2.536,3.96,3.96,0,0,1,1.591-1.709,4.791,4.791,0,0,1,2.435-.6,4.373,4.373,0,0,1,3.366,1.323,5.076,5.076,0,0,1,1.23,3.6v.105a4.925,4.925,0,0,1-1.235,3.529A4.384,4.384,0,0,1,74.795.176a4.434,4.434,0,0,1-3.261-1.217,4.761,4.761,0,0,1-1.327-3.3Zm2.962.185a3.538,3.538,0,0,0,.413,1.934,1.376,1.376,0,0,0,1.222.615q1.582,0,1.617-2.435v-.3q0-2.558-1.635-2.558-1.485,0-1.608,2.206ZM75.182-13.5h3.129l-2.443,2.76-2.417,0ZM83.4-9.51l.1,1.116a3.225,3.225,0,0,1,2.716-1.292,2.713,2.713,0,0,1,2.219.888,4.226,4.226,0,0,1,.76,2.672V0H86.221V-6a1.6,1.6,0,0,0-.29-1.059A1.342,1.342,0,0,0,84.876-7.4a1.413,1.413,0,0,0-1.292.686V0H80.622V-9.51Z" transform="translate(545 716)" fill="#12263f"/>
    <path id="Trazado_874202" data-name="Trazado 874202" d="M11.443-1.582A4.96,4.96,0,0,1,9.36-.308,8.984,8.984,0,0,1,6.354.176,5.36,5.36,0,0,1,2.338-1.362,6.226,6.226,0,0,1,.729-5.643L.721-6.75a7.637,7.637,0,0,1,.668-3.3A4.96,4.96,0,0,1,3.3-12.221a5.407,5.407,0,0,1,2.878-.76,5.669,5.669,0,0,1,3.713,1.094,4.637,4.637,0,0,1,1.542,3.265H8.464a2.426,2.426,0,0,0-.686-1.529,2.212,2.212,0,0,0-1.494-.457,2.013,2.013,0,0,0-1.793.984A5.256,5.256,0,0,0,3.85-6.812v.773A5.145,5.145,0,0,0,4.5-3.16,2.316,2.316,0,0,0,6.565-2.2a2.592,2.592,0,0,0,1.793-.536V-4.72H6.214V-6.838h5.229ZM17.7.176a4.889,4.889,0,0,1-3.542-1.305,4.507,4.507,0,0,1-1.354-3.4v-.246a5.84,5.84,0,0,1,.541-2.575,3.955,3.955,0,0,1,1.578-1.727,4.763,4.763,0,0,1,2.461-.611,4.117,4.117,0,0,1,3.164,1.244,4.887,4.887,0,0,1,1.16,3.467v1.151H15.82a2.135,2.135,0,0,0,.694,1.257,2.066,2.066,0,0,0,1.389.457,2.662,2.662,0,0,0,2.2-.984l1.354,1.6A3.784,3.784,0,0,1,19.885-.277,5.3,5.3,0,0,1,17.7.176ZM17.367-7.4q-1.3,0-1.547,1.723h2.988v-.229a1.467,1.467,0,0,0-.36-1.1A1.434,1.434,0,0,0,17.367-7.4ZM25.62-9.51l.1,1.116a3.225,3.225,0,0,1,2.716-1.292,2.713,2.713,0,0,1,2.219.888,4.226,4.226,0,0,1,.76,2.672V0H28.441V-6a1.6,1.6,0,0,0-.29-1.059A1.342,1.342,0,0,0,27.1-7.4a1.413,1.413,0,0,0-1.292.686V0H22.843V-9.51ZM37.652.176A4.889,4.889,0,0,1,34.11-1.129a4.507,4.507,0,0,1-1.354-3.4v-.246A5.84,5.84,0,0,1,33.3-7.348a3.955,3.955,0,0,1,1.578-1.727,4.763,4.763,0,0,1,2.461-.611A4.117,4.117,0,0,1,40.5-8.442a4.887,4.887,0,0,1,1.16,3.467v1.151H35.771a2.135,2.135,0,0,0,.694,1.257,2.066,2.066,0,0,0,1.389.457,2.662,2.662,0,0,0,2.2-.984l1.354,1.6A3.784,3.784,0,0,1,39.836-.277,5.3,5.3,0,0,1,37.652.176ZM37.318-7.4q-1.3,0-1.547,1.723H38.76v-.229a1.467,1.467,0,0,0-.36-1.1A1.434,1.434,0,0,0,37.318-7.4ZM48.6-6.829l-.976-.07a1.752,1.752,0,0,0-1.793.879V0H42.873V-9.51H45.65l.1,1.222a2.294,2.294,0,0,1,2.083-1.4,2.888,2.888,0,0,1,.826.105ZM54.765,0a3.344,3.344,0,0,1-.281-.853A2.754,2.754,0,0,1,52.2.176a3.374,3.374,0,0,1-2.285-.813,2.588,2.588,0,0,1-.94-2.043,2.66,2.66,0,0,1,1.143-2.338,5.821,5.821,0,0,1,3.322-.791h.914v-.5q0-1.316-1.134-1.316a.927.927,0,0,0-1.055,1.042H49.2a2.655,2.655,0,0,1,1.173-2.239,4.931,4.931,0,0,1,2.993-.86,4.323,4.323,0,0,1,2.874.888,3.086,3.086,0,0,1,1.081,2.435v4.21a4.311,4.311,0,0,0,.4,2V0ZM52.91-1.934a1.652,1.652,0,0,0,.918-.237,1.487,1.487,0,0,0,.523-.536V-4.228H53.49q-1.547,0-1.547,1.389a.848.848,0,0,0,.272.655A.986.986,0,0,0,52.91-1.934ZM62.086,0H59.115V-13.5h2.971Zm4.948,0H64.063V-9.51h2.971ZM63.888-11.971a1.334,1.334,0,0,1,.457-1.043,1.718,1.718,0,0,1,1.187-.407,1.718,1.718,0,0,1,1.187.407,1.334,1.334,0,0,1,.457,1.043,1.334,1.334,0,0,1-.457,1.043,1.718,1.718,0,0,1-1.187.407,1.718,1.718,0,0,1-1.187-.407A1.334,1.334,0,0,1,63.888-11.971Zm8.464,9.686h4.333V0H68.607V-1.652l4.219-5.572H68.792V-9.51h7.8v1.6ZM83.479,0A3.344,3.344,0,0,1,83.2-.853,2.754,2.754,0,0,1,80.912.176a3.374,3.374,0,0,1-2.285-.813,2.588,2.588,0,0,1-.94-2.043,2.66,2.66,0,0,1,1.143-2.338,5.821,5.821,0,0,1,3.322-.791h.914v-.5q0-1.316-1.134-1.316a.927.927,0,0,0-1.055,1.042H77.915a2.655,2.655,0,0,1,1.173-2.239,4.931,4.931,0,0,1,2.993-.86,4.323,4.323,0,0,1,2.874.888,3.086,3.086,0,0,1,1.081,2.435v4.21a4.311,4.311,0,0,0,.4,2V0ZM81.624-1.934a1.652,1.652,0,0,0,.918-.237,1.487,1.487,0,0,0,.523-.536V-4.228H82.2q-1.547,0-1.547,1.389a.848.848,0,0,0,.272.655A.986.986,0,0,0,81.624-1.934ZM91.7-2.109a1.317,1.317,0,0,0,.967-.338A1.241,1.241,0,0,0,93-3.393h2.777A3.288,3.288,0,0,1,94.654-.826a4.168,4.168,0,0,1-2.887,1,4.22,4.22,0,0,1-3.27-1.3,5.125,5.125,0,0,1-1.2-3.6v-.123A5.792,5.792,0,0,1,87.833-7.4a3.872,3.872,0,0,1,1.534-1.7,4.573,4.573,0,0,1,2.373-.593,4.116,4.116,0,0,1,2.944,1.028,3.647,3.647,0,0,1,1.09,2.786H93A1.626,1.626,0,0,0,92.637-7a1.244,1.244,0,0,0-.967-.4q-1.151,0-1.345,1.468a10.357,10.357,0,0,0-.062,1.283,4.068,4.068,0,0,0,.343,1.986A1.187,1.187,0,0,0,91.7-2.109ZM100.151,0H97.181V-9.51h2.971ZM97-11.971a1.334,1.334,0,0,1,.457-1.043,1.718,1.718,0,0,1,1.187-.407,1.718,1.718,0,0,1,1.187.407,1.334,1.334,0,0,1,.457,1.043,1.334,1.334,0,0,1-.457,1.043,1.718,1.718,0,0,1-1.187.407,1.718,1.718,0,0,1-1.187-.407A1.334,1.334,0,0,1,97-11.971Zm4.6,7.128a5.613,5.613,0,0,1,.554-2.536,3.96,3.96,0,0,1,1.591-1.709,4.791,4.791,0,0,1,2.435-.6,4.373,4.373,0,0,1,3.366,1.323,5.076,5.076,0,0,1,1.23,3.6v.105a4.925,4.925,0,0,1-1.235,3.529A4.384,4.384,0,0,1,106.2.176a4.434,4.434,0,0,1-3.261-1.217,4.761,4.761,0,0,1-1.327-3.3Zm2.962.185a3.538,3.538,0,0,0,.413,1.934,1.376,1.376,0,0,0,1.222.615q1.582,0,1.617-2.435v-.3q0-2.558-1.635-2.558-1.485,0-1.608,2.206Zm2.021-8.842h3.129l-2.443,2.76-2.417,0ZM114.8-9.51l.1,1.116a3.225,3.225,0,0,1,2.716-1.292,2.713,2.713,0,0,1,2.219.888,4.226,4.226,0,0,1,.76,2.672V0h-2.971V-6a1.6,1.6,0,0,0-.29-1.059,1.342,1.342,0,0,0-1.055-.338,1.413,1.413,0,0,0-1.292.686V0h-2.962V-9.51Z" transform="translate(949 716)" fill="#12263f"/>
    <path id="Trazado_874201" data-name="Trazado 874201" d="M.967,0V-12.8H5.089a6.064,6.064,0,0,1,3.05.769,5.406,5.406,0,0,1,2.114,2.171,6.554,6.554,0,0,1,.769,3.142v.589a6.592,6.592,0,0,1-.743,3.151A5.429,5.429,0,0,1,8.187-.8a5.93,5.93,0,0,1-3.01.8ZM4.052-10.415v8.042H5.124a2.4,2.4,0,0,0,2.039-.945,4.63,4.63,0,0,0,.712-2.808V-6.68a4.592,4.592,0,0,0-.712-2.795,2.442,2.442,0,0,0-2.074-.94ZM17.068.176a4.889,4.889,0,0,1-3.542-1.305,4.507,4.507,0,0,1-1.354-3.4v-.246a5.84,5.84,0,0,1,.541-2.575,3.955,3.955,0,0,1,1.578-1.727,4.763,4.763,0,0,1,2.461-.611,4.117,4.117,0,0,1,3.164,1.244,4.887,4.887,0,0,1,1.16,3.467v1.151H15.188a2.135,2.135,0,0,0,.694,1.257,2.066,2.066,0,0,0,1.389.457,2.662,2.662,0,0,0,2.2-.984l1.354,1.6A3.784,3.784,0,0,1,19.252-.277,5.3,5.3,0,0,1,17.068.176ZM16.734-7.4q-1.3,0-1.547,1.723h2.988v-.229a1.467,1.467,0,0,0-.36-1.1A1.434,1.434,0,0,0,16.734-7.4ZM31.1-4.685a5.735,5.735,0,0,1-1,3.538A3.2,3.2,0,0,1,27.4.176a2.742,2.742,0,0,1-2.153-.958V3.656H22.289V-9.51h2.769l.088.879a2.742,2.742,0,0,1,2.241-1.055,3.224,3.224,0,0,1,2.733,1.3A5.805,5.805,0,0,1,31.1-4.825Zm-2.962-.185q0-2.531-1.477-2.531a1.394,1.394,0,0,0-1.406.756V-2.9a1.439,1.439,0,0,0,1.424.791q1.415,0,1.459-2.443ZM37,.176A4.889,4.889,0,0,1,33.46-1.129a4.507,4.507,0,0,1-1.354-3.4v-.246a5.84,5.84,0,0,1,.541-2.575,3.955,3.955,0,0,1,1.578-1.727,4.763,4.763,0,0,1,2.461-.611A4.117,4.117,0,0,1,39.85-8.442a4.887,4.887,0,0,1,1.16,3.467v1.151H35.121a2.135,2.135,0,0,0,.694,1.257,2.066,2.066,0,0,0,1.389.457,2.662,2.662,0,0,0,2.2-.984l1.354,1.6A3.784,3.784,0,0,1,39.186-.277,5.3,5.3,0,0,1,37,.176ZM36.668-7.4q-1.3,0-1.547,1.723h2.988v-.229a1.467,1.467,0,0,0-.36-1.1A1.434,1.434,0,0,0,36.668-7.4ZM44.921-9.51l.1,1.116a3.225,3.225,0,0,1,2.716-1.292,2.713,2.713,0,0,1,2.219.888,4.226,4.226,0,0,1,.76,2.672V0H47.742V-6a1.6,1.6,0,0,0-.29-1.059A1.342,1.342,0,0,0,46.4-7.4a1.413,1.413,0,0,0-1.292.686V0H42.144V-9.51Zm7.058,4.685a5.809,5.809,0,0,1,.976-3.56,3.211,3.211,0,0,1,2.725-1.3,2.731,2.731,0,0,1,2.145,1V-13.5h2.971V0H58.131l-.149-1.02a2.8,2.8,0,0,1-2.32,1.2,3.205,3.205,0,0,1-2.689-1.3A5.993,5.993,0,0,1,51.979-4.825Zm2.962.185q0,2.531,1.477,2.531a1.458,1.458,0,0,0,1.406-.826V-6.557A1.419,1.419,0,0,0,56.435-7.4q-1.371,0-1.485,2.215ZM67.078.176a4.889,4.889,0,0,1-3.542-1.305,4.507,4.507,0,0,1-1.354-3.4v-.246a5.84,5.84,0,0,1,.541-2.575A3.955,3.955,0,0,1,64.3-9.075a4.763,4.763,0,0,1,2.461-.611,4.117,4.117,0,0,1,3.164,1.244,4.887,4.887,0,0,1,1.16,3.467v1.151H65.2a2.135,2.135,0,0,0,.694,1.257,2.066,2.066,0,0,0,1.389.457,2.662,2.662,0,0,0,2.2-.984l1.354,1.6A3.784,3.784,0,0,1,69.262-.277,5.3,5.3,0,0,1,67.078.176ZM66.744-7.4q-1.3,0-1.547,1.723h2.988v-.229a1.467,1.467,0,0,0-.36-1.1A1.434,1.434,0,0,0,66.744-7.4ZM75-9.51l.1,1.116A3.225,3.225,0,0,1,77.81-9.686a2.713,2.713,0,0,1,2.219.888,4.226,4.226,0,0,1,.76,2.672V0H77.818V-6a1.6,1.6,0,0,0-.29-1.059A1.342,1.342,0,0,0,76.474-7.4a1.413,1.413,0,0,0-1.292.686V0H72.22V-9.51Zm11.452,7.4a1.317,1.317,0,0,0,.967-.338,1.241,1.241,0,0,0,.334-.945h2.777A3.288,3.288,0,0,1,89.407-.826a4.168,4.168,0,0,1-2.887,1,4.22,4.22,0,0,1-3.27-1.3,5.125,5.125,0,0,1-1.2-3.6v-.123A5.792,5.792,0,0,1,82.586-7.4a3.872,3.872,0,0,1,1.534-1.7,4.573,4.573,0,0,1,2.373-.593,4.116,4.116,0,0,1,2.944,1.028,3.647,3.647,0,0,1,1.09,2.786H87.75A1.626,1.626,0,0,0,87.39-7a1.244,1.244,0,0,0-.967-.4q-1.151,0-1.345,1.468a10.357,10.357,0,0,0-.062,1.283,4.068,4.068,0,0,0,.343,1.986A1.187,1.187,0,0,0,86.449-2.109ZM94.9,0H91.934V-9.51H94.9ZM91.758-11.971a1.334,1.334,0,0,1,.457-1.043,1.718,1.718,0,0,1,1.187-.407,1.718,1.718,0,0,1,1.187.407,1.334,1.334,0,0,1,.457,1.043,1.334,1.334,0,0,1-.457,1.043,1.718,1.718,0,0,1-1.187.407,1.718,1.718,0,0,1-1.187-.407A1.334,1.334,0,0,1,91.758-11.971ZM102.085,0a3.344,3.344,0,0,1-.281-.853A2.754,2.754,0,0,1,99.519.176a3.374,3.374,0,0,1-2.285-.813,2.588,2.588,0,0,1-.94-2.043,2.66,2.66,0,0,1,1.143-2.338,5.821,5.821,0,0,1,3.322-.791h.914v-.5q0-1.316-1.134-1.316a.927.927,0,0,0-1.055,1.042H96.521a2.655,2.655,0,0,1,1.173-2.239,4.931,4.931,0,0,1,2.993-.86,4.323,4.323,0,0,1,2.874.888,3.086,3.086,0,0,1,1.081,2.435v4.21a4.311,4.311,0,0,0,.4,2V0ZM100.23-1.934a1.652,1.652,0,0,0,.918-.237,1.487,1.487,0,0,0,.523-.536V-4.228h-.861q-1.547,0-1.547,1.389a.848.848,0,0,0,.272.655A.986.986,0,0,0,100.23-1.934Z" transform="translate(747 713)" fill="#12263f"/>
    <g id="Grupo_1099334" data-name="Grupo 1099334" transform="translate(976 667.95) rotate(-90)">
      <path id="Trazado_874131" data-name="Trazado 874131" d="M202.684,420.928a2.644,2.644,0,1,0,2.644-2.644A2.647,2.647,0,0,0,202.684,420.928Zm3.382,0a.738.738,0,1,1-.738-.738A.739.739,0,0,1,206.066,420.928Z" transform="translate(-180.984 -365.129)" fill="#a854f3"/>
      <path id="Trazado_874132" data-name="Trazado 874132" d="M204.636,54.406a.953.953,0,1,0,0-1.906h-4.194a.953.953,0,1,0,0,1.906Z" transform="translate(-178.195 -45.828)" fill="#a854f3"/>
      <path id="Trazado_874133" data-name="Trazado 874133" d="M86.639,2.3a4.478,4.478,0,0,0-6.1,1.612A4.772,4.772,0,0,0,75.849,0H36.693a4.771,4.771,0,0,0-4.765,4.765V60.3a4.771,4.771,0,0,0,4.765,4.765H75.849A4.771,4.771,0,0,0,80.615,60.3V50.337a.953.953,0,1,0-1.906,0V60.3a2.863,2.863,0,0,1-2.859,2.859H36.693A2.863,2.863,0,0,1,33.834,60.3V4.765a2.863,2.863,0,0,1,2.859-2.859H75.849a2.863,2.863,0,0,1,2.859,2.859V7.078l-1.906,3.3V5.4a1.59,1.59,0,0,0-1.588-1.588H37.329A1.59,1.59,0,0,0,35.74,5.4v5.37a.953.953,0,1,0,1.906,0V5.719H74.9v7.963L64.651,31.426c-.212.367-.856,1.483-1.1,7.2a2.064,2.064,0,0,0,3.171,1.831c4.83-3.068,5.474-4.184,5.686-4.551L74.9,31.6V59.346H37.647V14.584a.953.953,0,1,0-1.906,0v45.08a1.59,1.59,0,0,0,1.588,1.588H75.214A1.59,1.59,0,0,0,76.8,59.664V28.3L78.708,25v21.53a.953.953,0,0,0,1.906,0V21.694l4.439-7.688h0l1.592-2.757h0L88.279,8.42A4.485,4.485,0,0,0,86.639,2.3Zm-2.76,9.927L79.422,9.654l.639-1.107,4.457,2.573Zm-12.644,21.9-4.457-2.573L78.469,11.3l4.457,2.573ZM65.7,38.848a.159.159,0,0,1-.245-.141,34.113,34.113,0,0,1,.547-5.4l4.1,2.367A34.131,34.131,0,0,1,65.7,38.848ZM86.628,7.466l-1.157,2L81.014,6.9l1.157-2a2.556,2.556,0,0,1,1.562-1.2,2.591,2.591,0,0,1,.67-.089,2.575,2.575,0,0,1,2.224,3.861Z" transform="translate(-31.928)" fill="#a854f3"/>
      <path id="Trazado_874134" data-name="Trazado 874134" d="M332.979,214.749a.953.953,0,0,0-1.3.349l-.817,1.415a.953.953,0,1,0,1.651.953l.817-1.415A.953.953,0,0,0,332.979,214.749Z" transform="translate(-292.76 -187.347)" fill="#a854f3"/>
      <path id="Trazado_874135" data-name="Trazado 874135" d="M118.662,291.631a3.736,3.736,0,0,0-3.208,1.836L112.791,298a.953.953,0,1,0,1.643.966l2.662-4.529a1.815,1.815,0,0,1,3.109-.035l3.4,5.5a5.535,5.535,0,0,0,8.906.695l1.525-1.775a.953.953,0,0,0-1.446-1.242l-1.525,1.775a3.629,3.629,0,0,1-5.839-.455l-3.4-5.5A3.7,3.7,0,0,0,118.662,291.631Z" transform="translate(-102.4 -254.571)" fill="#a854f3"/>
    </g>
    <g id="Grupo_1099335" data-name="Grupo 1099335" transform="translate(768 622.001)">
      <path id="Trazado_874137" data-name="Trazado 874137" d="M61.656,10.564l-7.8-7.8a2.6,2.6,0,1,0-3.678,3.678L53.541,9.8H44.215A18.227,18.227,0,0,0,26.009,28.01a13.02,13.02,0,0,1-13,13H2.6a2.6,2.6,0,0,0,0,5.2H13A18.227,18.227,0,0,0,31.21,28.01a13.02,13.02,0,0,1,13-13h9.327l-3.363,3.363a2.6,2.6,0,0,0,0,3.678,2.632,2.632,0,0,0,3.678,0l7.8-7.8a2.64,2.64,0,0,0,.564-2.835,2.6,2.6,0,0,0-.567-.845Z" fill="#3a1d71"/>
      <path id="Trazado_874138" data-name="Trazado 874138" d="M2.6,10.2H13a12.83,12.83,0,0,1,7.228,2.206A2.6,2.6,0,1,0,23.148,8.1,18.011,18.011,0,0,0,13,5H2.6a2.6,2.6,0,1,0,0,5.2Z" transform="translate(0 4.804)" fill="#3a1d71"/>
      <path id="Trazado_874139" data-name="Trazado 874139" d="M41.389,22.564l-7.8-7.8a2.6,2.6,0,1,0-3.678,3.678L33.274,21.8H23.947A12.83,12.83,0,0,1,16.719,19.6,2.6,2.6,0,1,0,13.8,23.906a18.011,18.011,0,0,0,10.144,3.1h9.327l-3.363,3.363a2.6,2.6,0,1,0,3.678,3.678l7.8-7.8a2.637,2.637,0,0,0,.564-2.835,2.6,2.6,0,0,0-.567-.845Z" transform="translate(20.268 19.21)" fill="#3a1d71"/>
    </g>
  </g>
</svg>
