<svg xmlns="http://www.w3.org/2000/svg" width="70" height="70" viewBox="0 0 70 70">
  <g id="Grupo_1098744" data-name="Grupo 1098744" transform="translate(-515 -526)">
    <circle id="Elipse_11440" data-name="Elipse 11440" cx="35" cy="35" r="35" transform="translate(515 526)" fill="#3a1d71"/>
    <g id="Grupo_1098766" data-name="Grupo 1098766" transform="translate(527.349 540.432)">
      <path id="Trazado_873024" data-name="Trazado 873024" d="M71.778,61.6h-26a6.22,6.22,0,0,0-6.22,6.22V93.764H78V67.817a6.22,6.22,0,0,0-6.22-6.22Zm0,0" transform="translate(-36.059 -56.147)" fill="#efe1f9"/>
      <path id="Trazado_873025" data-name="Trazado 873025" d="M39.559,386.547H78v3.433H39.559Zm0,0" transform="translate(-36.058 -352.344)" fill="#d7c6e5"/>
      <path id="Trazado_873026" data-name="Trazado 873026" d="M48.142,61.6a6.22,6.22,0,0,0-6.219,6.22V93.764H40.328V67.818a6.22,6.22,0,0,1,6.22-6.22Zm0,0" transform="translate(-36.76 -56.147)" fill="#d7c6e5"/>
      <path id="Trazado_873027" data-name="Trazado 873027" d="M108.716,126.158H84.623a3.494,3.494,0,0,1-3.494-3.495v-16a3.494,3.494,0,0,1,3.494-3.494h24.093a3.494,3.494,0,0,1,3.494,3.494v16A3.494,3.494,0,0,1,108.716,126.158Zm0,0" transform="translate(-73.95 -94.039)" fill="#c3edfc"/>
      <path id="Trazado_873028" data-name="Trazado 873028" d="M101.6,119.728H77.5a4.19,4.19,0,0,1-4.186-4.186v-16A4.19,4.19,0,0,1,77.5,95.356H101.6a4.19,4.19,0,0,1,4.186,4.186v16A4.19,4.19,0,0,1,101.6,119.728ZM77.5,96.738a2.806,2.806,0,0,0-2.8,2.8v16a2.806,2.806,0,0,0,2.8,2.8H101.6a2.806,2.806,0,0,0,2.8-2.8v-16a2.806,2.806,0,0,0-2.8-2.8Zm0,0" transform="translate(-66.829 -86.918)" fill="#d7c6e5"/>
      <path id="Trazado_873029" data-name="Trazado 873029" d="M44.033,404.563H4.2a2.669,2.669,0,1,0,0,5.338H44.033a2.669,2.669,0,1,0,0-5.338Zm0,0" transform="translate(-1.399 -368.766)" fill="#efe1f9"/>
      <path id="Trazado_873030" data-name="Trazado 873030" d="M46.353,408.556a2.669,2.669,0,0,1-2.32,1.348H4.2a2.669,2.669,0,1,1,0-5.338H5.317a2.669,2.669,0,0,0,2.32,3.99Zm0,0" transform="translate(-1.399 -368.769)" fill="#d7c6e5"/>
      <path id="Trazado_873031" data-name="Trazado 873031" d="M183.1,407.231h-9.927a2.669,2.669,0,0,1-2.669-2.669h15.265A2.669,2.669,0,0,1,183.1,407.231Zm0,0" transform="translate(-155.42 -368.766)" fill="#d7c6e5"/>
      <path id="Trazado_873032" data-name="Trazado 873032" d="M340.6,0H330.471a3.034,3.034,0,0,0-3.034,3.034v6.991a3.034,3.034,0,0,0,3.034,3.033H340.6a3.034,3.034,0,0,0,3.034-3.033V3.034A3.034,3.034,0,0,0,340.6,0Zm0,0" transform="translate(-298.465)" fill="#ff557e"/>
      <path id="Trazado_873033" data-name="Trazado 873033" d="M315.191,206.82h-7.959a2.545,2.545,0,0,0-2.545,2.545v6.314a2.545,2.545,0,0,0,2.545,2.545h7.959a2.545,2.545,0,0,0,2.545-2.545v-6.314A2.545,2.545,0,0,0,315.191,206.82Zm0,0" transform="translate(-277.728 -188.52)" fill="#80e29d"/>
      <path id="Trazado_873034" data-name="Trazado 873034" d="M19.046,130.07h-15A4.041,4.041,0,0,0,0,134.111v8.174a4.041,4.041,0,0,0,4.041,4.041h15a4.041,4.041,0,0,0,4.041-4.041v-8.174A4.041,4.041,0,0,0,19.046,130.07Zm0,0" transform="translate(0 -118.561)" fill="#617ed1"/>
      <path id="Trazado_873035" data-name="Trazado 873035" d="M202.362,163.02H200.8a.691.691,0,0,1,0-1.383h1.561a.691.691,0,0,1,0,1.383Zm0,0" transform="translate(-182.403 -147.335)" fill="#ffe76e"/>
      <path id="Trazado_873036" data-name="Trazado 873036" d="M108.319,163.02h-6.253a.691.691,0,0,1,0-1.383h6.253a.691.691,0,0,1,0,1.383Zm0,0" transform="translate(-92.405 -147.335)" fill="#ffe76e"/>
      <path id="Trazado_873037" data-name="Trazado 873037" d="M32.3,163.02H28.246a.691.691,0,0,1,0-1.383H32.3a.691.691,0,0,1,0,1.383Zm0,0" transform="translate(-25.116 -147.335)" fill="#ff557e"/>
      <path id="Trazado_873038" data-name="Trazado 873038" d="M139.9,267.988h-7.623a.691.691,0,1,1,0-1.383H139.9a.691.691,0,0,1,0,1.383Zm0,0" transform="translate(-119.947 -243.015)" fill="#ffe76e"/>
      <path id="Trazado_873039" data-name="Trazado 873039" d="M77.413,267.988H75.12a.691.691,0,0,1,0-1.383h2.292a.691.691,0,1,1,0,1.383Zm0,0" transform="translate(-67.843 -243.015)" fill="#ffe76e"/>
      <path id="Trazado_873040" data-name="Trazado 873040" d="M29.628,267.988H28.246a.691.691,0,0,1,0-1.383h1.382a.691.691,0,1,1,0,1.383Zm0,0" transform="translate(-25.116 -243.015)" fill="#ff557e"/>
      <path id="Trazado_873041" data-name="Trazado 873041" d="M187.272,233h-3.025a.691.691,0,1,1,0-1.383h3.025a.691.691,0,1,1,0,1.383Zm0,0" transform="translate(-167.314 -211.123)" fill="#ffe76e"/>
      <path id="Trazado_873042" data-name="Trazado 873042" d="M39.284,233H28.246a.691.691,0,1,1,0-1.383H39.284a.691.691,0,1,1,0,1.383Zm0,0" transform="translate(-25.116 -211.123)" fill="#ff557e"/>
      <path id="Trazado_873043" data-name="Trazado 873043" d="M94.511,198.012H82.481a.691.691,0,1,1,0-1.383H94.511a.691.691,0,0,1,0,1.383Zm0,0" transform="translate(-74.552 -179.231)" fill="#ffe76e"/>
      <path id="Trazado_873044" data-name="Trazado 873044" d="M30.28,198.012H28.246a.691.691,0,1,1,0-1.383H30.28a.691.691,0,1,1,0,1.383Zm0,0" transform="translate(-25.116 -179.231)" fill="#ff557e"/>
      <g id="Grupo_1098765" data-name="Grupo 1098765" transform="translate(30.859 1.291)">
        <path id="Trazado_873045" data-name="Trazado 873045" d="M440.392,39.537a.691.691,0,0,1-.489-1.18l2.5-2.5-2.5-2.5a.691.691,0,1,1,.978-.978l2.991,2.991a.691.691,0,0,1,0,.977l-2.991,2.991a.689.689,0,0,1-.489.2Zm0,0" transform="translate(-431.654 -30.617)" fill="#fff"/>
        <path id="Trazado_873046" data-name="Trazado 873046" d="M352.445,39.537a.69.69,0,0,1-.489-.2l-2.991-2.991a.691.691,0,0,1,0-.977l2.991-2.991a.691.691,0,1,1,.978.978l-2.5,2.5,2.5,2.5a.691.691,0,0,1-.489,1.18Zm0,0" transform="translate(-348.762 -30.617)" fill="#fff"/>
        <path id="Trazado_873047" data-name="Trazado 873047" d="M400.974,25.067a.692.692,0,0,1-.677-.834l1.92-9.093a.691.691,0,1,1,1.353.285l-1.92,9.093a.692.692,0,0,1-.676.549Zm0,0" transform="translate(-395.723 -14.591)" fill="#fff"/>
      </g>
      <path id="Trazado_873048" data-name="Trazado 873048" d="M345.482,238.673a.691.691,0,0,1-.523-.24l-2.3-2.667a.691.691,0,0,1,1.047-.9l1.648,1.911,2.831-5.192a.691.691,0,1,1,1.214.662l-3.309,6.069a.693.693,0,0,1-.534.356.661.661,0,0,1-.074,0Zm0,0" transform="translate(-312.187 -210.762)" fill="#304c56"/>
    </g>
  </g>
</svg>
