<svg xmlns="http://www.w3.org/2000/svg" width="71.249" height="44.981" viewBox="0 0 71.249 44.981">
  <g id="label" transform="translate(-6.5 -100.763)">
    <path id="Trazado_872975" data-name="Trazado 872975" d="M133.592,233.692l2.652-6.964a.16.16,0,0,1,.3,0l2.628,6.964" transform="translate(-108.523 -107.468)" fill="none" stroke="#00ffdf" stroke-linecap="round" stroke-linejoin="round" stroke-miterlimit="10" stroke-width="2"/>
    <line id="Línea_557" data-name="Línea 557" x2="3.936" transform="translate(25.896 124.49)" fill="none" stroke="#00ffdf" stroke-linecap="round" stroke-linejoin="round" stroke-miterlimit="10" stroke-width="2"/>
    <path id="Trazado_872976" data-name="Trazado 872976" d="M70.751,233.692v-7.05l4.766,6.9c.088.128.183.065.183-.09l-.066-6.825" transform="translate(-54.438 -107.468)" fill="none" stroke="#00ffdf" stroke-linecap="round" stroke-linejoin="round" stroke-miterlimit="10" stroke-width="2"/>
    <path id="Trazado_872977" data-name="Trazado 872977" d="M200.453,233.638l1.241-6.878a.16.16,0,0,1,.308-.021l2.02,6.845a.16.16,0,0,0,.3,0l1.951-6.843a.16.16,0,0,1,.308.017l1.315,6.88" transform="translate(-166.068 -107.468)" fill="none" stroke="#00ffdf" stroke-linecap="round" stroke-linejoin="round" stroke-miterlimit="10" stroke-width="2"/>
    <path id="Trazado_872978" data-name="Trazado 872978" d="M286.38,226.86h-2.949v7h2.949" transform="translate(-237.485 -107.667)" fill="none" stroke="#00ffdf" stroke-linecap="round" stroke-linejoin="round" stroke-miterlimit="10" stroke-width="2"/>
    <line id="Línea_558" data-name="Línea 558" x1="2.732" transform="translate(45.946 122.693)" fill="none" stroke="#00ffdf" stroke-linecap="round" stroke-linejoin="round" stroke-miterlimit="10" stroke-width="2"/>
    <path id="Trazado_872979" data-name="Trazado 872979" d="M434.556,177.057h-9.838l11.116,11.116v-9.838A1.278,1.278,0,0,0,434.556,177.057Z" transform="translate(-359.086 -64.803)" fill="none" stroke="#00ffdf" stroke-linecap="round" stroke-linejoin="round" stroke-miterlimit="10" stroke-width="2"/>
    <path id="Trazado_872980" data-name="Trazado 872980" d="M423.582,188.031v-9.838L434.7,189.309h-9.838A1.279,1.279,0,0,1,423.582,188.031Z" transform="translate(-358.108 -65.781)" fill="none" stroke="#00ffdf" stroke-linecap="round" stroke-linejoin="round" stroke-miterlimit="10" stroke-width="2"/>
    <line id="Línea_559" data-name="Línea 559" x1="7.636" transform="translate(21.872 112.254)" fill="none" stroke="#00ffdf" stroke-linecap="round" stroke-linejoin="round" stroke-miterlimit="10" stroke-width="2"/>
    <line id="Línea_560" data-name="Línea 560" x1="31.247" transform="translate(34.385 112.254)" fill="none" stroke="#00ffdf" stroke-linecap="round" stroke-linejoin="round" stroke-miterlimit="10" stroke-width="2"/>
    <path id="Trazado_872981" data-name="Trazado 872981" d="M441.646,278.213h2.642A6.116,6.116,0,0,0,450.4,272.1V256.84" transform="translate(-373.655 -133.47)" fill="none" stroke="#00ffdf" stroke-linecap="round" stroke-linejoin="round" stroke-miterlimit="10" stroke-width="2"/>
    <path id="Trazado_872982" data-name="Trazado 872982" d="M7.5,139.41v31.62a6.116,6.116,0,0,0,6.116,6.116h49.22" transform="translate(0 -32.402)" fill="none" stroke="#00ffdf" stroke-linecap="round" stroke-linejoin="round" stroke-miterlimit="10" stroke-width="2"/>
    <line id="Línea_561" data-name="Línea 561" x2="42.532" transform="translate(16.313 131.82)" fill="none" stroke="#00ffdf" stroke-linecap="round" stroke-linejoin="round" stroke-miterlimit="10" stroke-width="2"/>
    <line id="Línea_562" data-name="Línea 562" x2="16.693" transform="translate(16.313 136.483)" fill="none" stroke="#00ffdf" stroke-linecap="round" stroke-linejoin="round" stroke-miterlimit="10" stroke-width="2"/>
    <path id="Trazado_872983" data-name="Trazado 872983" d="M21.4,112.254H12.745A5.245,5.245,0,0,1,7.5,107.008h0a5.245,5.245,0,0,1,5.245-5.245H21.4Z" fill="none" stroke="#00ffdf" stroke-linecap="round" stroke-linejoin="round" stroke-miterlimit="10" stroke-width="2"/>
  </g>
</svg>
