<svg xmlns="http://www.w3.org/2000/svg" width="114.467" height="122.777" viewBox="0 0 114.467 122.777">
  <g id="Grupo_1099368" data-name="Grupo 1099368" transform="translate(-3714 9425)">
    <rect id="Rectángulo_401135" data-name="Rectángulo 401135" width="88.482" height="88.482" transform="translate(3714 -9390.705)" fill="#c297e9"/>
    <path id="Trazado_874151" data-name="Trazado 874151" d="M0-15.7,25.986-50V38.482L0,72.777Z" transform="translate(3802.482 -9375)" fill="#7c34bc"/>
    <path id="Trazado_874152" data-name="Trazado 874152" d="M0,82.493l34.3,31.974V25.975L0,0Z" transform="translate(3828.467 -9425) rotate(90)" fill="#9452cf"/>
    <path id="Trazado_874200" data-name="Trazado 874200" d="M11.563,15H9.219L4.656,7.516V15H2.313V3.625H4.656l4.57,7.5v-7.5h2.336Zm1.547-4.3a5.013,5.013,0,0,1,.484-2.242A3.546,3.546,0,0,1,14.988,6.93,4.069,4.069,0,0,1,17.1,6.391a3.849,3.849,0,0,1,2.793,1.047A4.2,4.2,0,0,1,21.1,10.281l.016.578a4.418,4.418,0,0,1-1.086,3.121,3.775,3.775,0,0,1-2.914,1.176A3.793,3.793,0,0,1,14.2,13.984a4.5,4.5,0,0,1-1.09-3.187Zm2.258.16A3.16,3.16,0,0,0,15.82,12.7a1.628,1.628,0,0,0,2.578.008,3.457,3.457,0,0,0,.461-2.015A3.128,3.128,0,0,0,18.4,8.86a1.5,1.5,0,0,0-1.3-.649,1.474,1.474,0,0,0-1.281.646A3.516,3.516,0,0,0,15.367,10.856Zm6.789-.145a5.094,5.094,0,0,1,.887-3.148,2.877,2.877,0,0,1,2.426-1.172,2.589,2.589,0,0,1,2.039.922V3h2.266V15H27.734l-.109-.9a2.657,2.657,0,0,1-2.172,1.055,2.869,2.869,0,0,1-2.395-1.176A5.258,5.258,0,0,1,22.156,10.711Zm2.258.161a3.355,3.355,0,0,0,.414,1.829,1.348,1.348,0,0,0,1.2.636,1.51,1.51,0,0,0,1.477-.887V9.1a1.489,1.489,0,0,0-1.461-.887Q24.414,8.211,24.414,10.872Zm6.758-.176a5.013,5.013,0,0,1,.484-2.242A3.546,3.546,0,0,1,33.051,6.93a4.069,4.069,0,0,1,2.113-.539,3.849,3.849,0,0,1,2.793,1.047,4.2,4.2,0,0,1,1.207,2.844l.016.578a4.418,4.418,0,0,1-1.086,3.121,4.209,4.209,0,0,1-5.832,0,4.5,4.5,0,0,1-1.09-3.187Zm2.258.16a3.16,3.16,0,0,0,.453,1.843,1.628,1.628,0,0,0,2.578.008,3.457,3.457,0,0,0,.461-2.015,3.128,3.128,0,0,0-.461-1.831,1.5,1.5,0,0,0-1.3-.649,1.474,1.474,0,0,0-1.281.646A3.516,3.516,0,0,0,33.43,10.856Z" transform="translate(3737.741 -9355.965)" fill="#12263f"/>
  </g>
</svg>
