<svg xmlns="http://www.w3.org/2000/svg" xmlns:xlink="http://www.w3.org/1999/xlink" width="400" height="383.715" viewBox="0 0 400 383.715">
  <defs>
    <clipPath id="clip-path">
      <rect id="Rectángulo_400979" data-name="Rectángulo 400979" width="400" height="222.434" fill="none"/>
    </clipPath>
    <clipPath id="clip-path-2">
      <rect id="Rectángulo_400967" data-name="Rectángulo 400967" width="400" height="377.434" fill="none"/>
    </clipPath>
    <clipPath id="clip-path-5">
      <rect id="Rectángulo_400972" data-name="Rectángulo 400972" width="37.844" height="32.515" fill="none"/>
    </clipPath>
    <clipPath id="clip-path-6">
      <rect id="Rectángulo_400973" data-name="Rectángulo 400973" width="37.813" height="13.131" fill="none"/>
    </clipPath>
    <clipPath id="clip-path-7">
      <rect id="Rectángulo_400974" data-name="Rectángulo 400974" width="2.95" height="2.939" fill="none"/>
    </clipPath>
    <clipPath id="clip-path-8">
      <rect id="Rectángulo_400975" data-name="Rectángulo 400975" width="37.831" height="3.58" fill="none"/>
    </clipPath>
    <clipPath id="clip-path-11">
      <rect id="Rectángulo_400993" data-name="Rectángulo 400993" width="103.636" height="159.138" fill="none"/>
    </clipPath>
    <clipPath id="clip-path-13">
      <rect id="Rectángulo_400991" data-name="Rectángulo 400991" width="47.007" height="22.571" fill="none"/>
    </clipPath>
    <clipPath id="clip-path-14">
      <rect id="Rectángulo_400988" data-name="Rectángulo 400988" width="18.852" height="22.571" fill="none"/>
    </clipPath>
    <clipPath id="clip-path-15">
      <rect id="Rectángulo_400989" data-name="Rectángulo 400989" width="12.313" height="22.571" fill="none"/>
    </clipPath>
    <clipPath id="clip-path-16">
      <rect id="Rectángulo_400990" data-name="Rectángulo 400990" width="10.787" height="22.571" fill="none"/>
    </clipPath>
  </defs>
  <g id="Grupo_1098971" data-name="Grupo 1098971" transform="translate(4794 10963.715)">
    <g id="Grupo_1098950" data-name="Grupo 1098950" transform="translate(-4794 -10963.715)">
      <g id="Grupo_1098949" data-name="Grupo 1098949" clip-path="url(#clip-path)">
        <rect id="Rectángulo_400959" data-name="Rectángulo 400959" width="15.892" height="161.105" transform="translate(43.639 215.909)" fill="#ebebeb"/>
        <g id="Grupo_1098923" data-name="Grupo 1098923">
          <g id="Grupo_1098922" data-name="Grupo 1098922" clip-path="url(#clip-path-2)">
            <path id="Trazado_873223" data-name="Trazado 873223" d="M393.153,424.6c0,.128-88.018.231-196.567.231C88,424.834,0,424.731,0,424.6s88-.231,196.586-.231c108.549,0,196.567.1,196.567.231" transform="translate(0 -47.4)" fill="#263238"/>
          </g>
        </g>
        <g id="Grupo_1098928" data-name="Grupo 1098928">
          <g id="Grupo_1098927" data-name="Grupo 1098927" clip-path="url(#clip-path-2)">
            <path id="Trazado_873246" data-name="Trazado 873246" d="M371.242,10.5V186.153a10.259,10.259,0,0,1-10.259,10.259H99.974a10.259,10.259,0,0,1-10.259-10.259V10.5A10.259,10.259,0,0,1,99.974.238H360.982a10.26,10.26,0,0,1,10.26,10.26" transform="translate(-10.021 -0.027)" fill="#e0e0e0"/>
            <path id="Trazado_873247" data-name="Trazado 873247" d="M371.213,10.471s-.019-.2-.043-.608A9.361,9.361,0,0,0,370.9,8.08a9.974,9.974,0,0,0-1.112-2.744A10.182,10.182,0,0,0,367.062,2.3,9.835,9.835,0,0,0,362.29.367a23.939,23.939,0,0,0-3.014-.092l-3.293.006L340.215.3,239.728.375,170.335.4,131.677.415,111.461.42l-10.317,0a17.91,17.91,0,0,0-2.566.1,10.063,10.063,0,0,0-2.461.656,10.181,10.181,0,0,0-4.048,3.064,9.907,9.907,0,0,0-2.038,4.68,15.452,15.452,0,0,0-.13,2.609v2.658q0,5.323,0,10.709,0,10.772,0,21.785,0,22.022.005,44.93c0,30.52,0,62.12,0,94.485a11.055,11.055,0,0,0,.43,2.923,10.812,10.812,0,0,0,1.26,2.667,11.108,11.108,0,0,0,1.977,2.183,10.018,10.018,0,0,0,5.37,2.227c.97.071,1.986.045,2.986.05h29.82l46.563,0,88.024.013,79.652.022,9.274,0,4.576,0a21.139,21.139,0,0,0,2.249-.068,10.3,10.3,0,0,0,2.159-.5,10.065,10.065,0,0,0,6.1-5.919,11.074,11.074,0,0,0,.672-4.258q0-2.193,0-4.364.008-17.367.015-33.3c.031-42.423.056-76.753.074-100.481.019-11.861.033-21.07.044-27.319.01-3.12.017-5.5.022-7.1s.024-2.421.024-2.421.016.82.024,2.421.012,3.985.022,7.1c.011,6.249.025,15.458.044,27.319.018,23.728.043,58.059.074,100.481q.007,15.91.015,33.3,0,2.172,0,4.364a11.435,11.435,0,0,1-.693,4.388,10.429,10.429,0,0,1-6.322,6.138,10.623,10.623,0,0,1-2.239.515,21.351,21.351,0,0,1-2.291.073l-4.576,0-9.274,0-79.652.021-88.024.013-46.563,0H101.94c-1-.006-2,.022-3.031-.052a10.485,10.485,0,0,1-5.619-2.33,11.541,11.541,0,0,1-2.069-2.283,11.261,11.261,0,0,1-1.317-2.791,11.482,11.482,0,0,1-.45-3.057c0-32.365,0-63.965.005-94.485q0-22.889.005-44.93,0-11.011,0-21.785,0-5.386,0-10.709V11.536a15.868,15.868,0,0,1,.137-2.675,10.33,10.33,0,0,1,2.127-4.879A10.6,10.6,0,0,1,95.955.791,10.439,10.439,0,0,1,98.52.108,18.278,18.278,0,0,1,101.144,0l10.317,0,20.216.005L170.335.02l69.393.028L340.215.122l15.767.021,3.293.005a23.731,23.731,0,0,1,3.029.1,9.927,9.927,0,0,1,4.813,1.974A10.214,10.214,0,0,1,369.845,5.3a9.9,9.9,0,0,1,1.1,2.768,9.063,9.063,0,0,1,.251,1.793c.016.406.019.61.019.61" transform="translate(-9.992 0)" fill="#263238"/>
            <rect id="Rectángulo_400969" data-name="Rectángulo 400969" width="235.108" height="183.803" transform="translate(99.78 7.124)" fill="#fff"/>
            <path id="Trazado_873248" data-name="Trazado 873248" d="M389.768,101.292a7.527,7.527,0,1,1-7.528,7.527,7.528,7.528,0,0,1,7.528-7.527" transform="translate(-42.694 -11.314)" fill="#263238"/>
            <path id="Trazado_873249" data-name="Trazado 873249" d="M101.952,78.481v56.926a1.079,1.079,0,0,1-1.079,1.079h-.951a1.079,1.079,0,0,1-1.079-1.079V78.481A1.079,1.079,0,0,1,99.921,77.4h.951a1.079,1.079,0,0,1,1.079,1.079" transform="translate(-11.04 -8.645)" fill="#263238"/>
            <rect id="Rectángulo_400970" data-name="Rectángulo 400970" width="22.02" height="184.435" transform="translate(99.779 6.492)" fill="#ff725e"/>
            <path id="Trazado_873250" data-name="Trazado 873250" d="M135.3,115.984H114.428a2.1,2.1,0,0,1-2.1-2.1V99.75a2.1,2.1,0,0,1,2.1-2.1H135.3Z" transform="translate(-12.546 -10.907)" fill="#fff"/>
            <path id="Trazado_873251" data-name="Trazado 873251" d="M124.215,36.166h0a4.029,4.029,0,1,1,4.015-4.029,4.023,4.023,0,0,1-4.015,4.029" transform="translate(-13.426 -3.14)" fill="#fff"/>
            <path id="Trazado_873252" data-name="Trazado 873252" d="M127.57,53.425a14.373,14.373,0,0,1-3.621.231,14.367,14.367,0,0,1-3.621-.231,14.367,14.367,0,0,1,3.621-.231,14.373,14.373,0,0,1,3.621.231" transform="translate(-13.44 -5.942)" fill="#fff"/>
            <path id="Trazado_873253" data-name="Trazado 873253" d="M128.294,76.4a14.373,14.373,0,0,1-3.621.231,14.367,14.367,0,0,1-3.621-.231,14.367,14.367,0,0,1,3.621-.231,14.373,14.373,0,0,1,3.621.231" transform="translate(-13.521 -8.508)" fill="#fff"/>
            <path id="Trazado_873254" data-name="Trazado 873254" d="M128.294,134.845a14.373,14.373,0,0,1-3.621.231,14.367,14.367,0,0,1-3.621-.231,14.367,14.367,0,0,1,3.621-.231,14.373,14.373,0,0,1,3.621.231" transform="translate(-13.521 -15.036)" fill="#fff"/>
            <path id="Trazado_873255" data-name="Trazado 873255" d="M128.294,164.986a14.347,14.347,0,0,1-3.621.232,14.341,14.341,0,0,1-3.621-.232,14.367,14.367,0,0,1,3.621-.231,14.373,14.373,0,0,1,3.621.231" transform="translate(-13.521 -18.402)" fill="#fff"/>
            <path id="Trazado_873256" data-name="Trazado 873256" d="M128.294,108.242a14.373,14.373,0,0,1-3.621.231,14.367,14.367,0,0,1-3.621-.231,14.367,14.367,0,0,1,3.621-.231,14.373,14.373,0,0,1,3.621.231" transform="translate(-13.521 -12.064)" fill="#263238"/>
            <path id="Trazado_873257" data-name="Trazado 873257" d="M347.405,191.714c0-1.594-.076-73.178-.192-184.435l.192.192-235.089.04h-.02l.231-.232c-.009,66.519-.017,129.416-.024,184.435l-.207-.208,235.108.208-235.108.208h-.208v-.208c-.007-55.019-.015-117.916-.024-184.435V7.048h.251l235.089.04h.192v.191c-.115,111.257-.19,182.842-.192,184.435" transform="translate(-12.517 -0.787)" fill="#263238"/>
          </g>
        </g>
        <g id="Grupo_1098948" data-name="Grupo 1098948">
          <g id="Grupo_1098947" data-name="Grupo 1098947" clip-path="url(#clip-path-2)">
            <path id="Trazado_873258" data-name="Trazado 873258" d="M105.784,161.833l-3.123,3.9v-6.718H92.824s-1.093,15.385-.859,18.664,3.9,12.649,3.9,12.649a36.236,36.236,0,0,0,9.916-8.667c4.372-5.621,11.637-19.315,11.637-19.315l-7.576-4.576Z" transform="translate(-10.268 -17.623)" fill="#ffbe9d"/>
            <path id="Trazado_873259" data-name="Trazado 873259" d="M107,161.531a11.172,11.172,0,0,1-1.285,1.716c-.829,1.029-1.979,2.446-3.294,3.98s-2.556,2.883-3.519,3.8a7.1,7.1,0,0,1-1.671,1.355,16.57,16.57,0,0,1,1.437-1.584c.9-.965,2.089-2.342,3.4-3.869a48.305,48.305,0,0,1,4.93-5.395" transform="translate(-10.86 -18.042)" fill="#eb996e"/>
            <path id="Trazado_873260" data-name="Trazado 873260" d="M105.428,130.85s-2.8-22.957-13.884-25.3L85.8,127.612l4.77,15.915,15.822-2.16Z" transform="translate(-9.584 -11.789)" fill="#ff725e"/>
            <path id="Trazado_873261" data-name="Trazado 873261" d="M25.482,145.579l.523,1.641L36.9,181.341s26.839,10.2,36.484,6.164,14.109-9.778,14.109-9.778L85.338,105.1l-15.3-2.318-26.392-1.937-17.679,5.671Z" transform="translate(-2.846 -11.264)" fill="#ff725e"/>
            <g id="Grupo_1098931" data-name="Grupo 1098931" transform="translate(22.636 130.502)" opacity="0.3">
              <g id="Grupo_1098930" data-name="Grupo 1098930">
                <g id="Grupo_1098929" data-name="Grupo 1098929" clip-path="url(#clip-path-5)">
                  <path id="Trazado_873262" data-name="Trazado 873262" d="M58.793,164.023a113.644,113.644,0,0,1-27.9-17.112l-5.406,2.883c4.062,8.2,7.442,15.68,13.043,22.915a19.076,19.076,0,0,0,7.455,5.984A12.467,12.467,0,0,0,58.5,176.146c3.215-2.994,5.626-11.782,4.569-18.953-1.805.1-2.611,7.52-4.282,6.83" transform="translate(-25.482 -146.911)"/>
                </g>
              </g>
            </g>
            <path id="Trazado_873263" data-name="Trazado 873263" d="M93.859,140.829a34.515,34.515,0,0,0-1.813-7.239,34.5,34.5,0,0,0-3.754-6.45,7.426,7.426,0,0,1,1.516,1.622,20.079,20.079,0,0,1,4,9.847,7.392,7.392,0,0,1,.046,2.22" transform="translate(-9.861 -14.201)" fill="#263238"/>
            <path id="Trazado_873264" data-name="Trazado 873264" d="M90.76,77.126a3.937,3.937,0,0,1-3.7-1.651,4.7,4.7,0,0,0,2.842-.157c.86-.439,1.347-1.7.672-2.4-.526-.539-1.393-.446-2.144-.5a4.638,4.638,0,0,1-3.945-3.027c-.636-1.827-.054-3.82.175-5.741a15.811,15.811,0,0,0-6.62-14.593L66.008,42.1c-4.364,5.586-5.725,13.114-4.82,20.144S65.075,75.885,68.66,82a23.456,23.456,0,0,0,3.631,5A9.3,9.3,0,0,0,77.7,89.772a5.578,5.578,0,0,0-.891-5.037,12.142,12.142,0,0,0,8.949-3.205q-1.288-.99-2.579-1.978a9.42,9.42,0,0,0,7.582-2.426" transform="translate(-6.805 -4.703)" fill="#263238"/>
            <path id="Trazado_873265" data-name="Trazado 873265" d="M42.335,57.547a11.278,11.278,0,0,1,8.183-10.621L65.6,42.615c6.547-.9,11.163,7.057,11.782,13.636.687,7.31,1.2,15.029.5,20.521-1.407,11.042-9.786,12.7-9.786,12.7,0-.016.147,5.229.234,8.438l-2.459,14.383L45.985,95.312,42.3,57.681c-.01-.187.024.116.035-.134" transform="translate(-4.725 -4.752)" fill="#ffbe9d"/>
            <path id="Trazado_873266" data-name="Trazado 873266" d="M79.3,67.273a1.409,1.409,0,0,1-1.316,1.464,1.349,1.349,0,0,1-1.491-1.226A1.41,1.41,0,0,1,77.8,66.047,1.349,1.349,0,0,1,79.3,67.273" transform="translate(-8.543 -7.377)" fill="#263238"/>
            <path id="Trazado_873267" data-name="Trazado 873267" d="M79.378,62.7c-.169.189-1.261-.568-2.777-.517-1.516.028-2.6.843-2.775.663-.084-.08.084-.418.558-.785A3.868,3.868,0,0,1,76.6,61.3a3.712,3.712,0,0,1,2.217.641c.478.344.646.671.562.756" transform="translate(-8.244 -6.847)" fill="#263238"/>
            <path id="Trazado_873268" data-name="Trazado 873268" d="M64.347,67.293a1.409,1.409,0,0,1-1.316,1.463A1.349,1.349,0,0,1,61.54,67.53a1.411,1.411,0,0,1,1.314-1.464,1.349,1.349,0,0,1,1.493,1.227" transform="translate(-6.873 -7.379)" fill="#263238"/>
            <path id="Trazado_873269" data-name="Trazado 873269" d="M63.165,63.162c-.17.189-1.263-.568-2.779-.517-1.515.028-2.6.843-2.774.663-.083-.08.083-.418.559-.785a3.867,3.867,0,0,1,2.214-.758,3.715,3.715,0,0,1,2.218.641c.476.343.645.671.562.756" transform="translate(-6.433 -6.899)" fill="#263238"/>
            <path id="Trazado_873270" data-name="Trazado 873270" d="M69.448,75.008a10.066,10.066,0,0,1,2.449-.52c.386-.052.751-.14.807-.407a1.972,1.972,0,0,0-.294-1.14l-1.236-2.914c-1.719-4.149-2.977-7.566-2.809-7.633s1.7,3.241,3.416,7.39q.622,1.535,1.189,2.932a2.246,2.246,0,0,1,.248,1.514.972.972,0,0,1-.619.585,2.645,2.645,0,0,1-.656.112,9.868,9.868,0,0,1-2.5.08" transform="translate(-7.635 -6.969)" fill="#263238"/>
            <path id="Trazado_873271" data-name="Trazado 873271" d="M54.813,91.439s3.792,7.446,14.758,6.08L69.5,94.934a27.7,27.7,0,0,1-14.687-3.495" transform="translate(-6.122 -10.213)" fill="#eb996e"/>
            <path id="Trazado_873272" data-name="Trazado 873272" d="M62.286,57.052c-.137.417-1.657.268-3.429.537-1.778.234-3.2.8-3.445.435-.111-.173.128-.569.7-.986a6.032,6.032,0,0,1,5.237-.742c.661.243,1,.557.942.755" transform="translate(-6.186 -6.255)" fill="#263238"/>
            <path id="Trazado_873273" data-name="Trazado 873273" d="M78.723,57.481c-.256.353-1.312.028-2.568.049-1.258-.022-2.313.3-2.569-.05-.113-.171.044-.521.5-.863a3.717,3.717,0,0,1,4.139,0c.456.341.612.69.5.863" transform="translate(-8.215 -6.254)" fill="#263238"/>
            <path id="Trazado_873274" data-name="Trazado 873274" d="M63.178,79.73a1.979,1.979,0,0,1,2-1.56A2.069,2.069,0,0,1,66.8,79.256a2.543,2.543,0,0,1,.147,1.976l-.028.144a2.259,2.259,0,0,1-2.521.612,2.109,2.109,0,0,1-1.223-2.258" transform="translate(-7.053 -8.731)" fill="#eb996e"/>
            <path id="Trazado_873275" data-name="Trazado 873275" d="M68.091,81.251c0-.23-1.536-.114-2.725-1.339S64.216,77.043,64,77.048c-.1-.014-.269.386-.234,1.078a3.824,3.824,0,0,0,1.052,2.4A3.336,3.336,0,0,0,67.1,81.547c.645.008,1.011-.193.993-.3" transform="translate(-7.122 -8.606)" fill="#263238"/>
            <path id="Trazado_873276" data-name="Trazado 873276" d="M48.049,38.936a15.307,15.307,0,0,1,8.846-6.06c3.578-.625,5.734-.012,8.086,2.136a8.915,8.915,0,0,0,3.547,2.1c1.716.334,3.15.051,5.2,1.1,2.8,1.43,4.022,5.169,5.317,8.029,1.61,3.556,3.9,6.828,4.954,10.586s.491,8.378-2.676,10.658c.6-3.209,1.1-6.778-.658-9.526-1.344-2.1-3.737-3.257-5.461-5.054-2.08-2.168-2.35-5.069-4.529-7.137-4.973-4.723-13.731,3.586-22.623-6.831" transform="translate(-5.367 -3.646)" fill="#263238"/>
            <path id="Trazado_873277" data-name="Trazado 873277" d="M80.007,54.768a32.13,32.13,0,0,0-4.9-8.88,17.268,17.268,0,0,0-22.956-2.943l-.867.074a14.567,14.567,0,0,0,11.327,5.457c2.583-.012,5.387-.675,7.6.654,2.13,1.276,2.938,3.958,4.691,5.718,1.193,1.2,2.795,1.933,3.953,3.165A12.95,12.95,0,0,1,81.3,62.755c.772-2.642-.244-5.443-1.292-7.987" transform="translate(-5.728 -4.453)" fill="#263238"/>
            <path id="Trazado_873278" data-name="Trazado 873278" d="M54.406,44.97l-7.044-6.2c-5.492-.285-9.015,4.9-10.9,8.91-1.4,2.978-1.838,6.31-2.893,9.427-1.083,3.2-2.815,6.16-3.8,9.391s-1.122,6.989.823,9.752l1.229-2.259a13.652,13.652,0,0,0,3.694,8.433q.236-1.177.473-2.354a13.241,13.241,0,0,0,5.3,5.71l3.3,8.822c4.875-14.845-7.673-15.971,9.818-49.635" transform="translate(-3.246 -4.33)" fill="#263238"/>
            <path id="Trazado_873279" data-name="Trazado 873279" d="M53.834,46.294a31.977,31.977,0,0,1-1.654,5.9,11.334,11.334,0,0,1-3.626,4.852c-2.41,1.748-5.514,2.108-8.408,2.8s-5.978,2.033-7.17,4.761a68.238,68.238,0,0,1,2.469-11.818c1.291-4.252,3.153-8.585,6.7-11.266A12.272,12.272,0,0,1,53.707,39.8" transform="translate(-3.683 -4.362)" fill="#263238"/>
            <path id="Trazado_873280" data-name="Trazado 873280" d="M47.158,68.981c-.147-.369-6.983-2.617-6.867,4.577.112,6.989,7.122,5.412,7.131,5.212s-.264-9.789-.264-9.789" transform="translate(-4.5 -7.635)" fill="#ffbe9d"/>
            <path id="Trazado_873281" data-name="Trazado 873281" d="M45.436,76.453c-.031-.021-.12.088-.324.186a1.215,1.215,0,0,1-.91.036A3.012,3.012,0,0,1,42.757,74a4.015,4.015,0,0,1,.307-1.749,1.406,1.406,0,0,1,.9-.952.618.618,0,0,1,.725.32c.1.194.056.334.093.346.02.017.147-.12.086-.408a.778.778,0,0,0-.283-.433.916.916,0,0,0-.677-.164,1.708,1.708,0,0,0-1.251,1.107,4.13,4.13,0,0,0-.385,1.957c.072,1.407.818,2.711,1.833,2.984a1.306,1.306,0,0,0,1.11-.206c.212-.177.247-.334.222-.346" transform="translate(-4.721 -7.925)" fill="#eb996e"/>
            <path id="Trazado_873282" data-name="Trazado 873282" d="M44.781,78.559a1.375,1.375,0,1,0,.33.094" transform="translate(-4.825 -8.773)" fill="#fff"/>
            <path id="Trazado_873283" data-name="Trazado 873283" d="M45.092,78.647a1.879,1.879,0,0,1,.655.92,1.184,1.184,0,0,1-.242,1.105,1.222,1.222,0,0,1-2.167-.624,1.185,1.185,0,0,1,.381-1.064,1.882,1.882,0,0,1,1.045-.432c0-.018-.109-.069-.33-.068a1.426,1.426,0,0,0-.863.33,1.4,1.4,0,0,0-.524,1.276,1.5,1.5,0,0,0,2.684.771,1.4,1.4,0,0,0,.234-1.359,1.435,1.435,0,0,0-.556-.738c-.187-.118-.31-.134-.315-.117" transform="translate(-4.807 -8.766)" fill="#263238"/>
            <path id="Trazado_873284" data-name="Trazado 873284" d="M39.584,75.935c-.011.012-.084-.043-.214-.157a4.706,4.706,0,0,1-.535-.537,8.392,8.392,0,0,1-1.456-2.382,8.208,8.208,0,0,1-.554-4.112A7.013,7.013,0,0,1,39.3,64.333a16.965,16.965,0,0,1,4.369-2.565c1.42-.615,2.692-1.15,3.708-1.7A15.1,15.1,0,0,0,50.4,57.878a3.046,3.046,0,0,1-.64.8,10.827,10.827,0,0,1-2.227,1.674,39.929,39.929,0,0,1-3.694,1.808A17.483,17.483,0,0,0,39.6,64.681a6.694,6.694,0,0,0-2.357,4.126,8.168,8.168,0,0,0,.438,3.934,12.238,12.238,0,0,0,1.9,3.193" transform="translate(-4.106 -6.464)" fill="#455a64"/>
            <path id="Trazado_873285" data-name="Trazado 873285" d="M39.175,71.886a1.8,1.8,0,0,1-.314-.681,5.707,5.707,0,0,1-.252-2.034,6.5,6.5,0,0,1,.856-2.929A6.4,6.4,0,0,1,42.2,63.7a35.726,35.726,0,0,1,3.416-1.381A9.567,9.567,0,0,0,48.171,60.9a5.661,5.661,0,0,0,1.6-2.14,1.562,1.562,0,0,1-.169.734,4.57,4.57,0,0,1-1.219,1.655,9.088,9.088,0,0,1-2.607,1.562c-1.046.443-2.232.813-3.362,1.4a6.145,6.145,0,0,0-2.581,2.348,6.5,6.5,0,0,0-.9,2.737,9.533,9.533,0,0,0,.24,2.692" transform="translate(-4.312 -6.563)" fill="#455a64"/>
            <path id="Trazado_873286" data-name="Trazado 873286" d="M56.107,46.737a20.454,20.454,0,0,0-2.732-4.512,20.446,20.446,0,0,0-4.1-3.316,3.868,3.868,0,0,1,1.474.59,11.324,11.324,0,0,1,4.974,5.7,3.892,3.892,0,0,1,.386,1.54" transform="translate(-5.503 -4.345)" fill="#455a64"/>
            <path id="Trazado_873287" data-name="Trazado 873287" d="M91.673,74.618a3.388,3.388,0,0,1-.9-.12,18,18,0,0,1-2.385-.64,10.289,10.289,0,0,1-1.574-.7,4.228,4.228,0,0,1-1.533-1.316,2.663,2.663,0,0,1-.416-1.052q-.039-.264-.08-.533a3.781,3.781,0,0,1-.064-.586,7.28,7.28,0,0,1,.426-2.332,8.733,8.733,0,0,0,.486-2.188,3.381,3.381,0,0,0-.545-1.913,14.632,14.632,0,0,0-2.418-2.628,20.418,20.418,0,0,0-1.847-1.588,6.314,6.314,0,0,1-.724-.533,8.063,8.063,0,0,1,2.79,1.879,13.661,13.661,0,0,1,2.562,2.646,3.779,3.779,0,0,1,.635,2.152,8.89,8.89,0,0,1-.5,2.308,7.06,7.06,0,0,0-.416,2.184,3.374,3.374,0,0,0,.052.514c.025.182.05.363.075.542a2.251,2.251,0,0,0,.338.9,3.939,3.939,0,0,0,1.368,1.216,10.859,10.859,0,0,0,1.5.724c1.921.726,3.188.981,3.167,1.066" transform="translate(-8.947 -6.532)" fill="#455a64"/>
            <path id="Trazado_873288" data-name="Trazado 873288" d="M65.089,409.684l.386-9.8,17.087-.643-.259,12-6.214,3.748Z" transform="translate(-7.27 -44.593)" fill="#ffbe9d"/>
            <path id="Trazado_873289" data-name="Trazado 873289" d="M82.537,410.16l-.006,1.124s18.971,7.83,19.139,11.446l-37.812-.556.7-12.575a21.633,21.633,0,0,0,17.981.561" transform="translate(-7.133 -45.75)" fill="#ff725e"/>
            <g id="Grupo_1098934" data-name="Grupo 1098934" transform="translate(56.724 363.848)" opacity="0.3">
              <g id="Grupo_1098933" data-name="Grupo 1098933">
                <g id="Grupo_1098932" data-name="Grupo 1098932" clip-path="url(#clip-path-6)">
                  <path id="Trazado_873290" data-name="Trazado 873290" d="M82.537,410.16l-.006,1.124s18.971,7.83,19.139,11.446l-37.812-.556.7-12.575a21.633,21.633,0,0,0,17.981.561" transform="translate(-63.856 -409.599)"/>
                </g>
              </g>
            </g>
            <g id="Grupo_1098937" data-name="Grupo 1098937" transform="translate(60.071 367.868)" opacity="0.6">
              <g id="Grupo_1098936" data-name="Grupo 1098936">
                <g id="Grupo_1098935" data-name="Grupo 1098935" clip-path="url(#clip-path-7)">
                  <path id="Trazado_873291" data-name="Trazado 873291" d="M68.746,414.184a1.544,1.544,0,0,0-1.094,1.746,1.485,1.485,0,0,0,1.722,1.1,1.629,1.629,0,0,0,1.149-1.856,1.54,1.54,0,0,0-1.918-.945" transform="translate(-67.624 -414.124)" fill="#fff"/>
                </g>
              </g>
            </g>
            <g id="Grupo_1098940" data-name="Grupo 1098940" transform="translate(56.724 373.399)" opacity="0.6">
              <g id="Grupo_1098939" data-name="Grupo 1098939">
                <g id="Grupo_1098938" data-name="Grupo 1098938" clip-path="url(#clip-path-8)">
                  <path id="Trazado_873292" data-name="Trazado 873292" d="M63.856,423.375l.168-3.025,36.181,1.641s1.673.757,1.465,1.94Z" transform="translate(-63.856 -420.35)" fill="#fff"/>
                </g>
              </g>
            </g>
            <path id="Trazado_873293" data-name="Trazado 873293" d="M84.589,411.594c-.009.185-.933.254-1.85.835-.933.556-1.412,1.349-1.581,1.274-.17-.038.122-1.139,1.245-1.821s2.23-.457,2.187-.288" transform="translate(-9.06 -45.953)" fill="#263238"/>
            <path id="Trazado_873294" data-name="Trazado 873294" d="M89.144,413.519c.039.179-.765.482-1.4,1.253-.661.753-.831,1.6-1.015,1.585-.174.026-.286-1.057.527-2s1.891-1.013,1.893-.837" transform="translate(-9.673 -46.18)" fill="#263238"/>
            <path id="Trazado_873295" data-name="Trazado 873295" d="M91.894,418.512c-.168.037-.412-.889.077-1.893s1.358-1.395,1.435-1.239c.1.153-.466.688-.855,1.518-.409.821-.473,1.6-.656,1.614" transform="translate(-10.241 -46.392)" fill="#263238"/>
            <path id="Trazado_873296" data-name="Trazado 873296" d="M47.8,409.935l.386-9.8,17.087-.643-.259,12L58.8,415.233Z" transform="translate(-5.339 -44.621)" fill="#ffbe9d"/>
            <path id="Trazado_873297" data-name="Trazado 873297" d="M65.244,410.41l-.006,1.124s18.971,7.83,19.139,11.446l-37.812-.555.7-12.576a21.633,21.633,0,0,0,17.981.561" transform="translate(-5.201 -45.778)" fill="#ff725e"/>
            <g id="Grupo_1098943" data-name="Grupo 1098943" transform="translate(44.71 368.091)" opacity="0.6">
              <g id="Grupo_1098942" data-name="Grupo 1098942">
                <g id="Grupo_1098941" data-name="Grupo 1098941" clip-path="url(#clip-path-7)">
                  <path id="Trazado_873298" data-name="Trazado 873298" d="M51.454,414.435a1.544,1.544,0,0,0-1.094,1.746,1.484,1.484,0,0,0,1.722,1.1,1.628,1.628,0,0,0,1.149-1.855,1.54,1.54,0,0,0-1.918-.945" transform="translate(-50.331 -414.375)" fill="#fff"/>
                </g>
              </g>
            </g>
            <g id="Grupo_1098946" data-name="Grupo 1098946" transform="translate(41.363 373.622)" opacity="0.6">
              <g id="Grupo_1098945" data-name="Grupo 1098945">
                <g id="Grupo_1098944" data-name="Grupo 1098944" clip-path="url(#clip-path-8)">
                  <path id="Trazado_873299" data-name="Trazado 873299" d="M46.564,423.626l.168-3.025,36.181,1.641s1.673.757,1.465,1.94Z" transform="translate(-46.564 -420.601)" fill="#fff"/>
                </g>
              </g>
            </g>
            <path id="Trazado_873300" data-name="Trazado 873300" d="M67.3,411.844c-.009.185-.934.254-1.85.835-.933.556-1.412,1.349-1.581,1.274-.17-.039.122-1.138,1.245-1.821s2.23-.457,2.187-.288" transform="translate(-7.128 -45.981)" fill="#263238"/>
            <path id="Trazado_873301" data-name="Trazado 873301" d="M71.851,413.77c.04.179-.765.481-1.4,1.253-.661.753-.831,1.6-1.015,1.585-.174.026-.286-1.057.527-2s1.891-1.013,1.892-.837" transform="translate(-7.741 -46.208)" fill="#263238"/>
            <path id="Trazado_873302" data-name="Trazado 873302" d="M74.6,418.762c-.168.037-.412-.889.077-1.893s1.358-1.395,1.435-1.239c.1.153-.467.688-.855,1.518-.409.821-.473,1.6-.656,1.614" transform="translate(-8.309 -46.42)" fill="#263238"/>
            <path id="Trazado_873303" data-name="Trazado 873303" d="M18.9,136.656s14.215,22.033,21.678,30.917,19.723,1.066,21.144-11.017,1.066-34.471,1.066-34.471l-9.929-5.911-6.418,30.566-8-14.883Z" transform="translate(-2.111 -12.976)" fill="#ffbe9d"/>
            <path id="Trazado_873304" data-name="Trazado 873304" d="M67.062,119.048l4.265-10.661a16.991,16.991,0,0,0,2.518-1.456c.625-.585.5-4.408.324-5.118s.691-2.665.079-3.02-2.325,0-2.389-.711c-.014-.152.884-1.961-.358-2.859a5.4,5.4,0,0,0-1.966-.354l-.7-3.54S66,87.608,64.4,89.552c0,0-6.04,7.285-6.574,8.352s-.688,13.413-.688,15.723" transform="translate(-6.381 -9.94)" fill="#ffbe9d"/>
            <path id="Trazado_873305" data-name="Trazado 873305" d="M57.125,113.6a3.356,3.356,0,0,1-.043-.643c-.006-.465-.014-1.079-.024-1.846,0-1.6.006-3.927.082-6.8.042-1.439.09-3.015.218-4.712.039-.425.073-.856.149-1.3a2.782,2.782,0,0,1,.622-1.257c.533-.738,1.1-1.473,1.694-2.224,1.181-1.5,2.444-3.06,3.765-4.671a5.474,5.474,0,0,1,1.139-1.189,1.882,1.882,0,0,1,1.739.018,7.734,7.734,0,0,1,2.549,2.191l.032.039.012.057c.068.343.139.712.213,1.083.163.829.324,1.65.482,2.457l-.221-.186a8.694,8.694,0,0,1,1.388.141,1.936,1.936,0,0,1,.718.266,1.807,1.807,0,0,1,.5.569,2.244,2.244,0,0,1,.207,1.425,4.4,4.4,0,0,1-.151.67L72.1,98l-.02.066c.006-.012-.005-.037,0-.015s.007.044.024.058c.036.076.232.145.419.174s.4.047.612.063.425.028.647.062a1.221,1.221,0,0,1,.707.29,1.038,1.038,0,0,1,.187.745,4.8,4.8,0,0,1-.081.64c-.075.41-.171.8-.223,1.179a1.518,1.518,0,0,0,0,.52,5.3,5.3,0,0,1,.079.613c.032.4.046.787.053,1.173a15.431,15.431,0,0,1-.114,2.261,2.757,2.757,0,0,1-.336,1.107,3.342,3.342,0,0,1-.894.661c-.6.347-1.19.647-1.769.927l.086-.092c-1.33,3.236-2.415,5.879-3.189,7.764L67.4,118.3a4.818,4.818,0,0,1-.344.724,4.753,4.753,0,0,1,.25-.761q.3-.8.807-2.144l3.045-7.821.024-.061.062-.031c.566-.283,1.153-.59,1.732-.934a3.259,3.259,0,0,0,.773-.566,2.55,2.55,0,0,0,.257-.935,15.239,15.239,0,0,0,.092-2.2c-.01-.378-.027-.76-.06-1.143a4.937,4.937,0,0,0-.074-.555,1.944,1.944,0,0,1-.012-.667c.054-.415.15-.808.219-1.2a4.216,4.216,0,0,0,.071-.58.677.677,0,0,0-.079-.437.974.974,0,0,0-.444-.144c-.194-.029-.4-.041-.612-.055s-.429-.028-.656-.067a1.05,1.05,0,0,1-.713-.358.538.538,0,0,1-.1-.236.361.361,0,0,1,0-.174l.026-.09.1-.306a3.9,3.9,0,0,0,.134-.6,1.8,1.8,0,0,0-.157-1.141,1.352,1.352,0,0,0-.373-.422,1.577,1.577,0,0,0-.537-.185,8.415,8.415,0,0,0-1.307-.131l-.186-.006-.036-.179c-.159-.807-.321-1.629-.484-2.457-.073-.371-.146-.741-.213-1.083l.043.1a7.345,7.345,0,0,0-2.368-2.053,1.431,1.431,0,0,0-1.327-.041,5.459,5.459,0,0,0-1.016,1.079c-1.324,1.6-2.593,3.156-3.782,4.647-.593.745-1.168,1.475-1.7,2.2a2.4,2.4,0,0,0-.564,1.093c-.076.417-.114.846-.156,1.263-.143,1.681-.21,3.256-.273,4.69-.094,2.835-.171,5.143-.227,6.8-.026.766-.046,1.379-.062,1.844a3.461,3.461,0,0,1-.048.642" transform="translate(-6.373 -9.913)" fill="#eb996e"/>
            <path id="Trazado_873306" data-name="Trazado 873306" d="M69.733,95.606c.015.078-.739.187-1.867.561a13.967,13.967,0,0,0-1.9.911,9.451,9.451,0,0,1-2.583.611,5.009,5.009,0,0,0-3.777,2.248,5.369,5.369,0,0,0-.627,1.789,2.47,2.47,0,0,1,.345-1.953A4.867,4.867,0,0,1,60.8,98.146a5.465,5.465,0,0,1,2.517-.914,10.213,10.213,0,0,0,2.48-.542,11.273,11.273,0,0,1,1.975-.836,5.16,5.16,0,0,1,1.965-.249" transform="translate(-6.58 -10.676)" fill="#eb996e"/>
            <path id="Trazado_873307" data-name="Trazado 873307" d="M68.053,95.811c-.1.08-.488-.281-.588-.9s.153-1.084.268-1.038.1.467.188.963.238.9.131.973" transform="translate(-7.533 -10.485)" fill="#eb996e"/>
            <path id="Trazado_873308" data-name="Trazado 873308" d="M72.83,99.313a16.375,16.375,0,0,1-5.611.821,5.59,5.59,0,0,0-2.085.2A2.25,2.25,0,0,0,64.02,101.5a13.525,13.525,0,0,0-.407,1.563,2.525,2.525,0,0,1,.1-1.685,2.49,2.49,0,0,1,1.244-1.43,5.449,5.449,0,0,1,2.255-.278c3.1-.027,5.59-.493,5.616-.358" transform="translate(-7.095 -11.09)" fill="#eb996e"/>
            <path id="Trazado_873309" data-name="Trazado 873309" d="M74.932,102.8a3.039,3.039,0,0,1-1.354.314c-.854.1-2.036.063-3.31.1a7.314,7.314,0,0,0-1.744.218,2.094,2.094,0,0,0-1.127.723,2,2,0,0,0-.355,1.211c-.024.011-.116-.1-.16-.356a1.579,1.579,0,0,1,.244-1.038,2.3,2.3,0,0,1,1.268-.945,6.605,6.605,0,0,1,1.857-.274c1.31-.039,2.471.046,3.31.034a6.673,6.673,0,0,1,1.371.012" transform="translate(-7.469 -11.477)" fill="#eb996e"/>
            <path id="Trazado_873310" data-name="Trazado 873310" d="M73.939,106.339c.09.04-.383.831-1.525,1.088l.181-.246c.022.206.044.4.067.6a6.54,6.54,0,0,1,.005,2.441,6.589,6.589,0,0,1-.465-2.391c-.017-.2-.034-.4-.052-.6l-.018-.213.2-.033a7.959,7.959,0,0,0,1.608-.648" transform="translate(-8.057 -11.877)" fill="#eb996e"/>
            <path id="Trazado_873311" data-name="Trazado 873311" d="M87.523,185.931s12.644,27.909,12.644,45.364S87.7,305.825,87.7,305.825s-1.662,15.792-3.324,36.849A251.573,251.573,0,0,1,78,381.74H65.534l-20.225.553s-8.589-35.187-8.036-48.485,2.771-28.538,2.771-28.538S29.239,261.217,27.3,253.183c-.76-3.149-1.1-9.148-1.169-15.53a101.9,101.9,0,0,1,7.134-38.4l3.529-8.959Z" transform="translate(-2.918 -20.768)" fill="#263238"/>
            <path id="Trazado_873312" data-name="Trazado 873312" d="M73.474,248.751c-.137-.006-1.64,31.238-3.355,69.776s-3,69.8-2.86,69.8S68.9,357.1,70.615,318.549s3-69.792,2.859-69.8" transform="translate(-7.511 -27.784)" fill="#455a64"/>
            <path id="Trazado_873313" data-name="Trazado 873313" d="M76.984,229.738a9.466,9.466,0,0,0,.276-1.544c.152-1,.315-2.449.466-4.247a94.971,94.971,0,0,0,.087-14.1A94.929,94.929,0,0,0,75.8,195.9c-.394-1.761-.755-3.177-1.042-4.144a9.527,9.527,0,0,0-.484-1.491,9.29,9.29,0,0,0,.3,1.539c.229.98.537,2.4.887,4.168a112.52,112.52,0,0,1,1.86,13.916,112.5,112.5,0,0,1,.058,14.038c-.106,1.8-.216,3.249-.308,4.251a9.443,9.443,0,0,0-.084,1.565" transform="translate(-8.296 -21.251)" fill="#455a64"/>
            <path id="Trazado_873314" data-name="Trazado 873314" d="M29.5,214.585a2.456,2.456,0,0,0,.867.525,6.433,6.433,0,0,0,2.729.457,15.815,15.815,0,0,0,8.346-3.4,19.511,19.511,0,0,0,5.77-6.948,16.7,16.7,0,0,0,1.017-2.554,3.9,3.9,0,0,0,.215-.985c-.1-.032-.449,1.365-1.544,3.378a20.7,20.7,0,0,1-5.757,6.713,16.44,16.44,0,0,1-8.064,3.448,7.553,7.553,0,0,1-3.578-.632" transform="translate(-3.295 -22.526)" fill="#455a64"/>
            <path id="Trazado_873315" data-name="Trazado 873315" d="M88.283,197.5a3.225,3.225,0,0,0,.205.889,17.728,17.728,0,0,0,.871,2.327A24.907,24.907,0,0,0,100.408,212.5a17.92,17.92,0,0,0,2.266,1.02,3.25,3.25,0,0,0,.874.262c.033-.083-1.173-.555-2.97-1.589a27.426,27.426,0,0,1-10.9-11.629c-.916-1.861-1.308-3.1-1.394-3.067" transform="translate(-9.86 -22.06)" fill="#455a64"/>
            <path id="Trazado_873316" data-name="Trazado 873316" d="M68.2,196.484c.041,0,.056-.193.162-.506a2.169,2.169,0,0,1,.8-1.078,2.006,2.006,0,0,1,1.867-.238,1.948,1.948,0,0,1,0,3.646,2.006,2.006,0,0,1-1.867-.238,2.169,2.169,0,0,1-.8-1.078c-.106-.314-.121-.507-.162-.506s-.081.195-.026.553a2.16,2.16,0,0,0,.776,1.31,2.332,2.332,0,0,0,2.236.389,2.386,2.386,0,0,0,0-4.505,2.33,2.33,0,0,0-2.236.389,2.157,2.157,0,0,0-.776,1.31c-.055.359,0,.555.026.553" transform="translate(-7.612 -21.68)" fill="#455a64"/>
            <path id="Trazado_873317" data-name="Trazado 873317" d="M48.789,319.364a61.536,61.536,0,0,0,6.7,4,61.672,61.672,0,0,0,6.945,3.571,61.483,61.483,0,0,0-6.7-4,61.614,61.614,0,0,0-6.944-3.57" transform="translate(-5.449 -35.671)" fill="#455a64"/>
            <path id="Trazado_873318" data-name="Trazado 873318" d="M105.694,121.537c-3.86,5.866-19.488,29.629-24.109,36.657a1.086,1.086,0,0,0,1.046,1.673l27.763-3.493a1.084,1.084,0,0,0,.741-.437l26.519-36.217a1.087,1.087,0,0,0-.957-1.726l-28.566,2.112a3.2,3.2,0,0,0-2.437,1.431" transform="translate(-9.092 -13.179)" fill="#e0e0e0"/>
            <path id="Trazado_873319" data-name="Trazado 873319" d="M105.667,121.514a1.879,1.879,0,0,1,.221-.333,3.109,3.109,0,0,1,.9-.757,3.9,3.9,0,0,1,1.849-.449l2.584-.212,16.467-1.292,5.457-.418,2.9-.222c.256-.014.472-.047.765-.047a1.24,1.24,0,0,1,.8.331,1.275,1.275,0,0,1,.211,1.631L130.1,130.333,112.4,154.547c-.4.544-.762,1.056-1.2,1.621a1.32,1.32,0,0,1-.494.334,2.259,2.259,0,0,1-.538.107l-.98.123-3.884.488-7.595.952-14.358,1.793c-.3.032-.545.079-.882.1a1.273,1.273,0,0,1-.919-.383,1.314,1.314,0,0,1-.38-.912,1.525,1.525,0,0,1,.334-.89l1.831-2.774,3.5-5.3,6.292-9.515c3.848-5.8,6.967-10.493,9.137-13.76l2.5-3.728.661-.963a2.488,2.488,0,0,1,.238-.32,2.513,2.513,0,0,1-.2.346l-.623.988c-.568.883-1.385,2.151-2.431,3.776L93.4,140.464l-6.244,9.546-3.483,5.317-1.822,2.779a1.1,1.1,0,0,0-.263.66.9.9,0,0,0,.26.616.851.851,0,0,0,.618.256c.235-.012.555-.066.831-.1l14.354-1.82,7.594-.958,3.884-.489.98-.123a1.809,1.809,0,0,0,.43-.079.859.859,0,0,0,.321-.217l1.165-1.58,17.736-24.193,7.742-10.544a.892.892,0,0,0-.146-1.145.856.856,0,0,0-.559-.235c-.206,0-.485.03-.722.043l-2.9.209-5.46.388-16.479,1.146-2.586.17a3.856,3.856,0,0,0-1.816.394,3.648,3.648,0,0,0-1.164,1.007" transform="translate(-9.066 -13.156)" fill="#263238"/>
            <path id="Trazado_873320" data-name="Trazado 873320" d="M137.908,119.935a3.128,3.128,0,0,1-.582.086l-1.685.171-6.274.557-21.335,1.742.17-.1c-1.335,1.984-2.714,4.044-4.1,6.172-5.63,8.655-10.549,16.61-14.263,22.27-1.847,2.837-3.382,5.106-4.451,6.668l-1.253,1.785a4.63,4.63,0,0,1-.463.6,4.692,4.692,0,0,1,.386-.656l1.18-1.832,4.326-6.745c3.642-5.7,8.515-13.683,14.15-22.345,1.384-2.13,2.767-4.191,4.109-6.175l.061-.091.108-.008,21.348-1.584,6.285-.422,1.691-.093a3.213,3.213,0,0,1,.588,0" transform="translate(-9.346 -13.395)" fill="#263238"/>
            <path id="Trazado_873321" data-name="Trazado 873321" d="M125.349,125.766h0l.012,0Z" transform="translate(-14.001 -14.047)" fill="#fff"/>
            <path id="Trazado_873322" data-name="Trazado 873322" d="M125.911,126.179a.561.561,0,0,0-.687-.414,1.486,1.486,0,0,0-.744.418.742.742,0,0,0-.136.951c.277.343.847.217,1.181-.071a.972.972,0,0,0,.386-.885" transform="translate(-13.875 -14.046)" fill="#fff"/>
            <path id="Trazado_873323" data-name="Trazado 873323" d="M110.931,148.97s-1.1-2.612,1.685-2.949a96.372,96.372,0,0,1,10.08,0s3.991.421,3.149,3.286c0,0,2.359,2.107,1.1,4.382s-1.77,1.6-1.77,1.6.338,2.781-1.77,3.2c0,0-2.284,2.7-4.386,2.528s-11.034-4.466-11.623-5.309-1.433-1.323-.926-2.263c0,0-1.1-2.466,1.263-2.84,0,0,.169-2.06,3.2-1.639" transform="translate(-11.863 -16.293)" fill="#ffbe9d"/>
            <path id="Trazado_873324" data-name="Trazado 873324" d="M124.206,150.279a7.625,7.625,0,0,1-1.879.135c-1.159.024-2.761.026-4.529,0a26.717,26.717,0,0,1-4.55-.271c-1.2-.277-1.67-.982-1.614-1a4.789,4.789,0,0,0,1.682.676c1.1.186,2.724.072,4.489.129,1.769.027,3.369.077,4.528.137a7.651,7.651,0,0,1,1.873.192" transform="translate(-12.468 -16.658)" fill="#eb996e"/>
            <path id="Trazado_873325" data-name="Trazado 873325" d="M121.782,154.626a1.394,1.394,0,0,1-.6.209,6.474,6.474,0,0,1-1.738.107,12.3,12.3,0,0,1-2.534-.459c-.933-.258-1.925-.616-2.972-.938a13.307,13.307,0,0,0-2.99-.616,4.593,4.593,0,0,1-2.548-.515,1.458,1.458,0,0,1-.608-.868,1.2,1.2,0,0,1,.1-.789c.22-.4.519-.425.512-.4.023.036-.216.121-.346.475a1.088,1.088,0,0,0,.521,1.313,4.562,4.562,0,0,0,2.387.361,12.454,12.454,0,0,1,3.1.6l2.955.971a14.123,14.123,0,0,0,2.444.543,15.893,15.893,0,0,0,2.313.01" transform="translate(-12.037 -16.793)" fill="#eb996e"/>
            <path id="Trazado_873326" data-name="Trazado 873326" d="M118.632,158.666a7.494,7.494,0,0,1-1.876-.363c-1.141-.288-2.707-.735-4.414-1.293s-3.234-1.125-4.326-1.568a7.488,7.488,0,0,1-1.727-.816c.047-.123,2.792.832,6.2,1.944s6.181,1.969,6.146,2.1" transform="translate(-11.872 -17.27)" fill="#eb996e"/>
            <path id="Trazado_873327" data-name="Trazado 873327" d="M119.758,162.4a4.119,4.119,0,0,1-1.556-.179,18.574,18.574,0,0,1-3.558-1.253c-1.34-.608-2.508-1.231-3.354-1.68a5.579,5.579,0,0,1-1.332-.807,29.326,29.326,0,0,1,4.878,2.065c2.628,1.26,4.94,1.732,4.923,1.853" transform="translate(-12.282 -17.7)" fill="#eb996e"/>
            <path id="Trazado_873328" data-name="Trazado 873328" d="M24.886,107.23S13.463,111.988,16.3,127.1s4.312,20.162,4.312,20.162l22.519-11.848Z" transform="translate(-1.77 -11.977)" fill="#ff725e"/>
            <path id="Trazado_873329" data-name="Trazado 873329" d="M43.249,139.243a3.965,3.965,0,0,1-.823.536c-.545.318-1.34.764-2.326,1.308-1.975,1.085-4.718,2.558-7.761,4.16s-5.813,3.029-7.827,4.042c-1.007.506-1.825.909-2.4,1.178a3.893,3.893,0,0,1-.908.375,4.131,4.131,0,0,1,.824-.534c.545-.318,1.34-.765,2.326-1.308,1.975-1.086,4.718-2.559,7.761-4.16s5.809-3.027,7.823-4.04c1.006-.506,1.825-.91,2.4-1.179a4.175,4.175,0,0,1,.91-.378" transform="translate(-2.369 -15.552)" fill="#263238"/>
            <path id="Trazado_873330" data-name="Trazado 873330" d="M45.006,137.425a14.585,14.585,0,0,1-1.23-2.093c-.809-1.441-1.784-3.178-2.86-5.1l-2.883-5.093a12.651,12.651,0,0,1-1.094-2.17,12.577,12.577,0,0,1,1.375,2c.8,1.269,1.871,3.042,3,5.03s2.1,3.824,2.748,5.177a11.2,11.2,0,0,1,.94,2.243" transform="translate(-4.125 -13.735)" fill="#263238"/>
          </g>
        </g>
      </g>
      <g id="Grupo_1098951" data-name="Grupo 1098951" transform="translate(176.18 19.166)">
        <g id="Grupo_1098965" data-name="Grupo 1098965" clip-path="url(#clip-path-11)">
          <g id="Grupo_1098964" data-name="Grupo 1098964" transform="translate(0 0)">
            <g id="Grupo_1098963" data-name="Grupo 1098963" clip-path="url(#clip-path-11)">
              <path id="Trazado_873331" data-name="Trazado 873331" d="M117.543,181.452H28.359a5.79,5.79,0,0,1-5.79-5.789V31.357a5.789,5.789,0,0,1,5.79-5.789h89.184a5.789,5.789,0,0,1,5.789,5.789V175.663a5.789,5.789,0,0,1-5.789,5.789" transform="translate(-19.696 -22.314)" fill="#737172"/>
              <path id="Trazado_873332" data-name="Trazado 873332" d="M94.973,155.885H5.789A5.79,5.79,0,0,1,0,150.1V5.79A5.79,5.79,0,0,1,5.789,0H94.973a5.789,5.789,0,0,1,5.789,5.789V150.1a5.79,5.79,0,0,1-5.789,5.789" transform="translate(0.001 -0.001)" fill="#2f333b"/>
              <path id="Trazado_873333" data-name="Trazado 873333" d="M136.007,143.359v11a5.788,5.788,0,0,1-5.786,5.786H53.309a5.788,5.788,0,0,1-5.786-5.786v-11a5.788,5.788,0,0,1,5.786-5.786h76.912a5.788,5.788,0,0,1,5.786,5.786" transform="translate(-41.474 -120.063)" fill="#e49000"/>
              <path id="Trazado_873334" data-name="Trazado 873334" d="M136.007,165.7v10.742a5.788,5.788,0,0,1-5.786,5.786H53.309a5.788,5.788,0,0,1-5.786-5.786v-11a5.779,5.779,0,0,1,4.811-2.565h78.7a5.8,5.8,0,0,1,4.97,2.82" transform="translate(-41.474 -142.151)" fill="#ffd52b"/>
              <path id="Trazado_873335" data-name="Trazado 873335" d="M235.257,52.562H186.428A2.565,2.565,0,0,1,183.863,50V46.951a2.565,2.565,0,0,1,2.565-2.565h48.829a2.565,2.565,0,0,1,2.565,2.565V50a2.565,2.565,0,0,1-2.565,2.565" transform="translate(-160.461 -38.737)" fill="#5a6171"/>
              <path id="Trazado_873336" data-name="Trazado 873336" d="M71.907,527.69H63.849a2.582,2.582,0,0,1-2.582-2.582v-6.563a2.582,2.582,0,0,1,2.582-2.582h8.058a2.582,2.582,0,0,1,2.582,2.582v6.563a2.582,2.582,0,0,1-2.582,2.582" transform="translate(-53.469 -450.292)" fill="#5a6171"/>
              <path id="Trazado_873337" data-name="Trazado 873337" d="M71.907,442.873H63.849a2.582,2.582,0,0,1-2.582-2.582v-1.4a2.582,2.582,0,0,1,2.582-2.582h8.058a2.582,2.582,0,0,1,2.582,2.582v1.4a2.582,2.582,0,0,1-2.582,2.582" transform="translate(-53.469 -380.773)" fill="#5a6171"/>
              <path id="Trazado_873338" data-name="Trazado 873338" d="M213.221,442.873h-8.058a2.582,2.582,0,0,1-2.582-2.582v-1.4a2.582,2.582,0,0,1,2.582-2.582h8.058a2.582,2.582,0,0,1,2.582,2.582v1.4a2.582,2.582,0,0,1-2.582,2.582" transform="translate(-176.796 -380.773)" fill="#5a6171"/>
              <path id="Trazado_873339" data-name="Trazado 873339" d="M354.535,442.873h-8.058a2.582,2.582,0,0,1-2.582-2.582v-1.4a2.582,2.582,0,0,1,2.582-2.582h8.058a2.582,2.582,0,0,1,2.582,2.582v1.4a2.582,2.582,0,0,1-2.582,2.582" transform="translate(-300.124 -380.773)" fill="#5a6171"/>
              <path id="Trazado_873340" data-name="Trazado 873340" d="M495.849,442.873h-8.058a2.582,2.582,0,0,1-2.582-2.582v-1.4a2.582,2.582,0,0,1,2.582-2.582h8.058a2.582,2.582,0,0,1,2.582,2.582v1.4a2.582,2.582,0,0,1-2.582,2.582" transform="translate(-423.452 -380.773)" fill="#5a6171"/>
              <path id="Trazado_873341" data-name="Trazado 873341" d="M637.163,442.873H629.1a2.582,2.582,0,0,1-2.582-2.582v-1.4a2.582,2.582,0,0,1,2.582-2.582h8.058a2.582,2.582,0,0,1,2.582,2.582v1.4a2.582,2.582,0,0,1-2.582,2.582" transform="translate(-546.779 -380.773)" fill="#5a6171"/>
              <path id="Trazado_873342" data-name="Trazado 873342" d="M71.907,657.41H63.849a2.582,2.582,0,0,1-2.582-2.582v-6.563a2.582,2.582,0,0,1,2.582-2.582h8.058a2.582,2.582,0,0,1,2.582,2.582v6.563a2.582,2.582,0,0,1-2.582,2.582" transform="translate(-53.469 -563.501)" fill="#5a6171"/>
              <path id="Trazado_873343" data-name="Trazado 873343" d="M71.907,787.13H63.849a2.582,2.582,0,0,1-2.582-2.582v-6.563a2.582,2.582,0,0,1,2.582-2.582h8.058a2.582,2.582,0,0,1,2.582,2.582v6.563a2.582,2.582,0,0,1-2.582,2.582" transform="translate(-53.469 -676.711)" fill="#5a6171"/>
              <path id="Trazado_873344" data-name="Trazado 873344" d="M71.907,916.851H63.849a2.582,2.582,0,0,1-2.582-2.582v-6.562a2.582,2.582,0,0,1,2.582-2.582h8.058a2.582,2.582,0,0,1,2.582,2.582v6.563a2.582,2.582,0,0,1-2.582,2.582" transform="translate(-53.469 -789.921)" fill="#5a6171"/>
              <path id="Trazado_873345" data-name="Trazado 873345" d="M71.907,1046.571H63.849a2.582,2.582,0,0,1-2.582-2.582v-6.563a2.582,2.582,0,0,1,2.582-2.582h8.058a2.582,2.582,0,0,1,2.582,2.582v6.563a2.582,2.582,0,0,1-2.582,2.582" transform="translate(-53.469 -903.13)" fill="#5a6171"/>
              <path id="Trazado_873346" data-name="Trazado 873346" d="M213.221,657.41h-8.058a2.582,2.582,0,0,1-2.582-2.582v-6.563a2.582,2.582,0,0,1,2.582-2.582h8.058a2.582,2.582,0,0,1,2.582,2.582v6.563a2.582,2.582,0,0,1-2.582,2.582" transform="translate(-176.796 -563.501)" fill="#5a6171"/>
              <path id="Trazado_873347" data-name="Trazado 873347" d="M213.221,787.13h-8.058a2.582,2.582,0,0,1-2.582-2.582v-6.563a2.582,2.582,0,0,1,2.582-2.582h8.058a2.582,2.582,0,0,1,2.582,2.582v6.563a2.582,2.582,0,0,1-2.582,2.582" transform="translate(-176.796 -676.711)" fill="#5a6171"/>
              <path id="Trazado_873348" data-name="Trazado 873348" d="M213.221,916.851h-8.058a2.582,2.582,0,0,1-2.582-2.582v-6.562a2.582,2.582,0,0,1,2.582-2.582h8.058a2.582,2.582,0,0,1,2.582,2.582v6.563a2.582,2.582,0,0,1-2.582,2.582" transform="translate(-176.796 -789.921)" fill="#5a6171"/>
              <path id="Trazado_873349" data-name="Trazado 873349" d="M213.221,1046.571h-8.058a2.582,2.582,0,0,1-2.582-2.582v-6.563a2.582,2.582,0,0,1,2.582-2.582h8.058a2.582,2.582,0,0,1,2.582,2.582v6.563a2.582,2.582,0,0,1-2.582,2.582" transform="translate(-176.796 -903.13)" fill="#5a6171"/>
              <path id="Trazado_873350" data-name="Trazado 873350" d="M354.535,657.41h-8.058a2.582,2.582,0,0,1-2.582-2.582v-6.563a2.582,2.582,0,0,1,2.582-2.582h8.058a2.582,2.582,0,0,1,2.582,2.582v6.563a2.582,2.582,0,0,1-2.582,2.582" transform="translate(-300.124 -563.501)" fill="#5a6171"/>
              <path id="Trazado_873351" data-name="Trazado 873351" d="M354.535,787.13h-8.058a2.582,2.582,0,0,1-2.582-2.582v-6.563a2.582,2.582,0,0,1,2.582-2.582h8.058a2.582,2.582,0,0,1,2.582,2.582v6.563a2.582,2.582,0,0,1-2.582,2.582" transform="translate(-300.124 -676.711)" fill="#5a6171"/>
              <path id="Trazado_873352" data-name="Trazado 873352" d="M354.535,916.851h-8.058a2.582,2.582,0,0,1-2.582-2.582v-6.562a2.582,2.582,0,0,1,2.582-2.582h8.058a2.582,2.582,0,0,1,2.582,2.582v6.563a2.582,2.582,0,0,1-2.582,2.582" transform="translate(-300.124 -789.921)" fill="#5a6171"/>
              <path id="Trazado_873353" data-name="Trazado 873353" d="M354.535,1046.571h-8.058a2.582,2.582,0,0,1-2.582-2.582v-6.563a2.582,2.582,0,0,1,2.582-2.582h8.058a2.582,2.582,0,0,1,2.582,2.582v6.563a2.582,2.582,0,0,1-2.582,2.582" transform="translate(-300.124 -903.13)" fill="#5a6171"/>
              <path id="Trazado_873354" data-name="Trazado 873354" d="M495.849,657.41h-8.058a2.582,2.582,0,0,1-2.582-2.582v-6.563a2.582,2.582,0,0,1,2.582-2.582h8.058a2.582,2.582,0,0,1,2.582,2.582v6.563a2.582,2.582,0,0,1-2.582,2.582" transform="translate(-423.452 -563.501)" fill="#5a6171"/>
              <path id="Trazado_873355" data-name="Trazado 873355" d="M495.849,787.13h-8.058a2.582,2.582,0,0,1-2.582-2.582v-6.563a2.582,2.582,0,0,1,2.582-2.582h8.058a2.582,2.582,0,0,1,2.582,2.582v6.563a2.582,2.582,0,0,1-2.582,2.582" transform="translate(-423.452 -676.711)" fill="#5a6171"/>
              <path id="Trazado_873356" data-name="Trazado 873356" d="M495.849,916.851h-8.058a2.582,2.582,0,0,1-2.582-2.582v-6.562a2.582,2.582,0,0,1,2.582-2.582h8.058a2.582,2.582,0,0,1,2.582,2.582v6.563a2.582,2.582,0,0,1-2.582,2.582" transform="translate(-423.452 -789.921)" fill="#5a6171"/>
              <path id="Trazado_873357" data-name="Trazado 873357" d="M495.849,1046.571h-8.058a2.582,2.582,0,0,1-2.582-2.582v-6.563a2.582,2.582,0,0,1,2.582-2.582h8.058a2.582,2.582,0,0,1,2.582,2.582v6.563a2.582,2.582,0,0,1-2.582,2.582" transform="translate(-423.452 -903.13)" fill="#5a6171"/>
              <path id="Trazado_873358" data-name="Trazado 873358" d="M637.163,657.41H629.1a2.582,2.582,0,0,1-2.582-2.582v-6.563a2.582,2.582,0,0,1,2.582-2.582h8.058a2.582,2.582,0,0,1,2.582,2.582v6.563a2.582,2.582,0,0,1-2.582,2.582" transform="translate(-546.779 -563.501)" fill="#5a6171"/>
              <path id="Trazado_873359" data-name="Trazado 873359" d="M213.221,530.507h-8.058a2.582,2.582,0,0,1-2.582-2.582v-6.563a2.582,2.582,0,0,1,2.582-2.582h8.058a2.582,2.582,0,0,1,2.582,2.582v6.563a2.582,2.582,0,0,1-2.582,2.582" transform="translate(-176.796 -452.751)" fill="#5a6171"/>
              <path id="Trazado_873360" data-name="Trazado 873360" d="M354.535,530.507h-8.058a2.582,2.582,0,0,1-2.582-2.582v-6.563a2.582,2.582,0,0,1,2.582-2.582h8.058a2.582,2.582,0,0,1,2.582,2.582v6.563a2.582,2.582,0,0,1-2.582,2.582" transform="translate(-300.124 -452.751)" fill="#5a6171"/>
              <path id="Trazado_873361" data-name="Trazado 873361" d="M495.849,530.507h-8.058a2.582,2.582,0,0,1-2.582-2.582v-6.563a2.582,2.582,0,0,1,2.582-2.582h8.058a2.582,2.582,0,0,1,2.582,2.582v6.563a2.582,2.582,0,0,1-2.582,2.582" transform="translate(-423.452 -452.751)" fill="#5a6171"/>
              <path id="Trazado_873362" data-name="Trazado 873362" d="M637.163,530.507H629.1a2.582,2.582,0,0,1-2.582-2.582v-6.563a2.582,2.582,0,0,1,2.582-2.582h8.058a2.582,2.582,0,0,1,2.582,2.582v6.563a2.582,2.582,0,0,1-2.582,2.582" transform="translate(-546.779 -452.751)" fill="#5a6171"/>
              <path id="Trazado_873363" data-name="Trazado 873363" d="M637.163,787.13H629.1a2.582,2.582,0,0,1-2.582-2.582v-6.563A2.582,2.582,0,0,1,629.1,775.4h8.058a2.582,2.582,0,0,1,2.582,2.582v6.563a2.582,2.582,0,0,1-2.582,2.582" transform="translate(-546.779 -676.711)" fill="#5a6171"/>
              <path id="Trazado_873364" data-name="Trazado 873364" d="M637.163,933.362H629.1a2.582,2.582,0,0,1-2.582-2.582V907.707a2.582,2.582,0,0,1,2.582-2.582h8.058a2.582,2.582,0,0,1,2.582,2.582V930.78a2.582,2.582,0,0,1-2.582,2.582" transform="translate(-546.779 -789.921)" fill="#de1f21"/>
              <rect id="Rectángulo_400980" data-name="Rectángulo 400980" width="100.764" height="2.88" transform="translate(0 49.283)" fill="#5a6171"/>
              <rect id="Rectángulo_400981" data-name="Rectángulo 400981" width="1.45" height="8.176" transform="translate(29.178 5.649)" fill="#4f5561"/>
              <rect id="Rectángulo_400982" data-name="Rectángulo 400982" width="1.45" height="8.176" transform="translate(36.004 5.649)" fill="#4f5561"/>
              <rect id="Rectángulo_400983" data-name="Rectángulo 400983" width="1.45" height="8.176" transform="translate(42.83 5.649)" fill="#4f5561"/>
              <rect id="Rectángulo_400984" data-name="Rectángulo 400984" width="1.45" height="8.176" transform="translate(49.657 5.649)" fill="#4f5561"/>
              <rect id="Rectángulo_400985" data-name="Rectángulo 400985" width="1.45" height="8.176" transform="translate(56.483 5.649)" fill="#4f5561"/>
              <rect id="Rectángulo_400986" data-name="Rectángulo 400986" width="1.45" height="8.176" transform="translate(63.31 5.649)" fill="#4f5561"/>
              <rect id="Rectángulo_400987" data-name="Rectángulo 400987" width="1.45" height="8.176" transform="translate(70.136 5.649)" fill="#4f5561"/>
              <g id="Grupo_1098962" data-name="Grupo 1098962" transform="translate(26.787 17.51)" opacity="0.4">
                <g id="Grupo_1098961" data-name="Grupo 1098961">
                  <g id="Grupo_1098960" data-name="Grupo 1098960" clip-path="url(#clip-path-13)">
                    <g id="Grupo_1098953" data-name="Grupo 1098953" transform="translate(21.257)" opacity="0.53">
                      <g id="Grupo_1098952" data-name="Grupo 1098952">
                        <g id="Grupo_1098951-2" data-name="Grupo 1098951" clip-path="url(#clip-path-14)">
                          <path id="Trazado_873365" data-name="Trazado 873365" d="M387.844,160.143H377.465l8.473-22.57h10.379Z" transform="translate(-377.465 -137.573)" fill="#fafbfc"/>
                        </g>
                      </g>
                    </g>
                    <g id="Grupo_1098956" data-name="Grupo 1098956" transform="translate(34.694)" opacity="0.53">
                      <g id="Grupo_1098955" data-name="Grupo 1098955">
                        <g id="Grupo_1098954" data-name="Grupo 1098954" clip-path="url(#clip-path-15)">
                          <path id="Trazado_873366" data-name="Trazado 873366" d="M486.877,160.143h-3.841l8.473-22.57h3.841Z" transform="translate(-483.036 -137.573)" fill="#fafbfc"/>
                        </g>
                      </g>
                    </g>
                    <g id="Grupo_1098959" data-name="Grupo 1098959" opacity="0.53">
                      <g id="Grupo_1098958" data-name="Grupo 1098958">
                        <g id="Grupo_1098957" data-name="Grupo 1098957" clip-path="url(#clip-path-16)">
                          <path id="Trazado_873367" data-name="Trazado 873367" d="M212.773,160.143h-2.314l8.473-22.57h2.314Z" transform="translate(-210.459 -137.573)" fill="#fafbfc"/>
                        </g>
                      </g>
                    </g>
                  </g>
                </g>
              </g>
            </g>
          </g>
        </g>
      </g>
    </g>
    <g id="Grupo_1098970" data-name="Grupo 1098970" transform="translate(2 -10)">
      <rect id="Rectángulo_400996" data-name="Rectángulo 400996" width="150" height="40" rx="20" transform="translate(-4547 -10680)" fill="#00ffdf"/>
      <rect id="Rectángulo_400997" data-name="Rectángulo 400997" width="150" height="40" rx="20" transform="translate(-4547 -10620)" fill="#00ffdf"/>
      <g id="Grupo_1098967" data-name="Grupo 1098967" transform="translate(-5224 -11831)">
        <rect id="Rectángulo_400994" data-name="Rectángulo 400994" width="150" height="40" rx="20" transform="translate(430 1118)" fill="#00ffdf"/>
        <path id="Trazado_874158" data-name="Trazado 874158" d="M9.945-3.789A4.025,4.025,0,0,1,8.59-.9,4.76,4.76,0,0,1,5.367.156,4.28,4.28,0,0,1,1.926-1.316,6.038,6.038,0,0,1,.672-5.359v-.7A6.819,6.819,0,0,1,1.25-8.945,4.332,4.332,0,0,1,2.9-10.863a4.629,4.629,0,0,1,2.5-.668A4.637,4.637,0,0,1,8.57-10.477,4.326,4.326,0,0,1,9.961-7.516H7.617A2.376,2.376,0,0,0,7-9.113a2.271,2.271,0,0,0-1.605-.5,1.991,1.991,0,0,0-1.754.84,4.707,4.707,0,0,0-.6,2.605V-5.3a5.038,5.038,0,0,0,.559,2.7,1.954,1.954,0,0,0,1.762.852,2.314,2.314,0,0,0,1.621-.5A2.241,2.241,0,0,0,7.6-3.789ZM13.719,0H11.453V-12h2.266Zm4.242,0H15.7V-8.453h2.266Zm-2.4-10.641a1.112,1.112,0,0,1,.34-.836,1.277,1.277,0,0,1,.926-.328,1.28,1.28,0,0,1,.922.328,1.105,1.105,0,0,1,.344.836,1.108,1.108,0,0,1-.348.844,1.283,1.283,0,0,1-.918.328A1.283,1.283,0,0,1,15.91-9.8,1.108,1.108,0,0,1,15.563-10.641ZM23.711.156A4.15,4.15,0,0,1,20.684-.984a4.054,4.054,0,0,1-1.168-3.039v-.219a5.106,5.106,0,0,1,.492-2.277A3.612,3.612,0,0,1,21.4-8.066a3.914,3.914,0,0,1,2.059-.543,3.508,3.508,0,0,1,2.73,1.094,4.444,4.444,0,0,1,1,3.1v.922H21.8a2.1,2.1,0,0,0,.66,1.328,2,2,0,0,0,1.395.5A2.437,2.437,0,0,0,25.9-2.609l1.109,1.242A3.389,3.389,0,0,1,25.633-.246,4.511,4.511,0,0,1,23.711.156Zm-.258-6.945a1.411,1.411,0,0,0-1.09.455,2.357,2.357,0,0,0-.535,1.3h3.141v-.181a1.681,1.681,0,0,0-.406-1.165A1.456,1.456,0,0,0,23.453-6.789Zm7.094-1.664.07.977a2.951,2.951,0,0,1,2.43-1.133,2.453,2.453,0,0,1,2,.789,3.682,3.682,0,0,1,.672,2.359V0H33.461V-5.419a1.47,1.47,0,0,0-.312-1.045,1.4,1.4,0,0,0-1.039-.325,1.553,1.553,0,0,0-1.43.814V0H28.422V-8.453Zm9.586-2.078v2.078h1.445V-6.8H40.133v4.219a1.007,1.007,0,0,0,.18.672A.9.9,0,0,0,41-1.7a3.6,3.6,0,0,0,.664-.055V-.047a4.648,4.648,0,0,1-1.367.2,2.156,2.156,0,0,1-2.422-2.4V-6.8H36.641V-8.453h1.234v-2.078ZM46.727.156A4.15,4.15,0,0,1,43.7-.984a4.054,4.054,0,0,1-1.168-3.039v-.219a5.106,5.106,0,0,1,.492-2.277,3.612,3.612,0,0,1,1.395-1.547,3.914,3.914,0,0,1,2.059-.543,3.508,3.508,0,0,1,2.73,1.094,4.444,4.444,0,0,1,1,3.1v.922H44.82a2.1,2.1,0,0,0,.66,1.328,2,2,0,0,0,1.395.5,2.437,2.437,0,0,0,2.039-.945l1.109,1.242A3.389,3.389,0,0,1,48.648-.246,4.511,4.511,0,0,1,46.727.156Zm-.258-6.945a1.411,1.411,0,0,0-1.09.455,2.357,2.357,0,0,0-.535,1.3h3.141v-.181a1.681,1.681,0,0,0-.406-1.165A1.456,1.456,0,0,0,46.469-6.789Z" transform="translate(480 1144)" fill="#12263f"/>
      </g>
      <path id="Trazado_874160" data-name="Trazado 874160" d="M7.859-4.945h-4.5v3.063H8.641V0H1.016V-11.375H8.625v1.9H3.359v2.711h4.5Zm6.586,2.609a.727.727,0,0,0-.41-.652,4.659,4.659,0,0,0-1.316-.426Q9.7-4.047,9.7-5.977a2.323,2.323,0,0,1,.934-1.879,3.766,3.766,0,0,1,2.441-.754,4.053,4.053,0,0,1,2.574.758,2.388,2.388,0,0,1,.965,1.969H14.359a1.092,1.092,0,0,0-.312-.8A1.322,1.322,0,0,0,13.07-7a1.351,1.351,0,0,0-.883.258.814.814,0,0,0-.312.656.7.7,0,0,0,.355.605,3.657,3.657,0,0,0,1.2.4,9.8,9.8,0,0,1,1.422.379A2.336,2.336,0,0,1,16.641-2.43a2.2,2.2,0,0,1-.992,1.871,4.28,4.28,0,0,1-2.562.715A4.47,4.47,0,0,1,11.2-.223,3.166,3.166,0,0,1,9.906-1.262a2.414,2.414,0,0,1-.469-1.426h2.141a1.179,1.179,0,0,0,.445.922,1.766,1.766,0,0,0,1.109.32,1.635,1.635,0,0,0,.98-.246A.766.766,0,0,0,14.445-2.336Zm6.352-8.2v2.078h1.445V-6.8H20.8v4.219a1.007,1.007,0,0,0,.18.672.9.9,0,0,0,.688.2,3.6,3.6,0,0,0,.664-.055V-.047a4.648,4.648,0,0,1-1.367.2,2.156,2.156,0,0,1-2.422-2.4V-6.8H17.3V-8.453h1.234v-2.078Zm7.453,4.2a6.134,6.134,0,0,0-.812-.062,1.654,1.654,0,0,0-1.68.867V0H23.5V-8.453h2.133L25.7-7.445a2.092,2.092,0,0,1,1.883-1.164,2.366,2.366,0,0,1,.7.1ZM34,0a2.507,2.507,0,0,1-.227-.758,2.732,2.732,0,0,1-2.133.914,3,3,0,0,1-2.059-.719,2.312,2.312,0,0,1-.816-1.812,2.389,2.389,0,0,1,1-2.062,4.915,4.915,0,0,1,2.879-.727H33.68v-.484a1.393,1.393,0,0,0-.3-.937,1.183,1.183,0,0,0-.949-.352,1.345,1.345,0,0,0-.895.273.929.929,0,0,0-.324.75H28.953a2.268,2.268,0,0,1,.453-1.359,3,3,0,0,1,1.281-.98,4.669,4.669,0,0,1,1.859-.355,3.689,3.689,0,0,1,2.48.785,2.747,2.747,0,0,1,.918,2.207v3.664a4.041,4.041,0,0,0,.336,1.82V0ZM32.133-1.57a1.945,1.945,0,0,0,.922-.223,1.462,1.462,0,0,0,.625-.6V-3.844h-.844q-1.7,0-1.8,1.172l-.008.133a.9.9,0,0,0,.3.7A1.153,1.153,0,0,0,32.133-1.57Zm8.25-8.961v2.078h1.445V-6.8H40.383v4.219a1.007,1.007,0,0,0,.18.672.9.9,0,0,0,.688.2,3.6,3.6,0,0,0,.664-.055V-.047a4.648,4.648,0,0,1-1.367.2,2.156,2.156,0,0,1-2.422-2.4V-6.8H36.891V-8.453h1.234v-2.078ZM46.977.156A4.15,4.15,0,0,1,43.949-.984a4.054,4.054,0,0,1-1.168-3.039v-.219a5.106,5.106,0,0,1,.492-2.277,3.612,3.612,0,0,1,1.395-1.547,3.914,3.914,0,0,1,2.059-.543,3.508,3.508,0,0,1,2.73,1.094,4.444,4.444,0,0,1,1,3.1v.922H45.07a2.1,2.1,0,0,0,.66,1.328,2,2,0,0,0,1.395.5,2.437,2.437,0,0,0,2.039-.945l1.109,1.242A3.389,3.389,0,0,1,48.9-.246,4.511,4.511,0,0,1,46.977.156Zm-.258-6.945a1.411,1.411,0,0,0-1.09.455,2.357,2.357,0,0,0-.535,1.3h3.141v-.181a1.681,1.681,0,0,0-.406-1.165A1.456,1.456,0,0,0,46.719-6.789Zm4.688,2.5a4.954,4.954,0,0,1,.926-3.133,3,3,0,0,1,2.5-1.187,2.631,2.631,0,0,1,2.164.953l.094-.8h2.047V-.281a3.613,3.613,0,0,1-.5,1.93A3.236,3.236,0,0,1,57.211,2.9a4.985,4.985,0,0,1-2.141.43,4.635,4.635,0,0,1-1.812-.371A3.217,3.217,0,0,1,51.922,2l1-1.375a2.645,2.645,0,0,0,2.047.945,1.936,1.936,0,0,0,1.4-.48,1.8,1.8,0,0,0,.5-1.363V-.727a2.612,2.612,0,0,1-2.055.883,2.992,2.992,0,0,1-2.465-1.191,4.953,4.953,0,0,1-.941-3.16Zm2.258.161a3.1,3.1,0,0,0,.461,1.809,1.465,1.465,0,0,0,1.266.655,1.567,1.567,0,0,0,1.477-.777V-6.012a1.563,1.563,0,0,0-1.461-.777,1.474,1.474,0,0,0-1.277.667A3.5,3.5,0,0,0,53.664-4.128ZM63.25,0H60.984V-8.453H63.25Zm-2.4-10.641a1.112,1.112,0,0,1,.34-.836,1.277,1.277,0,0,1,.926-.328,1.28,1.28,0,0,1,.922.328,1.105,1.105,0,0,1,.344.836,1.108,1.108,0,0,1-.348.844,1.283,1.283,0,0,1-.918.328A1.283,1.283,0,0,1,61.2-9.8,1.108,1.108,0,0,1,60.852-10.641ZM70.008,0a2.507,2.507,0,0,1-.227-.758,2.732,2.732,0,0,1-2.133.914A3,3,0,0,1,65.59-.562a2.312,2.312,0,0,1-.816-1.812,2.389,2.389,0,0,1,1-2.062,4.915,4.915,0,0,1,2.879-.727h1.039v-.484a1.393,1.393,0,0,0-.3-.937,1.183,1.183,0,0,0-.949-.352,1.345,1.345,0,0,0-.895.273.929.929,0,0,0-.324.75H64.961a2.268,2.268,0,0,1,.453-1.359,3,3,0,0,1,1.281-.98,4.669,4.669,0,0,1,1.859-.355,3.689,3.689,0,0,1,2.48.785,2.747,2.747,0,0,1,.918,2.207v3.664a4.041,4.041,0,0,0,.336,1.82V0ZM68.141-1.57a1.945,1.945,0,0,0,.922-.223,1.462,1.462,0,0,0,.625-.6V-3.844h-.844q-1.7,0-1.8,1.172l-.008.133a.9.9,0,0,0,.3.7A1.153,1.153,0,0,0,68.141-1.57ZM83.063,0H80.8V-8.715l-2.7.832V-9.7l4.711-1.687h.242Z" transform="translate(-4515 -10654)" fill="#12263f"/>
      <path id="Trazado_874161" data-name="Trazado 874161" d="M7.859-4.945h-4.5v3.063H8.641V0H1.016V-11.375H8.625v1.9H3.359v2.711h4.5Zm6.586,2.609a.727.727,0,0,0-.41-.652,4.659,4.659,0,0,0-1.316-.426Q9.7-4.047,9.7-5.977a2.323,2.323,0,0,1,.934-1.879,3.766,3.766,0,0,1,2.441-.754,4.053,4.053,0,0,1,2.574.758,2.388,2.388,0,0,1,.965,1.969H14.359a1.092,1.092,0,0,0-.312-.8A1.322,1.322,0,0,0,13.07-7a1.351,1.351,0,0,0-.883.258.814.814,0,0,0-.312.656.7.7,0,0,0,.355.605,3.657,3.657,0,0,0,1.2.4,9.8,9.8,0,0,1,1.422.379A2.336,2.336,0,0,1,16.641-2.43a2.2,2.2,0,0,1-.992,1.871,4.28,4.28,0,0,1-2.562.715A4.47,4.47,0,0,1,11.2-.223,3.166,3.166,0,0,1,9.906-1.262a2.414,2.414,0,0,1-.469-1.426h2.141a1.179,1.179,0,0,0,.445.922,1.766,1.766,0,0,0,1.109.32,1.635,1.635,0,0,0,.98-.246A.766.766,0,0,0,14.445-2.336Zm6.352-8.2v2.078h1.445V-6.8H20.8v4.219a1.007,1.007,0,0,0,.18.672.9.9,0,0,0,.688.2,3.6,3.6,0,0,0,.664-.055V-.047a4.648,4.648,0,0,1-1.367.2,2.156,2.156,0,0,1-2.422-2.4V-6.8H17.3V-8.453h1.234v-2.078Zm7.453,4.2a6.134,6.134,0,0,0-.812-.062,1.654,1.654,0,0,0-1.68.867V0H23.5V-8.453h2.133L25.7-7.445a2.092,2.092,0,0,1,1.883-1.164,2.366,2.366,0,0,1,.7.1ZM34,0a2.507,2.507,0,0,1-.227-.758,2.732,2.732,0,0,1-2.133.914,3,3,0,0,1-2.059-.719,2.312,2.312,0,0,1-.816-1.812,2.389,2.389,0,0,1,1-2.062,4.915,4.915,0,0,1,2.879-.727H33.68v-.484a1.393,1.393,0,0,0-.3-.937,1.183,1.183,0,0,0-.949-.352,1.345,1.345,0,0,0-.895.273.929.929,0,0,0-.324.75H28.953a2.268,2.268,0,0,1,.453-1.359,3,3,0,0,1,1.281-.98,4.669,4.669,0,0,1,1.859-.355,3.689,3.689,0,0,1,2.48.785,2.747,2.747,0,0,1,.918,2.207v3.664a4.041,4.041,0,0,0,.336,1.82V0ZM32.133-1.57a1.945,1.945,0,0,0,.922-.223,1.462,1.462,0,0,0,.625-.6V-3.844h-.844q-1.7,0-1.8,1.172l-.008.133a.9.9,0,0,0,.3.7A1.153,1.153,0,0,0,32.133-1.57Zm8.25-8.961v2.078h1.445V-6.8H40.383v4.219a1.007,1.007,0,0,0,.18.672.9.9,0,0,0,.688.2,3.6,3.6,0,0,0,.664-.055V-.047a4.648,4.648,0,0,1-1.367.2,2.156,2.156,0,0,1-2.422-2.4V-6.8H36.891V-8.453h1.234v-2.078ZM46.977.156A4.15,4.15,0,0,1,43.949-.984a4.054,4.054,0,0,1-1.168-3.039v-.219a5.106,5.106,0,0,1,.492-2.277,3.612,3.612,0,0,1,1.395-1.547,3.914,3.914,0,0,1,2.059-.543,3.508,3.508,0,0,1,2.73,1.094,4.444,4.444,0,0,1,1,3.1v.922H45.07a2.1,2.1,0,0,0,.66,1.328,2,2,0,0,0,1.395.5,2.437,2.437,0,0,0,2.039-.945l1.109,1.242A3.389,3.389,0,0,1,48.9-.246,4.511,4.511,0,0,1,46.977.156Zm-.258-6.945a1.411,1.411,0,0,0-1.09.455,2.357,2.357,0,0,0-.535,1.3h3.141v-.181a1.681,1.681,0,0,0-.406-1.165A1.456,1.456,0,0,0,46.719-6.789Zm4.688,2.5a4.954,4.954,0,0,1,.926-3.133,3,3,0,0,1,2.5-1.187,2.631,2.631,0,0,1,2.164.953l.094-.8h2.047V-.281a3.613,3.613,0,0,1-.5,1.93A3.236,3.236,0,0,1,57.211,2.9a4.985,4.985,0,0,1-2.141.43,4.635,4.635,0,0,1-1.812-.371A3.217,3.217,0,0,1,51.922,2l1-1.375a2.645,2.645,0,0,0,2.047.945,1.936,1.936,0,0,0,1.4-.48,1.8,1.8,0,0,0,.5-1.363V-.727a2.612,2.612,0,0,1-2.055.883,2.992,2.992,0,0,1-2.465-1.191,4.953,4.953,0,0,1-.941-3.16Zm2.258.161a3.1,3.1,0,0,0,.461,1.809,1.465,1.465,0,0,0,1.266.655,1.567,1.567,0,0,0,1.477-.777V-6.012a1.563,1.563,0,0,0-1.461-.777,1.474,1.474,0,0,0-1.277.667A3.5,3.5,0,0,0,53.664-4.128ZM63.25,0H60.984V-8.453H63.25Zm-2.4-10.641a1.112,1.112,0,0,1,.34-.836,1.277,1.277,0,0,1,.926-.328,1.28,1.28,0,0,1,.922.328,1.105,1.105,0,0,1,.344.836,1.108,1.108,0,0,1-.348.844,1.283,1.283,0,0,1-.918.328A1.283,1.283,0,0,1,61.2-9.8,1.108,1.108,0,0,1,60.852-10.641ZM70.008,0a2.507,2.507,0,0,1-.227-.758,2.732,2.732,0,0,1-2.133.914A3,3,0,0,1,65.59-.562a2.312,2.312,0,0,1-.816-1.812,2.389,2.389,0,0,1,1-2.062,4.915,4.915,0,0,1,2.879-.727h1.039v-.484a1.393,1.393,0,0,0-.3-.937,1.183,1.183,0,0,0-.949-.352,1.345,1.345,0,0,0-.895.273.929.929,0,0,0-.324.75H64.961a2.268,2.268,0,0,1,.453-1.359,3,3,0,0,1,1.281-.98,4.669,4.669,0,0,1,1.859-.355,3.689,3.689,0,0,1,2.48.785,2.747,2.747,0,0,1,.918,2.207v3.664a4.041,4.041,0,0,0,.336,1.82V0ZM68.141-1.57a1.945,1.945,0,0,0,.922-.223,1.462,1.462,0,0,0,.625-.6V-3.844h-.844q-1.7,0-1.8,1.172l-.008.133a.9.9,0,0,0,.3.7A1.153,1.153,0,0,0,68.141-1.57ZM87.07,0H84.727L80.164-7.484V0H77.82V-11.375h2.344l4.57,7.5v-7.5H87.07Z" transform="translate(-4516 -10594)" fill="#12263f"/>
      <g id="Grupo_1098968" data-name="Grupo 1098968" transform="translate(-5224 -11835)">
        <rect id="Rectángulo_400995" data-name="Rectángulo 400995" width="150" height="60" rx="20" transform="translate(430 1205)" fill="#00ffdf"/>
        <path id="Trazado_874159" data-name="Trazado 874159" d="M-45.758-4.828l4.453,1.57V-1.07l-6.727-2.852V-5.766L-41.3-8.617V-6.43Zm8.141,0,4.453,1.57V-1.07l-6.727-2.852V-5.766l6.727-2.852V-6.43ZM-24.68,0h-2.344V-11.375h2.344Zm4.1-8.453.07.977a2.951,2.951,0,0,1,2.43-1.133,2.453,2.453,0,0,1,2,.789,3.682,3.682,0,0,1,.672,2.359V0h-2.258V-5.419a1.47,1.47,0,0,0-.312-1.045,1.4,1.4,0,0,0-1.039-.325,1.553,1.553,0,0,0-1.43.814V0H-22.7V-8.453Zm9.586-2.078v2.078h1.445V-6.8h-1.445v4.219a1.007,1.007,0,0,0,.18.672.9.9,0,0,0,.688.2,3.6,3.6,0,0,0,.664-.055V-.047a4.648,4.648,0,0,1-1.367.2,2.156,2.156,0,0,1-2.422-2.4V-6.8h-1.234V-8.453h1.234v-2.078ZM-4.4.156A4.15,4.15,0,0,1-7.426-.984,4.054,4.054,0,0,1-8.594-4.023v-.219A5.106,5.106,0,0,1-8.1-6.52,3.612,3.612,0,0,1-6.707-8.066a3.914,3.914,0,0,1,2.059-.543,3.508,3.508,0,0,1,2.73,1.094,4.444,4.444,0,0,1,1,3.1v.922H-6.3a2.1,2.1,0,0,0,.66,1.328,2,2,0,0,0,1.395.5,2.437,2.437,0,0,0,2.039-.945L-1.1-1.367A3.389,3.389,0,0,1-2.477-.246,4.511,4.511,0,0,1-4.4.156Zm-.258-6.945a1.411,1.411,0,0,0-1.09.455,2.357,2.357,0,0,0-.535,1.3h3.141v-.181a1.681,1.681,0,0,0-.406-1.165A1.456,1.456,0,0,0-4.656-6.789Zm9.766.453A6.134,6.134,0,0,0,4.3-6.4a1.654,1.654,0,0,0-1.68.867V0H.359V-8.453H2.492l.063,1.008A2.092,2.092,0,0,1,4.438-8.609a2.366,2.366,0,0,1,.7.1ZM6.969,0V-6.8H5.711V-8.453H6.969v-.719a2.918,2.918,0,0,1,.816-2.207,3.162,3.162,0,0,1,2.285-.785,5.321,5.321,0,0,1,1.148.155L11.2-10.273a2.878,2.878,0,0,0-.687-.07q-1.273,0-1.273,1.205v.685h1.68V-6.8H9.234V0ZM16.984,0a2.507,2.507,0,0,1-.227-.758,2.732,2.732,0,0,1-2.133.914,3,3,0,0,1-2.059-.719,2.312,2.312,0,0,1-.816-1.812,2.389,2.389,0,0,1,1-2.062,4.915,4.915,0,0,1,2.879-.727h1.039v-.484a1.393,1.393,0,0,0-.3-.937,1.183,1.183,0,0,0-.949-.352,1.345,1.345,0,0,0-.895.273.929.929,0,0,0-.324.75H11.938a2.268,2.268,0,0,1,.453-1.359,3,3,0,0,1,1.281-.98,4.669,4.669,0,0,1,1.859-.355,3.689,3.689,0,0,1,2.48.785,2.747,2.747,0,0,1,.918,2.207v3.664a4.041,4.041,0,0,0,.336,1.82V0ZM15.117-1.57a1.945,1.945,0,0,0,.922-.223,1.462,1.462,0,0,0,.625-.6V-3.844H15.82q-1.7,0-1.8,1.172l-.008.133a.9.9,0,0,0,.3.7A1.153,1.153,0,0,0,15.117-1.57Zm8.141-.25h4.133V0H20.375V-1.375l3.977-5.258H20.492v-1.82h6.773v1.33ZM37.4-4.852,32.859-6.437V-8.609l6.8,2.852v1.836l-6.8,2.859v-2.18Zm8.266,0L41.125-6.437V-8.609l6.8,2.852v1.836l-6.8,2.859v-2.18ZM-35.234,20h-2.344V8.625h2.344Zm9.016-4.945h-4.5v3.063h5.281V20h-7.625V8.625h7.609v1.9h-5.266v2.711h4.5Zm6.586,2.609a.727.727,0,0,0-.41-.652,4.659,4.659,0,0,0-1.316-.426q-3.016-.633-3.016-2.562a2.323,2.323,0,0,1,.934-1.879A3.766,3.766,0,0,1-21,11.391a4.053,4.053,0,0,1,2.574.758,2.388,2.388,0,0,1,.965,1.969h-2.258a1.092,1.092,0,0,0-.312-.8A1.322,1.322,0,0,0-21.008,13a1.351,1.351,0,0,0-.883.258.814.814,0,0,0-.312.656.7.7,0,0,0,.355.605,3.657,3.657,0,0,0,1.2.4,9.8,9.8,0,0,1,1.422.379,2.336,2.336,0,0,1,1.789,2.273,2.2,2.2,0,0,1-.992,1.871,4.28,4.28,0,0,1-2.562.715,4.47,4.47,0,0,1-1.887-.379,3.166,3.166,0,0,1-1.293-1.039,2.414,2.414,0,0,1-.469-1.426H-22.5a1.179,1.179,0,0,0,.445.922,1.766,1.766,0,0,0,1.109.32,1.635,1.635,0,0,0,.98-.246A.766.766,0,0,0-19.633,17.664Zm6.352-8.2v2.078h1.445V13.2h-1.445v4.219a1.007,1.007,0,0,0,.18.672.9.9,0,0,0,.688.2,3.6,3.6,0,0,0,.664-.055v1.711a4.648,4.648,0,0,1-1.367.2,2.156,2.156,0,0,1-2.422-2.4V13.2h-1.234V11.547h1.234V9.469Zm7.453,4.2a6.134,6.134,0,0,0-.812-.062,1.654,1.654,0,0,0-1.68.867V20h-2.258V11.547h2.133l.063,1.008A2.092,2.092,0,0,1-6.5,11.391a2.366,2.366,0,0,1,.7.1ZM-.078,20A2.507,2.507,0,0,1-.3,19.242a2.732,2.732,0,0,1-2.133.914A3,3,0,0,1-4.5,19.438a2.312,2.312,0,0,1-.816-1.812,2.389,2.389,0,0,1,1-2.062,4.915,4.915,0,0,1,2.879-.727H-.4v-.484a1.393,1.393,0,0,0-.3-.937,1.183,1.183,0,0,0-.949-.352,1.345,1.345,0,0,0-.895.273.929.929,0,0,0-.324.75H-5.125a2.268,2.268,0,0,1,.453-1.359,3,3,0,0,1,1.281-.98,4.669,4.669,0,0,1,1.859-.355,3.689,3.689,0,0,1,2.48.785,2.747,2.747,0,0,1,.918,2.207v3.664a4.041,4.041,0,0,0,.336,1.82V20Zm-1.867-1.57a1.945,1.945,0,0,0,.922-.223,1.462,1.462,0,0,0,.625-.6V16.156h-.844q-1.7,0-1.8,1.172l-.008.133a.9.9,0,0,0,.3.7A1.153,1.153,0,0,0-1.945,18.43ZM6.3,9.469v2.078H7.75V13.2H6.3v4.219a1.007,1.007,0,0,0,.18.672.9.9,0,0,0,.688.2,3.6,3.6,0,0,0,.664-.055v1.711a4.648,4.648,0,0,1-1.367.2,2.156,2.156,0,0,1-2.422-2.4V13.2H2.813V11.547H4.047V9.469ZM12.9,20.156a4.15,4.15,0,0,1-3.027-1.141A4.054,4.054,0,0,1,8.7,15.977v-.219A5.106,5.106,0,0,1,9.2,13.48a3.612,3.612,0,0,1,1.395-1.547,3.914,3.914,0,0,1,2.059-.543,3.508,3.508,0,0,1,2.73,1.094,4.444,4.444,0,0,1,1,3.1v.922H10.992a2.1,2.1,0,0,0,.66,1.328,2,2,0,0,0,1.395.5,2.437,2.437,0,0,0,2.039-.945L16.2,18.633a3.389,3.389,0,0,1-1.375,1.121A4.511,4.511,0,0,1,12.9,20.156Zm-.258-6.945a1.411,1.411,0,0,0-1.09.455,2.357,2.357,0,0,0-.535,1.3h3.141v-.181a1.681,1.681,0,0,0-.406-1.165A1.456,1.456,0,0,0,12.641,13.211Zm4.688,2.5a4.954,4.954,0,0,1,.926-3.133,3,3,0,0,1,2.5-1.187,2.631,2.631,0,0,1,2.164.953l.094-.8h2.047v8.172a3.613,3.613,0,0,1-.5,1.93,3.236,3.236,0,0,1-1.418,1.25,4.985,4.985,0,0,1-2.141.43,4.635,4.635,0,0,1-1.812-.371A3.217,3.217,0,0,1,17.844,22l1-1.375a2.645,2.645,0,0,0,2.047.945,1.936,1.936,0,0,0,1.4-.48,1.8,1.8,0,0,0,.5-1.363v-.453a2.612,2.612,0,0,1-2.055.883,2.992,2.992,0,0,1-2.465-1.191,4.953,4.953,0,0,1-.941-3.16Zm2.258.161a3.1,3.1,0,0,0,.461,1.809,1.465,1.465,0,0,0,1.266.655,1.567,1.567,0,0,0,1.477-.777V13.988a1.563,1.563,0,0,0-1.461-.777,1.474,1.474,0,0,0-1.277.667A3.5,3.5,0,0,0,19.586,15.872ZM29.172,20H26.906V11.547h2.266Zm-2.4-10.641a1.112,1.112,0,0,1,.34-.836,1.465,1.465,0,0,1,1.848,0,1.193,1.193,0,0,1,0,1.68,1.448,1.448,0,0,1-1.836,0A1.108,1.108,0,0,1,26.773,9.359ZM35.93,20a2.507,2.507,0,0,1-.227-.758,2.732,2.732,0,0,1-2.133.914,3,3,0,0,1-2.059-.719,2.312,2.312,0,0,1-.816-1.812,2.389,2.389,0,0,1,1-2.062,4.915,4.915,0,0,1,2.879-.727h1.039v-.484a1.393,1.393,0,0,0-.3-.937,1.183,1.183,0,0,0-.949-.352,1.345,1.345,0,0,0-.895.273.929.929,0,0,0-.324.75H30.883a2.268,2.268,0,0,1,.453-1.359,3,3,0,0,1,1.281-.98,4.669,4.669,0,0,1,1.859-.355,3.689,3.689,0,0,1,2.48.785,2.747,2.747,0,0,1,.918,2.207v3.664a4.041,4.041,0,0,0,.336,1.82V20Zm-1.867-1.57a1.945,1.945,0,0,0,.922-.223,1.462,1.462,0,0,0,.625-.6V16.156h-.844q-1.7,0-1.8,1.172l-.008.133a.9.9,0,0,0,.3.7A1.153,1.153,0,0,0,34.063,18.43Z" transform="translate(505 1231)" fill="#12263f"/>
      </g>
      <line id="Línea_563" data-name="Línea 563" y1="37" transform="translate(-4718.5 -10667.5)" fill="none" stroke="#0b47db" stroke-linecap="round" stroke-width="3"/>
      <line id="Línea_564" data-name="Línea 564" x1="67.346" transform="translate(-4638.5 -10599.5)" fill="none" stroke="#0b47db" stroke-linecap="round" stroke-width="3"/>
      <line id="Línea_565" data-name="Línea 565" x1="23.5" transform="translate(-4571.154 -10659.5)" fill="none" stroke="#0b47db" stroke-linecap="round" stroke-width="3"/>
      <line id="Línea_567" data-name="Línea 567" x1="23.5" transform="translate(-4571.154 -10599.5)" fill="none" stroke="#0b47db" stroke-linecap="round" stroke-width="3"/>
      <line id="Línea_566" data-name="Línea 566" y2="60" transform="translate(-4571.154 -10659.5)" fill="none" stroke="#0b47db" stroke-linecap="round" stroke-width="3"/>
      <path id="Polígono_5" data-name="Polígono 5" d="M8.5,0,17,15H0Z" transform="translate(-4727 -10673)" fill="#0b47db"/>
      <path id="Polígono_6" data-name="Polígono 6" d="M8.5,0,17,15H0Z" transform="translate(-4644 -10591) rotate(-90)" fill="#0b47db"/>
    </g>
  </g>
</svg>
