<svg xmlns="http://www.w3.org/2000/svg" xmlns:xlink="http://www.w3.org/1999/xlink" width="106.136" height="106.136" viewBox="0 0 106.136 106.136">
  <defs>
    <filter id="Elipse_9685" x="0" y="0" width="106.136" height="106.136" filterUnits="userSpaceOnUse">
      <feOffset dy="3" input="SourceAlpha"/>
      <feGaussianBlur stdDeviation="3" result="blur"/>
      <feFlood flood-opacity="0.161"/>
      <feComposite operator="in" in2="blur"/>
      <feComposite in="SourceGraphic"/>
    </filter>
  </defs>
  <g id="Grupo_1099271" data-name="Grupo 1099271" transform="translate(-737.932 -9747.46)">
    <circle id="Elipse_11310" data-name="Elipse 11310" cx="50" cy="50" r="50" transform="translate(741 9747.527)" fill="#fff"/>
    <g id="Grupo_1098210" data-name="Grupo 1098210" transform="translate(746.932 9753.46)">
      <g transform="matrix(1, 0, 0, 1, -9, -6)" filter="url(#Elipse_9685)">
        <g id="Elipse_9685-2" data-name="Elipse 9685" transform="translate(9 6)" fill="#f2e5fd" stroke="#a854f3" stroke-width="5">
          <circle cx="44.068" cy="44.068" r="44.068" stroke="none"/>
          <circle cx="44.068" cy="44.068" r="41.568" fill="none"/>
        </g>
      </g>
    </g>
    <path id="Trazado_874117" data-name="Trazado 874117" d="M73.468,0H44.819a5.492,5.492,0,0,0-5.486,5.486V41.328a5.492,5.492,0,0,0,5.486,5.486H73.468a5.492,5.492,0,0,0,5.486-5.486V5.486A5.492,5.492,0,0,0,73.468,0ZM42.99,10.85H75.3V35.964H42.99Zm1.829-7.193H73.468A1.831,1.831,0,0,1,75.3,5.486V7.193H42.99V5.486A1.831,1.831,0,0,1,44.819,3.657Zm28.649,39.5H44.819a1.831,1.831,0,0,1-1.829-1.829V39.621H75.3v1.707A1.831,1.831,0,0,1,73.468,43.157Zm-25.114-24.2a1.829,1.829,0,0,1,1.829-1.829H68.1a1.829,1.829,0,1,1,0,3.657H50.183A1.829,1.829,0,0,1,48.354,18.957Zm21.578,9.022A1.829,1.829,0,0,1,68.1,29.807H50.183a1.829,1.829,0,1,1,0-3.657H68.1A1.829,1.829,0,0,1,69.933,27.979Z" transform="translate(731.856 9774.121)" fill="#a854f3"/>
  </g>
</svg>
