<svg xmlns="http://www.w3.org/2000/svg" width="70" height="70" viewBox="0 0 70 70">
  <g id="Grupo_1098746" data-name="Grupo 1098746" transform="translate(-515 -526)">
    <circle id="Elipse_11440" data-name="Elipse 11440" cx="35" cy="35" r="35" transform="translate(515 526)" fill="#3a1d71"/>
    <g id="Grupo_1098768" data-name="Grupo 1098768" transform="translate(526.445 537.387)">
      <path id="Trazado_873049" data-name="Trazado 873049" d="M5.4,60.568a23.575,23.575,0,0,0,11.347,7.543H30.357a23.574,23.574,0,0,0,11.348-7.543L46.731,49.78A23.557,23.557,0,1,0,0,45.555,23.7,23.7,0,0,0,.378,49.78Zm0,0" transform="translate(0 -19.885)" fill="#fecd0a"/>
      <path id="Trazado_873050" data-name="Trazado 873050" d="M186.7,421.313h-11.34l-.208,4a10.112,10.112,0,0,1-.921,3.721,23.661,23.661,0,0,0,13.606,0,10.113,10.113,0,0,1-.925-3.718Zm0,0" transform="translate(-157.483 -380.807)" fill="#86fdfb"/>
      <path id="Trazado_873051" data-name="Trazado 873051" d="M186.7,421.313h-11.34l-.208,4a10.112,10.112,0,0,1-.921,3.721,23.661,23.661,0,0,0,13.606,0,10.113,10.113,0,0,1-.925-3.718Zm0,0" transform="translate(-157.483 -380.807)" fill="#86fdfb"/>
      <path id="Trazado_873052" data-name="Trazado 873052" d="M184.957,425.1h8.007a2.355,2.355,0,0,1,1.957,1.045c-.038-.275-.065-.551-.079-.83l-.213-4h-11.34l-.208,4q-.022.416-.078.827a2.354,2.354,0,0,1,1.953-1.038Zm0,0" transform="translate(-165.409 -380.806)" fill="#11dfef"/>
      <path id="Trazado_873053" data-name="Trazado 873053" d="M48.544,70.488H5.683a1.751,1.751,0,0,0-1.746,1.746V93.607a23.392,23.392,0,0,0,1.824,5.729L27.113,99.2l21.353.137a23.376,23.376,0,0,0,1.824-5.729V72.234a1.751,1.751,0,0,0-1.746-1.746Zm0,0" transform="translate(-3.559 -63.711)" fill="#2b3894"/>
      <path id="Trazado_873054" data-name="Trazado 873054" d="M16.753,71.073a1.141,1.141,0,0,1,.164-.589H5.683a1.751,1.751,0,0,0-1.746,1.746V93.6a23.376,23.376,0,0,0,1.824,5.729l10.993-.07Zm0,0" transform="translate(-3.559 -63.708)" fill="#232e7a"/>
      <path id="Trazado_873055" data-name="Trazado 873055" d="M25,373.217H61.3a23.549,23.549,0,0,0,3.32-5.312H21.679A23.549,23.549,0,0,0,25,373.217Zm0,0" transform="translate(-19.595 -332.534)" fill="#e6f7fe"/>
      <g id="Grupo_1098767" data-name="Grupo 1098767" transform="translate(2.084 9.167)">
        <path id="Trazado_873056" data-name="Trazado 873056" d="M32.79,371.316v-3.41H21.679A23.563,23.563,0,0,0,25,373.218h9.18a2,2,0,0,1-1.389-1.9Zm0,0" transform="translate(-21.679 -341.702)" fill="#d5f1fe"/>
        <path id="Trazado_873057" data-name="Trazado 873057" d="M234.961,384.293a1.2,1.2,0,1,1-1.2-1.2A1.195,1.195,0,0,1,234.961,384.293Zm0,0" transform="translate(-212.295 -355.432)" fill="#d5f1fe"/>
        <path id="Trazado_873058" data-name="Trazado 873058" d="M70.162,95.347H29.012a.214.214,0,0,0-.211.211v23.463a.136.136,0,0,0,.136.136h41.3a.136.136,0,0,0,.136-.136V95.558a.214.214,0,0,0-.211-.211Zm0,0" transform="translate(-28.116 -95.347)" fill="#d5f1fe"/>
      </g>
      <path id="Trazado_873059" data-name="Trazado 873059" d="M33.391,119.022V95.559a.214.214,0,0,1,.211-.211h-4.59a.214.214,0,0,0-.211.211v23.463a.136.136,0,0,0,.136.136h4.59A.136.136,0,0,1,33.391,119.022Zm0,0" transform="translate(-26.032 -86.181)" fill="#0ac6e5"/>
      <path id="Trazado_873060" data-name="Trazado 873060" d="M99.292,54.379H70.086V82.128h33.863V58.647a4.681,4.681,0,0,1-4.657-4.268Zm0,0" transform="translate(-63.348 -49.151)" fill="#e6f7fe"/>
      <path id="Trazado_873061" data-name="Trazado 873061" d="M70.086,54.379h6.457V82.128H70.086Zm0,0" transform="translate(-63.348 -49.151)" fill="#d5f1fe"/>
      <path id="Trazado_873062" data-name="Trazado 873062" d="M99.274,10.791a4.68,4.68,0,0,1,2.595-4.185H70.893a.807.807,0,0,0-.807.807V11.3H99.3a4.673,4.673,0,0,1-.027-.5Zm0,0" transform="translate(-63.348 -5.97)" fill="#615df9"/>
      <path id="Trazado_873063" data-name="Trazado 873063" d="M76.543,7.759A1.157,1.157,0,0,1,77.7,6.605h-6.8a.807.807,0,0,0-.807.807V11.3h6.457Zm0,0" transform="translate(-63.348 -5.97)" fill="#3342ae"/>
      <path id="Trazado_873064" data-name="Trazado 873064" d="M127.976,22.384a.966.966,0,1,1,1.136-.758A.967.967,0,0,1,127.976,22.384Zm0,0" transform="translate(-114.97 -18.503)" fill="#fecd0a"/>
      <path id="Trazado_873065" data-name="Trazado 873065" d="M97.521,22.407a.966.966,0,1,1,.966-.966A.968.968,0,0,1,97.521,22.407Zm0,0" transform="translate(-87.272 -18.506)" fill="#f948b4"/>
      <path id="Trazado_873066" data-name="Trazado 873066" d="M158.81,22.407a.966.966,0,1,1,.966-.966.968.968,0,0,1-.966.966Zm0,0" transform="translate(-142.669 -18.506)" fill="#39df74"/>
      <path id="Trazado_873067" data-name="Trazado 873067" d="M337.267,24.906h-3.73a.725.725,0,0,1,0-1.449h3.73a.725.725,0,0,1,0,1.449Zm0,0" transform="translate(-300.815 -21.202)" fill="#aeaeff"/>
      <path id="Trazado_873068" data-name="Trazado 873068" d="M210.02,24.906h-9.112a.725.725,0,0,1,0-1.449h9.112a.725.725,0,0,1,0,1.449Zm0,0" transform="translate(-180.937 -21.202)" fill="#aeaeff"/>
      <path id="Trazado_873069" data-name="Trazado 873069" d="M207.423,24.181a.724.724,0,0,1,.724-.724h-7.24a.725.725,0,0,0,0,1.449h7.24A.724.724,0,0,1,207.423,24.181Zm0,0" transform="translate(-180.937 -21.202)" fill="#8181fc"/>
      <path id="Trazado_873070" data-name="Trazado 873070" d="M122.395,94.188h-1.913a.725.725,0,0,1,0-1.449h1.913a.725.725,0,0,1,0,1.449Zm0,0" transform="translate(-108.244 -83.823)" fill="#4fbbff"/>
      <path id="Trazado_873071" data-name="Trazado 873071" d="M122.395,129.512h-1.913a.725.725,0,0,1,0-1.449h1.913a.725.725,0,0,1,0,1.449Zm0,0" transform="translate(-108.244 -115.75)" fill="#11dfef"/>
      <path id="Trazado_873072" data-name="Trazado 873072" d="M122.395,164.84h-1.913a.724.724,0,0,1,0-1.449h1.913a.724.724,0,0,1,0,1.449Zm0,0" transform="translate(-108.244 -147.682)" fill="#4fbbff"/>
      <path id="Trazado_873073" data-name="Trazado 873073" d="M122.395,200.164h-1.913a.724.724,0,1,1,0-1.449h1.913a.724.724,0,1,1,0,1.449Zm0,0" transform="translate(-108.244 -179.61)" fill="#fecd0a"/>
      <path id="Trazado_873074" data-name="Trazado 873074" d="M122.395,235.488h-1.913a.725.725,0,0,1,0-1.449h1.913a.725.725,0,0,1,0,1.449Zm0,0" transform="translate(-108.244 -211.538)" fill="#11dfef"/>
      <path id="Trazado_873075" data-name="Trazado 873075" d="M122.395,270.813h-1.913a.725.725,0,0,1,0-1.449h1.913a.725.725,0,0,1,0,1.449Zm0,0" transform="translate(-108.244 -243.466)" fill="#fecd0a"/>
      <path id="Trazado_873076" data-name="Trazado 873076" d="M122.395,306.141h-1.913a.724.724,0,1,1,0-1.449h1.913a.724.724,0,1,1,0,1.449Zm0,0" transform="translate(-108.244 -275.398)" fill="#11dfef"/>
      <path id="Trazado_873077" data-name="Trazado 873077" d="M185.244,94.188h-4.93a.725.725,0,0,1,0-1.449h4.93a.725.725,0,1,1,0,1.449Zm0,0" transform="translate(-162.323 -83.823)" fill="#11dfef"/>
      <path id="Trazado_873078" data-name="Trazado 873078" d="M182.307,129.512h-1.992a.725.725,0,0,1,0-1.449h1.992a.725.725,0,0,1,0,1.449Zm0,0" transform="translate(-162.324 -115.75)" fill="#fecd0a"/>
      <path id="Trazado_873079" data-name="Trazado 873079" d="M185.432,164.84h-5.118a.724.724,0,0,1,0-1.449h5.118a.724.724,0,0,1,0,1.449Zm0,0" transform="translate(-162.323 -147.682)" fill="#11dfef"/>
      <path id="Trazado_873080" data-name="Trazado 873080" d="M211.223,200.164h-2.374a.724.724,0,1,1,0-1.449h2.374a.724.724,0,1,1,0,1.449Zm0,0" transform="translate(-188.115 -179.61)" fill="#4fbbff"/>
      <path id="Trazado_873081" data-name="Trazado 873081" d="M217.056,235.488H215.3a.725.725,0,0,1,0-1.449h1.754a.725.725,0,0,1,0,1.449Zm0,0" transform="translate(-193.948 -211.538)" fill="#11dfef"/>
      <path id="Trazado_873082" data-name="Trazado 873082" d="M185.432,270.813h-5.118a.725.725,0,0,1,0-1.449h5.118a.725.725,0,0,1,0,1.449Zm0,0" transform="translate(-162.323 -243.466)" fill="#4fbbff"/>
      <path id="Trazado_873083" data-name="Trazado 873083" d="M185.432,306.141h-5.118a.724.724,0,1,1,0-1.449h5.118a.724.724,0,1,1,0,1.449Zm0,0" transform="translate(-162.323 -275.398)" fill="#fecd0a"/>
      <path id="Trazado_873084" data-name="Trazado 873084" d="M274.608,200.164h-2.7a.724.724,0,0,1,0-1.449h2.7a.724.724,0,1,1,0,1.449Zm0,0" transform="translate(-245.115 -179.61)" fill="#fecd0a"/>
      <path id="Trazado_873085" data-name="Trazado 873085" d="M280.1,235.488h-8.183a.725.725,0,0,1,0-1.449H280.1a.725.725,0,0,1,0,1.449Zm0,0" transform="translate(-245.115 -211.538)" fill="#11dfef"/>
      <path id="Trazado_873086" data-name="Trazado 873086" d="M277.707,270.813h-5.8a.725.725,0,0,1,0-1.449h5.8a.725.725,0,0,1,0,1.449Zm0,0" transform="translate(-245.115 -243.466)" fill="#11dfef"/>
      <path id="Trazado_873087" data-name="Trazado 873087" d="M381.8,4.82A4.82,4.82,0,1,1,376.981,0,4.82,4.82,0,0,1,381.8,4.82Zm0,0" transform="translate(-336.38)" fill="#00c82f"/>
      <path id="Trazado_873088" data-name="Trazado 873088" d="M379.9,10.284c-3.038,0-3.406-2.067-3.4-3.123a1.424,1.424,0,0,0-.376-.988c-1.617-1.728-.436-4.348-.425-4.372a4.82,4.82,0,1,0,4.2,8.483Zm0,0" transform="translate(-336.383 -1.628)" fill="#02ad22"/>
      <path id="Trazado_873089" data-name="Trazado 873089" d="M394.792,34.694l-1.415-1.415a.966.966,0,0,1,1.366-1.366l.732.732,1.7-1.7a.966.966,0,1,1,1.366,1.366l-2.38,2.38a.965.965,0,0,1-1.366,0Zm0,0" transform="translate(-355.301 -27.717)" fill="#e6f7fe"/>
    </g>
  </g>
</svg>
