<svg id="Grupo_1099258" data-name="Grupo 1099258" xmlns="http://www.w3.org/2000/svg" xmlns:xlink="http://www.w3.org/1999/xlink" width="295" height="270.331" viewBox="0 0 295 270.331">
  <defs>
    <clipPath id="clip-path">
      <rect id="Rectángulo_401065" data-name="Rectángulo 401065" width="295" height="270.331" fill="none"/>
    </clipPath>
  </defs>
  <g id="Grupo_1099250" data-name="Grupo 1099250" clip-path="url(#clip-path)">
    <path id="Trazado_873981" data-name="Trazado 873981" d="M458.68,9.168C460.053,5.9,461.473,2.34,464.232,0c-1,3.23-3.323,5.837-4.522,8.99-.258.047-.771.135-1.03.178" transform="translate(-264.276)" fill="#fcab3e"/>
    <path id="Trazado_873982" data-name="Trazado 873982" d="M194.48,1.36c3.314,2.382,5.446,6.184,7.179,9.816-.169.081-.512.246-.682.331-1.746-3.658-4.628-6.591-6.5-10.147" transform="translate(-112.053 -0.784)" fill="#fcab3e"/>
    <path id="Trazado_873983" data-name="Trazado 873983" d="M121.873,4.821c1.009-1.653,3.734-1.758,4.56.119a19.811,19.811,0,0,1,1.551,11.431c17.144-7.133,35.263,4.37,52.818.369,1.92-.805,4.738.085,4.582,2.522a22.847,22.847,0,0,1-7.108,13.058c11.744.373,21.035,9.35,32.661,10.507,2.034.2,5.684.046,5.378,3.047-2.374,4.7-6.764,8.066-10.909,11.16a49.424,49.424,0,0,0,12.147,13.173c2.2,2.564-1.03,4.921-3.366,5.565a39.913,39.913,0,0,1-8.227,2.424c.026,8.316-2.941,16.335-7.412,23.256,3.573,2.819,6.408,6.824,6.862,11.452,1.318,8.447-5.323,17.11-13.927,17.686a17.163,17.163,0,0,1-7.231,11.846c4.247,2.564,5.865,7.519,6.209,12.2,1.755,2.369,3.624,4.777,3.887,7.862,7.179,1.9,14.258,6.243,17.084,13.423,8.261,21.009,16.25,42.133,24.375,63.193,2.764,6.955,4.811,15.406.573,22.222-1.611,2.891-4.166,5.018-6.629,7.15,21.752.275,43.57.08,65.249,1.924-18.454,2.22-37.161,1.6-55.734,1.932-38.993.076-77.981-.017-116.973.013-34.615-.11-69.233.335-103.839-.5-6.146-.4-12.423-.115-18.454-1.492,21.556-1.8,43.222-1.526,64.834-1.936-4.187-3.094-7.917-7.307-8.807-12.605-1.259-6.781,1.466-13.346,3.767-19.581,6.93-20.14,14.36-40.116,21.365-60.231,2.416-6.9,8.825-11.261,15.445-13.609.063-2.98,2-5.226,3.386-7.65.258-4.6,1.869-9.316,5.773-12.088A17.613,17.613,0,0,1,98.1,130.433a15.894,15.894,0,0,1-13.69-10.994c-1.861-5.8.038-12.173,3.988-16.649-4.065-4.213-6.086-9.9-6.815-15.614a23.391,23.391,0,0,1-6.328-4.187c-7.048-7.045-6.132-17.857-5.217-26.939.466-2.441,3.471-1.712,4.641-.237,3.594,3.412,8.939,3.666,13.359,1.856C82.986,44.433,89.725,28.653,101.36,21.2c7.485-4.543,15.084-9.362,20.514-16.381" transform="translate(0 -2.049)" fill="#30121a"/>
    <path id="Trazado_873984" data-name="Trazado 873984" d="M244.413,19.481c.22-1.035,1.195-1.543,1.979-2.111,1.483,7.612-4.505,13.618-5.4,20.853.216-.114.64-.344.857-.458,4.819-3.141,9.794-6.383,15.6-7.324,13.707-1.929,27.621,2.454,41.307-.5-2.327-.11-4.658-.225-6.972-.462a91.3,91.3,0,0,0,11.685-.555c-5.349,8.574-16.538,11.1-26,11.63,5.294,2.539,11.215,2.9,16.907,3.878-.992.928-2.768,2.123-1.789,3.675,3.141.886,6.455-.725,9.664.093,9.642,1.878,18.733,7.222,28.821,6.46a14.973,14.973,0,0,1,2.789.14c-9.558,9.591-24.455,12.838-37.4,9.286,1.347,1.081,2.776,2.056,4.128,3.133-11.511,1.987-23.087-2.768-32.648-8.867-5.15-3.166-9.85-7.426-15.987-8.528,3.047-2.535,7.866-2.009,10.477-4.789-9.049-2.272-20.2,2.2-21.95,12.13-2.187,4.111-6.294,9.6-11.622,7.667-2.06-.835-5.688-4.98-6.052-.534.055.873.195,1.742.322,2.611-2.5-1.229-5.251-1.847-7.756-3.03-2.136-2.3-2-5.781-1.839-8.714a2.018,2.018,0,0,0,4.026-.131c1.568-6.972,4.976-13.665,10.583-18.242,5.921-5.175,13.245-9.731,16.271-17.314" transform="translate(-122.985 -10.008)" fill="#66453a"/>
    <path id="Trazado_873985" data-name="Trazado 873985" d="M244.52,22.351c-3.027,7.582-10.35,12.139-16.271,17.314-5.607,4.577-9.014,11.269-10.583,18.242a2.018,2.018,0,0,1-4.026.131,28.422,28.422,0,0,1,10.142-20.31c6.883-5.167,14.826-8.964,20.739-15.377" transform="translate(-123.092 -12.878)" fill="#c18d6c"/>
    <path id="Trazado_873986" data-name="Trazado 873986" d="M182.63,25.29c2.411,1.81,3.17,5.154,3.81,7.968-2.025-2.119-2.61-5.319-3.81-7.968" transform="translate(-105.225 -14.571)" fill="#fcab3e"/>
    <path id="Trazado_873987" data-name="Trazado 873987" d="M468.38,34.794a12.146,12.146,0,0,1,6.171-7.493,91.03,91.03,0,0,1-6.171,7.493" transform="translate(-269.865 -15.73)" fill="#fcab3e"/>
    <path id="Trazado_873988" data-name="Trazado 873988" d="M298.473,37.9c10.752-.746,21.251,2.56,31.919,3.348,2.314.237,4.645.352,6.972.462-13.686,2.95-27.6-1.433-41.307.5-5.8.94-10.779,4.183-15.6,7.323,4.158-6.023,10.549-10.9,18.013-11.63" transform="translate(-161.592 -21.776)" fill="#f3a373"/>
    <path id="Trazado_873989" data-name="Trazado 873989" d="M130.2,64.057c8.654-.123,17.322,0,25.976-.009,2.429-.174,2.543,3.92.072,3.781-8.714.123-17.44,0-26.154.059-2.586.089-2.488-4.06.106-3.831" transform="translate(-73.865 -36.876)" fill="#fcab3e"/>
    <path id="Trazado_873990" data-name="Trazado 873990" d="M468.374,64.029c11.083-.042,22.175.047,33.254,0,2.564-.017,2.068,4.073-.344,3.8-11.223.055-22.467.135-33.686-.026-2.713-.335-1.907-4.416.776-3.781" transform="translate(-268.448 -36.853)" fill="#fcab3e"/>
    <path id="Trazado_873991" data-name="Trazado 873991" d="M242.6,77.994c.449-1.8,3.84-3.336,3.806-.555-1.572,2.869-2.517,6.2-4.764,8.633-3.234-1.882-.106-5.709.958-8.078" transform="translate(-138.403 -43.74)" fill="#c18d6c"/>
    <path id="Trazado_873992" data-name="Trazado 873992" d="M401.56,80.734c13.423-2.407,24.12,7.773,36.7,10.227-10.088.763-19.178-4.582-28.821-6.459-3.208-.818-6.523.793-9.664-.093-.979-1.551.8-2.747,1.789-3.675" transform="translate(-230.171 -46.306)" fill="#f3a373"/>
    <path id="Trazado_873993" data-name="Trazado 873993" d="M293.313,93.75l.306.085c6.137,1.1,10.837,5.362,15.987,8.528,9.562,6.1,21.137,10.854,32.648,8.867a65.345,65.345,0,0,0,12.7,4.031c-6.82,5.239-16.081,6.455-24.439,5.692a79.548,79.548,0,0,1-39.637-15.533c-2.081-1.53-3.768.915-5.107,2.221a17.757,17.757,0,0,1,7.544-13.889" transform="translate(-164.651 -54.016)" fill="#4f312b"/>
    <path id="Trazado_873994" data-name="Trazado 873994" d="M205.946,118.937c5.327,1.933,9.435-3.556,11.622-7.667-.246,6.023,1.115,11.956.966,17.962-5.073.03-9.914-1.7-14.856-2.611.365,4.06.522,8.155,1.242,12.168-.234-.178-.466-.352-.7-.525,1.844,6.671-4.751,10.582-6.429,16.364-2.136,3.23-.437,7.053-1.242,10.575-6-2.373-10.019-8.345-10.668-14.665a12.7,12.7,0,0,0,8.985-8.96c-4.467,3.111-11.21,3.62-15.017-.81a27.778,27.778,0,0,1-6.141-18.458c.373.306.75.619,1.115.941,4.527,4.806,12.092,6.073,18.11,3.649,2.157-1,.186-3.365-1.5-3.408,4.243-1.962,8.561.717,12.7,1.594-1.153-2.128-2.407-4.2-3.357-6.434-.3-.085-.593-.169-.886-.25.364-4.446,3.992-.3,6.052.534" transform="translate(-100.072 -64.11)" fill="#4f312b"/>
    <path id="Trazado_873995" data-name="Trazado 873995" d="M463.67,143.683c2.229-2.552,1.615-7.142,5.018-8.472a90.262,90.262,0,0,0,10.6,11.969c-5.438,1.2-10.643-1.691-15.614-3.5" transform="translate(-267.151 -77.904)" fill="#4f312b"/>
    <path id="Trazado_873996" data-name="Trazado 873996" d="M176.38,139.541c5.243,2.589,11.2,1.907,16.606.241,1.691.043,3.661,2.4,1.5,3.408-6.019,2.424-13.584,1.157-18.11-3.649" transform="translate(-101.624 -80.399)" fill="#f3a373"/>
    <path id="Trazado_873997" data-name="Trazado 873997" d="M290.108,152.639c-.559-3.382,1.2-6.743,3.564-8.99,13.529,7.332,28.27,12.7,43.63,14.453,6.132.814,13.253,1.157,17.4,6.468a29.126,29.126,0,0,0-2.081-7.523,33.975,33.975,0,0,1,3.26-1.119c.411,17.946-.789,35.891-1.247,53.831.144,5.357-3.971,9.507-8.311,11.986-7.786,4.569-15.966,8.879-24.837,10.82,9.413-4.34,18.925-9.1,26.367-16.462,2.87-2.9,3.662-7.065,3.742-11,.39-12.829,1.018-25.655,1.28-38.488-20.849,1.14-41.04-6.646-57.955-18.369-1.611,1.453-3.188,2.95-4.811,4.391" transform="translate(-167.091 -82.766)" fill="#c18d6c"/>
    <path id="Trazado_873998" data-name="Trazado 873998" d="M262.467,158.891c1.623-1.441,3.2-2.938,4.811-4.391,16.915,11.723,37.106,19.509,57.955,18.369-.263,12.834-.891,25.659-1.28,38.488-.08,3.933-.873,8.1-3.742,11-7.442,7.362-16.953,12.122-26.367,16.462-7.247,2.708-15.453,1.8-22.48-1.089-5.179-3.42-11.155-5.518-16.173-9.244-4.171-3.056-10.1-5.658-10.562-11.537-1.013-12.342-1.669-24.722-2.6-37.073,2.526-5.379,7.481-10.261,5.587-16.724,4.518-3.229,10.163-.1,15.211-.5q-.128-1.233-.242-2.467c-.029-.322-.089-.966-.118-1.288" transform="translate(-139.449 -89.018)" fill="#fed2a9"/>
    <path id="Trazado_873999" data-name="Trazado 873999" d="M253.84,159.731c5.175,1.187,10.3,2.611,15.55,3.463q.115,1.233.242,2.467c-5.048.406-10.694-2.725-15.211.5-.306-2.132-.445-4.285-.581-6.434" transform="translate(-146.254 -92.032)" fill="#c18d6c"/>
    <path id="Trazado_874000" data-name="Trazado 874000" d="M54.5,198.281c3.543-11.63,9.926-22.565,17.517-32.05.148,2.09-1.818,3.5-2.738,5.2-6.112,8.265-9.9,17.979-14.779,26.85" transform="translate(-31.401 -95.777)" fill="#fcab3e"/>
    <path id="Trazado_874001" data-name="Trazado 874001" d="M606.31,170.16c2.034,1.161,3.073,3.361,4.446,5.158,5.086,7.676,9.8,15.788,12.681,24.557-1.848-1.152-2.115-3.539-3.1-5.319-3.619-8.719-9.184-16.4-14.024-24.4" transform="translate(-349.336 -98.041)" fill="#fcab3e"/>
    <path id="Trazado_874002" data-name="Trazado 874002" d="M72.609,207.89c4.4-12.126,10.447-24.243,19.475-33.529a8.67,8.67,0,0,1-1.525,2.827c-7.265,9.15-12.69,19.627-17,30.452-.233.064-.707.187-.945.25" transform="translate(-41.835 -100.461)" fill="#fcab3e"/>
    <path id="Trazado_874003" data-name="Trazado 874003" d="M456.438,176.364a39.92,39.92,0,0,0,8.227-2.424,114.239,114.239,0,0,1,43.2,66.478c8.053,33.3.06,70.25-21.577,96.867-8.125-21.06-16.114-42.184-24.375-63.193-2.827-7.179-9.9-11.524-17.084-13.423-.263-3.086-2.132-5.493-3.887-7.862-.344-4.683-1.962-9.638-6.21-12.2a17.162,17.162,0,0,0,7.231-11.846c8.6-.576,15.245-9.24,13.927-17.686-.453-4.629-3.289-8.633-6.861-11.452,4.471-6.921,7.438-14.94,7.412-23.256" transform="translate(-250.477 -100.219)" fill="#fcab3e"/>
    <path id="Trazado_874004" data-name="Trazado 874004" d="M583.109,175.041c2.17,1.013,3.213,3.314,4.7,5.061,5.79,8.408,11.511,17.334,14.245,27.227-5.217-9.74-9.731-20.2-16.813-28.922a11.731,11.731,0,0,1-2.132-3.365" transform="translate(-335.968 -100.853)" fill="#fcab3e"/>
    <path id="Trazado_874005" data-name="Trazado 874005" d="M89.587,288.265c-3.819-35.755,9.982-73.361,36.929-97.3a23.364,23.364,0,0,0,6.328,4.187c.729,5.718,2.75,11.4,6.815,15.614-3.95,4.476-5.849,10.846-3.988,16.648a15.9,15.9,0,0,0,13.69,10.994,17.615,17.615,0,0,0,7.659,12.236c-3.9,2.772-5.514,7.485-5.773,12.088-1.39,2.424-3.323,4.67-3.386,7.65-6.62,2.348-13.029,6.714-15.444,13.609-7.006,20.115-14.436,40.091-21.365,60.231-11.291-16.682-19.471-35.788-21.463-55.963" transform="translate(-51.256 -110.031)" fill="#fcab3e"/>
    <path id="Trazado_874006" data-name="Trazado 874006" d="M253.4,218.676c2.844-8.426,14.169-10.571,21.687-7.739,2.971.754,2.475,5.789-.835,5.022-7.044-1.823-14.3.021-20.853,2.717" transform="translate(-146 -120.855)" fill="#30121a"/>
    <path id="Trazado_874007" data-name="Trazado 874007" d="M376.386,211.026c7.574-3.069,18.848-.679,21.9,7.65-6.54-2.6-13.754-4.539-20.764-2.734-3.1.733-4.073-4.081-1.14-4.916" transform="translate(-215.847 -120.847)" fill="#30121a"/>
    <path id="Trazado_874008" data-name="Trazado 874008" d="M238.757,214.37c.928,12.351,1.585,24.731,2.6,37.073.458,5.879,6.391,8.481,10.562,11.537,5.019,3.725,10.994,5.824,16.173,9.244-7.875-2.3-15.177-6.277-22.247-10.375-3.751-2.073-7.21-5.514-7.464-10.028-.915-10.6-1.152-21.251-1.971-31.86-.4-2.208,1.314-3.861,2.348-5.59" transform="translate(-136.177 -123.513)" fill="#fefefe"/>
    <path id="Trazado_874009" data-name="Trazado 874009" d="M457.6,243.137c.737-.733,1.462-1.479,2.191-2.216,4.616,3.1,7.091,9.341,4.811,14.6-1.28-4.577-1.8-10.443-7-12.384" transform="translate(-263.654 -138.811)" fill="#fefefe"/>
    <path id="Trazado_874010" data-name="Trazado 874010" d="M210.306,242.771a37.623,37.623,0,0,0,4.56,2.216c-3.331,2.654-4.522,7.829-3.471,11.813a22.113,22.113,0,0,0,2.42,3.259,29.976,29.976,0,0,1,.441,3.59c-8.722-2.416-10.655-15.207-3.95-20.878" transform="translate(-118.856 -139.877)" fill="#fefefe"/>
    <path id="Trazado_874011" data-name="Trazado 874011" d="M272.4,244.92c10.3-1.064,10.871,17.211,1.077,17.928-9.184-.356-10.019-16.373-1.077-17.928" transform="translate(-153.328 -141.089)" fill="#30121a"/>
    <path id="Trazado_874012" data-name="Trazado 874012" d="M389.6,244.931c7.154-.954,10.515,8.6,7.15,13.931-1.56,3.17-5.676,5-8.9,3.145-6.413-3.564-5.739-15.3,1.75-17.076" transform="translate(-220.944 -141.083)" fill="#30121a"/>
    <path id="Trazado_874013" data-name="Trazado 874013" d="M451.663,260.849c1.038-4.785-1.772-11.27,2.446-14.7,5.205,1.941,5.722,7.807,7,12.384l.085.233a11.93,11.93,0,0,1-9.642,7.591c-.008-.873-.012-1.738-.012-2.606,3.793-1.441,7.434-5.163,6.133-9.545-1.03,2.908-2.539,6.2-6.01,6.641" transform="translate(-260.163 -141.824)" fill="#c18d6c"/>
    <path id="Trazado_874014" data-name="Trazado 874014" d="M221.306,247.585l.369-.305c1.67,4.408.92,9.456,1.327,14.126a8.371,8.371,0,0,1-5.056-5.59c-.042,1.2-.072,2.387-.11,3.581-1.052-3.984.14-9.159,3.471-11.812" transform="translate(-125.296 -142.475)" fill="#c18d6c"/>
    <path id="Trazado_874015" data-name="Trazado 874015" d="M277.694,247.486c3.276-1.84,5.413,3.988,2.009,4.984-3.043,1.33-5.319-3.925-2.009-4.984" transform="translate(-159.06 -142.388)" fill="#fefefe"/>
    <path id="Trazado_874016" data-name="Trazado 874016" d="M395.8,247.348c3.136-1.755,5.662,3.649,2.323,4.921-3.1,1.585-5.476-3.62-2.323-4.921" transform="translate(-227.186 -142.314)" fill="#fefefe"/>
    <path id="Trazado_874017" data-name="Trazado 874017" d="M224.05,283.561c1,.314,1.987.687,2.967,1.085.068,1.055.152,2.111.233,3.166-.915-.165-1.827-.326-2.747-.47l-.012-.191a29.97,29.97,0,0,0-.441-3.59" transform="translate(-129.09 -163.379)" fill="#c18d6c"/>
    <path id="Trazado_874018" data-name="Trazado 874018" d="M331.611,288.735c-.3-2.361,1.339-4.5,2.637-6.345-.4,3.34.517,6.336,3.759,7.769-2.124.2-5.078.729-6.4-1.424" transform="translate(-191.043 -162.704)" fill="#30121a"/>
    <path id="Trazado_874019" data-name="Trazado 874019" d="M261.478,289.94c3.3-.008,6.875.5,9.706,2.259,1.53,2.212-1.839,3.369-3.531,3.586-3.649.3-8.519.6-10.871-2.763-.407-2.357,2.908-3,4.7-3.081" transform="translate(-147.93 -167.054)" fill="#f3a373"/>
    <path id="Trazado_874020" data-name="Trazado 874020" d="M397.329,290.47c2.768-.407,5.785-.555,8.383.653a1.916,1.916,0,0,1-.034,3.489c-3.87,2.081-9.26,2.293-12.9-.314-1.284-2.628,2.671-3.509,4.552-3.827" transform="translate(-226.16 -167.189)" fill="#f3a373"/>
    <path id="Trazado_874021" data-name="Trazado 874021" d="M260.14,294.645c2.2-.72,4.649.119,6.735-1.085a7.882,7.882,0,0,1-.064,2.3c-1.848-1.712-4.45-.733-6.671-1.212" transform="translate(-149.884 -169.14)" fill="#4f312b"/>
    <path id="Trazado_874022" data-name="Trazado 874022" d="M297.447,304.415c.822-.309,1.585.267,2.305.593,10.1,5.62,22.976,5.095,33.034-.356,1.941-1.488,3.793,1.971,1.691,2.946a37.788,37.788,0,0,1-36.517.428c-1.492-.572-2.17-2.8-.513-3.611" transform="translate(-170.823 -175.32)" fill="#30121a"/>
    <path id="Trazado_874023" data-name="Trazado 874023" d="M245.35,350.732c-1.39-4.726-.288-11.363,4.87-13.241,2.577.331,4.666,2.365,7.142,3.191a10.416,10.416,0,0,0-3.48,8.43,32.878,32.878,0,0,0-8.18.453c-.089.292-.263.873-.352,1.166" transform="translate(-141.045 -194.451)" fill="#c74f26"/>
    <path id="Trazado_874024" data-name="Trazado 874024" d="M406.478,340.757c2.335-1.043,4.424-2.666,6.9-3.357,5.031,1.755,6.341,8.1,5.1,12.762-.924,6.192-5.963,10.532-10.986,13.656-1.377.721-2.882,1.89-4.5,1.229,5.4-4.107,11.609-8.769,12.545-16-1.848.008-3.7.089-5.539.25a11.456,11.456,0,0,0-3.518-8.536" transform="translate(-232.19 -194.399)" fill="#c74f26"/>
    <path id="Trazado_874025" data-name="Trazado 874025" d="M533.236,342.975c2.806-.547,4.844,1.916,6.163,4.035,3.92,6.3,6.569,13.7,6.383,21.179-.581,4.5-7.875,4.433-8.426-.076a37.992,37.992,0,0,0-6.747-18.658,4.082,4.082,0,0,1,2.628-6.48" transform="translate(-305.226 -197.566)" fill="#fefefe"/>
    <path id="Trazado_874026" data-name="Trazado 874026" d="M142.464,343.4c2.352-1.085,5.65.305,6.018,3,.306,2.425-1.733,4.213-2.738,6.214-2.924,4.865-4.009,10.494-4.691,16.042-1.166,4.548-8.714,3.594-8.451-1.213.623-8.608,3.145-18.225,9.863-24.044" transform="translate(-76.396 -197.641)" fill="#fefefe"/>
    <path id="Trazado_874027" data-name="Trazado 874027" d="M274.248,359.122c-1.14-3.28-.606-7.938,3.183-9.032,4.3,1.526,9.43,3.615,11.164,8.21-2.751-1-9.329-5-9.426.3-1.644.17-3.276.394-4.92.526" transform="translate(-157.706 -201.71)" fill="#c74f26"/>
    <path id="Trazado_874028" data-name="Trazado 874028" d="M377.229,358.327c1.869-4.476,6.747-6.967,11.164-8.307,3.679,1.446,4.289,6.116,2.8,9.4-.17-.021-.509-.055-.678-.076a39.134,39.134,0,0,0-5.116-.534c.7-.653,2.475-1.941,1-2.742-3.251-1.318-6.315,1.018-9.176,2.263" transform="translate(-217.347 -201.67)" fill="#c74f26"/>
    <path id="Trazado_874029" data-name="Trazado 874029" d="M316.576,362.7a36.545,36.545,0,0,0,21.467-.111c-.182,2.493.3,4.964.356,7.443-4.272,8.078-18.555,8.21-22.54-.263a22.071,22.071,0,0,0,.717-7.07" transform="translate(-181.988 -208.912)" fill="#c18d6c"/>
    <path id="Trazado_874030" data-name="Trazado 874030" d="M246.452,365.194a32.88,32.88,0,0,1,8.18-.453c2.221,9.553,12.431,13.813,19.878,18.746-2.018-2.895-5.289-4.578-7.506-7.26-1.606-3.67-5.069-6.006-8.142-8.362l-.526-.373c1.644-.132,3.276-.356,4.921-.526,2.891.25,5.3,2.344,7.362,4.247,5.535,5.434,9.346,12.355,12.507,19.369-1.84-.063-3.87.412-5.556-.5-4.709-3.412-10.007-5.887-15.16-8.54-7.154-2.513-14.254-7.493-16.309-15.177.089-.292.263-.874.352-1.166" transform="translate(-141.795 -210.079)" fill="#fcab3e"/>
    <path id="Trazado_874031" data-name="Trazado 874031" d="M381.031,365.12c1.839-.161,3.691-.241,5.539-.25-.937,7.235-7.15,11.9-12.545,16-4.624,2.933-9.689,5.192-13.973,8.655-1.95,1.932-4.887,1.089-7.333,1.17,4.221-8.862,8.913-19.488,18.56-23.337a39.146,39.146,0,0,1,5.116.534c-4.086,4.772-9.125,8.65-13.122,13.486-.733.929-1.568,1.767-2.335,2.666,7.531-5.039,17.4-9.515,20.094-18.928" transform="translate(-203.225 -210.226)" fill="#fcab3e"/>
    <path id="Trazado_874032" data-name="Trazado 874032" d="M390.741,372.011c.17.021.509.055.678.076-3.37,5.531-8.976,9.243-13.8,13.41,4-4.836,9.036-8.714,13.122-13.486" transform="translate(-217.572 -214.34)" fill="#fed2a9"/>
    <path id="Trazado_874033" data-name="Trazado 874033" d="M435.876,371.54c3.7,5.722-3.437,10.405-8.366,11.431,3.632-3.111,6.989-6.731,8.366-11.431" transform="translate(-246.317 -214.069)" fill="#c74f26"/>
    <path id="Trazado_874034" data-name="Trazado 874034" d="M246.278,383.235c-4.916-.6-11.7-5-8.528-10.664a26.037,26.037,0,0,0,8.528,10.664" transform="translate(-136.515 -214.663)" fill="#c74f26"/>
    <path id="Trazado_874035" data-name="Trazado 874035" d="M276.21,372.28c3.073,2.357,6.535,4.692,8.142,8.362-2.993-2.412-6.6-4.717-8.142-8.362" transform="translate(-159.143 -214.495)" fill="#fed2a9"/>
    <path id="Trazado_874036" data-name="Trazado 874036" d="M223.909,388.494c.788-.28,1.585-.559,2.378-.843,1.441,4.653,8.659,5.145,7.192,10.816-4.085-2.314-6.981-6.158-9.57-9.972" transform="translate(-129.009 -223.352)" fill="#c74f26"/>
    <path id="Trazado_874037" data-name="Trazado 874037" d="M447.971,387.44c.924.225,1.852.458,2.785.691-2.344,3.967-5.111,7.917-9.214,10.231-1.424-5.408,5.014-6.455,6.43-10.922" transform="translate(-254.284 -223.23)" fill="#c74f26"/>
    <path id="Trazado_874038" data-name="Trazado 874038" d="M171.386,402.58a18.939,18.939,0,0,1,11.35-12.939c2.59,3.815,5.485,7.658,9.57,9.972l.246.149q.483,2.645.852,5.311c-4.45.224-8.909.033-13.359.114a10.352,10.352,0,0,0-9.892,8.443c-.708,11.537-.093,23.154-.272,34.72a21.9,21.9,0,0,0-17.432,7.811c5.976-17.97,12.775-35.669,18.937-53.581" transform="translate(-87.836 -224.498)" fill="#fcab3e"/>
    <path id="Trazado_874039" data-name="Trazado 874039" d="M441.145,399.3c4.1-2.314,6.87-6.264,9.214-10.231,5.213,1.979,10.1,5.654,11.948,11.118,6.755,17.8,13.931,35.457,20.31,53.4a20.522,20.522,0,0,0-17.1-5.438c.068-10.867-.034-21.738.085-32.606A10.75,10.75,0,0,0,455,404.854c-4.785-.03-9.57.025-14.355-.021a38.51,38.51,0,0,1,.5-5.531" transform="translate(-253.887 -224.169)" fill="#fcab3e"/>
    <path id="Trazado_874040" data-name="Trazado 874040" d="M330.449,401.77a23.585,23.585,0,0,0,10.579-.089c-1.97,3.395-3.4,7.056-5.226,10.524-1.611-3.569-3.641-6.921-5.353-10.435" transform="translate(-190.394 -231.435)" fill="#6d615b"/>
    <path id="Trazado_874041" data-name="Trazado 874041" d="M253.3,405.21q1.78.439,3.531,1.017a47.337,47.337,0,0,1-1.772,8.006,36.685,36.685,0,0,1-1.758-9.023" transform="translate(-145.943 -233.469)" fill="#66453a"/>
    <path id="Trazado_874042" data-name="Trazado 874042" d="M267.031,410.551c5.286,2.144,11.185,3.217,15.865,6.582-5.659-.144-11.313.212-16.966,0a60.744,60.744,0,0,1,1.1-6.586" transform="translate(-153.22 -236.546)" fill="#c74f26"/>
    <path id="Trazado_874043" data-name="Trazado 874043" d="M380.42,417.14c5.115-3.5,11.278-5.019,17.178-6.65a40.686,40.686,0,0,0,1.534,6.756c-6.238-.013-12.477-.072-18.712-.106" transform="translate(-219.186 -236.511)" fill="#c74f26"/>
    <path id="Trazado_874044" data-name="Trazado 874044" d="M201.406,441.326a7.306,7.306,0,0,1,7.646-7.519q53.854.019,107.717-.017a8.126,8.126,0,0,1,7.871,7.938c-.025,10.99-.051,21.984-.441,32.966-.225,2.835-.619,5.654-.78,8.494q-.235,2.842-.568,5.684c-.326-15.572-.11-31.156-.208-46.732a5.567,5.567,0,0,0-5.912-5.645c-36.166.1-72.34-.11-108.5.051-3.026-.165-4.785,2.895-4.632,5.6-.1,20.344-.021,40.718-1.305,61.023q-.121,1.125-.246,2.263c-.17-.915-.326-1.831-.432-2.746-.284-20.45-.22-40.908-.212-61.358" transform="translate(-116.034 -249.936)" fill="#fefefe"/>
    <path id="Trazado_874045" data-name="Trazado 874045" d="M204.834,445.8c-.152-2.7,1.606-5.764,4.633-5.6,36.157-.161,72.331.047,108.5-.051a5.567,5.567,0,0,1,5.913,5.645c.1,15.576-.119,31.161.208,46.732q.331-2.842.568-5.684a128.964,128.964,0,0,1-1.161,19.891c-39.984.161-79.977-.03-119.962.089,1.284-20.306,1.208-40.679,1.305-61.023" transform="translate(-117.267 -253.588)" fill="#929998"/>
    <path id="Trazado_874046" data-name="Trazado 874046" d="M162.619,480.96c.178-11.566-.436-23.184.272-34.72q.146,19.492.013,38.988c-14.237-.691-24.426,14.643-22.031,27.863-3.115-8.278,1.594-16.657,4.315-24.32a21.9,21.9,0,0,1,17.432-7.811" transform="translate(-80.574 -257.109)" fill="#c74f26"/>
    <path id="Trazado_874047" data-name="Trazado 874047" d="M215.976,448.464c7.985-.479,16.038-.136,24.04-.144,2.178-.178,2.229,3.615.008,3.378-7.616-.038-15.245-.013-22.857-.068a1.8,1.8,0,0,1-1.191-3.166" transform="translate(-124.081 -258.243)" fill="#fefefe"/>
    <path id="Trazado_874048" data-name="Trazado 874048" d="M326.3,498.472c.894-2.61,2.615-6.256,5.942-5.738,2.751.8,1.983,4.212,1.118,6.2,1.394.737,3.014,1.394,3.81,2.857,1.458,2.509-2.407,4.857-.466,7.341,2.386,2.988-.03,6.768-2.9,8.294-2.131,1.339-4.446-.915-6.692.017-2.962,1.064-5.514-1.352-7.027-3.619-3.946-5.349-1.246-15.33,6.218-15.347" transform="translate(-183.377 -283.868)" fill="#30121a"/>
    <path id="Trazado_874049" data-name="Trazado 874049" d="M342.29,502.918c.606-1.606,1.051-4.145,3.043-4.438.856,1.636-.992,4.51-3.043,4.438" transform="translate(-197.216 -287.208)" fill="#fefefe"/>
    <path id="Trazado_874050" data-name="Trazado 874050" d="M333.834,513.839a2.984,2.984,0,0,1,4.573,1.191,7.382,7.382,0,0,0,.416,8.934,10.777,10.777,0,0,1-2.963,3.327,9.28,9.28,0,0,0-7.1-.364c-4.688-2.174-5.989-9.829-1.755-13.135,2.187-1.869,4.527,1.657,6.832.047" transform="translate(-186.93 -295.696)" fill="#fefefe"/>
    <path id="Trazado_874051" data-name="Trazado 874051" d="M499.26,528.135a20.523,20.523,0,0,1,17.1,5.438c3.416,8.04,8.2,17.047,5.586,26.057,2.632-13.487-8.265-28.715-22.7-27.261-.038-1.411-.038-2.822.017-4.234" transform="translate(-287.632 -304.152)" fill="#c74f26"/>
    <path id="Trazado_874052" data-name="Trazado 874052" d="M323.569,538.794c.161-2.839.555-5.658.78-8.493.47,11.193.008,22.4.178,33.605.186,2.365-.868,5.734-3.8,5.51-38.577-.055-77.163.039-115.74-.059-4.683-1.166-2.992-7.493-3.217-11.066.106.916.262,1.831.432,2.746.085-.758.165-1.513.246-2.263,39.984-.119,79.977.072,119.961-.089a129.026,129.026,0,0,0,1.162-19.891" transform="translate(-116.183 -305.542)" fill="#6d615b"/>
    <path id="Trazado_874053" data-name="Trazado 874053" d="M55.487,540.585a2.083,2.083,0,0,1,2.729,1.28c3.255,6.243,6.4,12.554,9.523,18.861,1.246,2.106-2.272,3.628-3.263,1.619-3.289-5.993-6.1-12.253-9.307-18.293-.581-1.064-1.259-2.929.318-3.467" transform="translate(-31.409 -311.376)" fill="#fcab3e"/>
    <path id="Trazado_874054" data-name="Trazado 874054" d="M617.227,540.479a1.8,1.8,0,0,1,2.446,2.449q-4.756,9.664-9.608,19.293c-1.009,2.038-4.586.466-3.294-1.661,3.59-6.612,6.37-13.838,10.456-20.081" transform="translate(-349.441 -311.27)" fill="#fcab3e"/>
    <path id="Trazado_874055" data-name="Trazado 874055" d="M172.25,549a13.858,13.858,0,0,1,9.3-2.432c.017.288.055.865.072,1.152h-.3A30.379,30.379,0,0,0,172.25,549" transform="translate(-99.245 -314.887)" fill="#fed2a9"/>
    <path id="Trazado_874056" data-name="Trazado 874056" d="M499.333,546.3c7.392-1.1,14.5,3.992,17.436,10.55a9.375,9.375,0,0,1-1.92,6.12c-2.8-6.044-8.336-11.905-15.61-10.926.034-1.916.009-3.831.094-5.743" transform="translate(-287.645 -314.671)" fill="#fcab3e"/>
    <path id="Trazado_874057" data-name="Trazado 874057" d="M161.314,550.608a30.377,30.377,0,0,1,9.074-1.28c.043,1.378.056,2.763.047,4.146-7.108.631-11.8,6.26-14.821,12.18a27.155,27.155,0,0,1-2.344-5.319c1.7-3.865,4.217-7.726,8.044-9.727" transform="translate(-88.309 -316.491)" fill="#fcab3e"/>
    <path id="Trazado_874058" data-name="Trazado 874058" d="M167.892,549.36h.3c-.021,2.666-.038,5.328-.106,7.994-10.523,2.6-13.389,16.559-7.76,24.845a16.621,16.621,0,0,1-4.28-.135c-6.883-4.56-9.037-14.457-5.273-21.7a27.2,27.2,0,0,0,2.344,5.319c3.018-5.921,7.714-11.549,14.821-12.181.009-1.382,0-2.768-.047-4.145" transform="translate(-85.813 -316.523)" fill="#c74f26"/>
    <path id="Trazado_874059" data-name="Trazado 874059" d="M499.237,559.9c7.273-.979,12.812,4.883,15.61,10.926a9.377,9.377,0,0,0,1.92-6.12c4.823,7.612,2.6,18.988-5.192,23.76a15.129,15.129,0,0,1-4.221.081c6.349-8.354,3.081-23.082-8.053-25.193-.064-1.152-.068-2.305-.064-3.454" transform="translate(-287.643 -322.537)" fill="#c74f26"/>
    <path id="Trazado_874060" data-name="Trazado 874060" d="M495.446,576.4c9.231,2.543,10.2,16.106,3.306,21.62a35.817,35.817,0,0,1-6.362.1c5.582-5.79,1.9-14.584,3.056-21.721" transform="translate(-283.699 -332.103)" fill="#c18d6c"/>
    <path id="Trazado_874061" data-name="Trazado 874061" d="M181.608,598.209c-6.612-5.362-5.976-18.305,2.61-21.378,1.23,7.04-2.212,15.445,2.751,21.421a47.113,47.113,0,0,1-5.361-.042" transform="translate(-102.067 -332.351)" fill="#c18d6c"/>
  </g>
</svg>
