<svg xmlns="http://www.w3.org/2000/svg" width="70" height="70" viewBox="0 0 70 70">
  <g id="Grupo_1098747" data-name="Grupo 1098747" transform="translate(-515 -526)">
    <circle id="Elipse_11440" data-name="Elipse 11440" cx="35" cy="35" r="35" transform="translate(515 526)" fill="#3a1d71"/>
    <g id="_x36_9" transform="translate(524.285 535.273)">
      <g id="Grupo_1098771" data-name="Grupo 1098771" transform="translate(-5.926 -5.914)">
        <g id="Grupo_1098770" data-name="Grupo 1098770" transform="translate(0 0)">
          <circle id="Elipse_11441" data-name="Elipse 11441" cx="27.586" cy="27.586" r="27.586" transform="matrix(0.16, -0.987, 0.987, 0.16, 0, 54.455)" fill="#3a1d71"/>
        </g>
      </g>
      <g id="Grupo_1098773" data-name="Grupo 1098773" transform="translate(-3.881 -3.86)">
        <g id="Grupo_1098772" data-name="Grupo 1098772" transform="translate(0)">
          <circle id="Elipse_11442" data-name="Elipse 11442" cx="21.207" cy="21.207" r="21.207" transform="translate(0 34.398) rotate(-54.196)" fill="#00ffdf"/>
        </g>
      </g>
      <g id="Grupo_1098832" data-name="Grupo 1098832" transform="translate(5.076 6.596)">
        <g id="Grupo_1098775" data-name="Grupo 1098775">
          <g id="Grupo_1098774" data-name="Grupo 1098774">
            <path id="Trazado_873119" data-name="Trazado 873119" d="M60.893,27.412V57.076a4.3,4.3,0,0,1-4.3,4.3H23.9a4.3,4.3,0,0,1-4.3-4.3V27.412a4.3,4.3,0,0,1,4.3-4.3h32.69A4.3,4.3,0,0,1,60.893,27.412Z" transform="translate(-19.6 -23.11)" fill="#24272b"/>
          </g>
        </g>
        <g id="Grupo_1098778" data-name="Grupo 1098778" transform="translate(2.882 8.601)">
          <g id="Grupo_1098777" data-name="Grupo 1098777">
            <g id="Grupo_1098776" data-name="Grupo 1098776">
              <path id="Trazado_873120" data-name="Trazado 873120" d="M61.82,45.544V67.981a2.072,2.072,0,0,1-2.066,2.066h-31.4a2.072,2.072,0,0,1-2.066-2.066V45.544a2.479,2.479,0,0,1,2.479-2.479H59.341a2.479,2.479,0,0,1,2.479,2.479Z" transform="translate(-26.286 -43.065)" fill="#fff"/>
            </g>
          </g>
        </g>
        <g id="Grupo_1098791" data-name="Grupo 1098791" transform="translate(4.29 2.859)">
          <g id="Grupo_1098780" data-name="Grupo 1098780" transform="translate(0.001)">
            <g id="Grupo_1098779" data-name="Grupo 1098779">
              <path id="Trazado_873121" data-name="Trazado 873121" d="M32.483,31.208a1.464,1.464,0,1,1-1.464-1.464A1.468,1.468,0,0,1,32.483,31.208Z" transform="translate(-29.555 -29.743)" fill="#43a1ff"/>
            </g>
          </g>
          <g id="Grupo_1098782" data-name="Grupo 1098782" transform="translate(0 0.159)">
            <g id="Grupo_1098781" data-name="Grupo 1098781">
              <path id="Trazado_873122" data-name="Trazado 873122" d="M32.318,32.083a1.462,1.462,0,1,1-1.958-1.971,1.463,1.463,0,0,0,1.958,1.971Z" transform="translate(-29.553 -30.112)" fill="#2c8cff"/>
            </g>
          </g>
          <g id="Grupo_1098784" data-name="Grupo 1098784" transform="translate(5.085)">
            <g id="Grupo_1098783" data-name="Grupo 1098783">
              <path id="Trazado_873123" data-name="Trazado 873123" d="M44.279,31.208a1.464,1.464,0,1,1-1.464-1.464A1.468,1.468,0,0,1,44.279,31.208Z" transform="translate(-41.35 -29.743)" fill="#4fe88d"/>
            </g>
          </g>
          <g id="Grupo_1098786" data-name="Grupo 1098786" transform="translate(5.084 0.159)">
            <g id="Grupo_1098785" data-name="Grupo 1098785">
              <path id="Trazado_873124" data-name="Trazado 873124" d="M44.114,32.083a1.463,1.463,0,1,1-1.962-1.971,1.465,1.465,0,0,0,1.962,1.971Z" transform="translate(-41.349 -30.112)" fill="#35d175"/>
            </g>
          </g>
          <g id="Grupo_1098788" data-name="Grupo 1098788" transform="translate(10.169)">
            <g id="Grupo_1098787" data-name="Grupo 1098787">
              <path id="Trazado_873125" data-name="Trazado 873125" d="M56.074,31.208a1.464,1.464,0,1,1-1.464-1.464A1.468,1.468,0,0,1,56.074,31.208Z" transform="translate(-53.146 -29.743)" fill="#fc545d"/>
            </g>
          </g>
          <g id="Grupo_1098790" data-name="Grupo 1098790" transform="translate(10.169 0.159)">
            <g id="Grupo_1098789" data-name="Grupo 1098789">
              <path id="Trazado_873126" data-name="Trazado 873126" d="M55.915,32.083a1.465,1.465,0,1,1-1.971-1.971,1.469,1.469,0,0,0,1.971,1.971Z" transform="translate(-53.145 -30.112)" fill="#f14448"/>
            </g>
          </g>
        </g>
        <g id="Grupo_1098798" data-name="Grupo 1098798" transform="translate(19.894 3.414)">
          <g id="Grupo_1098794" data-name="Grupo 1098794" transform="translate(0.003)">
            <g id="Grupo_1098793" data-name="Grupo 1098793">
              <g id="Grupo_1098792" data-name="Grupo 1098792">
                <path id="Trazado_873127" data-name="Trazado 873127" d="M81.451,33.081H66.785a1.025,1.025,0,0,1,0-2.049H81.451a1.025,1.025,0,0,1,0,2.049Z" transform="translate(-65.761 -31.031)" fill="#13181e"/>
              </g>
            </g>
          </g>
          <g id="Grupo_1098797" data-name="Grupo 1098797" transform="translate(0 0.004)">
            <g id="Grupo_1098796" data-name="Grupo 1098796">
              <g id="Grupo_1098795" data-name="Grupo 1098795">
                <path id="Trazado_873128" data-name="Trazado 873128" d="M82.4,31.667c-.375-.156.388-.05-15.063-.082a1.023,1.023,0,0,0-.943,1.424,1.022,1.022,0,0,1,.39-1.967H81.453a1.023,1.023,0,0,1,.943.625Z" transform="translate(-65.755 -31.042)"/>
              </g>
            </g>
          </g>
        </g>
        <g id="Grupo_1098807" data-name="Grupo 1098807" transform="translate(39.267 17.806)">
          <g id="Grupo_1098802" data-name="Grupo 1098802">
            <g id="Grupo_1098801" data-name="Grupo 1098801" opacity="0.3">
              <g id="Grupo_1098800" data-name="Grupo 1098800">
                <g id="Grupo_1098799" data-name="Grupo 1098799">
                  <path id="Trazado_873129" data-name="Trazado 873129" d="M110.7,72.008V65a.575.575,0,1,1,1.15,0v7.012a.575.575,0,1,1-1.15,0Z" transform="translate(-110.7 -64.421)" fill="#fff"/>
                </g>
              </g>
            </g>
          </g>
          <g id="Grupo_1098806" data-name="Grupo 1098806" transform="translate(0 9.013)">
            <g id="Grupo_1098805" data-name="Grupo 1098805" opacity="0.3">
              <g id="Grupo_1098804" data-name="Grupo 1098804">
                <g id="Grupo_1098803" data-name="Grupo 1098803">
                  <path id="Trazado_873130" data-name="Trazado 873130" d="M110.7,86.889v-.983a.575.575,0,1,1,1.15,0v.983a.575.575,0,1,1-1.15,0Z" transform="translate(-110.7 -85.331)" fill="#fff"/>
                </g>
              </g>
            </g>
          </g>
        </g>
        <g id="Grupo_1098811" data-name="Grupo 1098811" transform="translate(20.071 0.953)">
          <g id="Grupo_1098810" data-name="Grupo 1098810" opacity="0.3">
            <g id="Grupo_1098809" data-name="Grupo 1098809">
              <g id="Grupo_1098808" data-name="Grupo 1098808">
                <path id="Trazado_873131" data-name="Trazado 873131" d="M66.74,25.321h9.245a.575.575,0,1,1,0,1.15H66.74a.575.575,0,1,1,0-1.15Z" transform="translate(-66.165 -25.321)" fill="#fff"/>
              </g>
            </g>
          </g>
        </g>
        <g id="Grupo_1098824" data-name="Grupo 1098824" transform="translate(4.29 2.859)">
          <g id="Grupo_1098813" data-name="Grupo 1098813" transform="translate(0.001)">
            <g id="Grupo_1098812" data-name="Grupo 1098812">
              <path id="Trazado_873132" data-name="Trazado 873132" d="M32.483,31.208a1.464,1.464,0,1,1-1.464-1.464A1.468,1.468,0,0,1,32.483,31.208Z" transform="translate(-29.555 -29.743)" fill="#43a1ff"/>
            </g>
          </g>
          <g id="Grupo_1098815" data-name="Grupo 1098815" transform="translate(0 0.159)">
            <g id="Grupo_1098814" data-name="Grupo 1098814">
              <path id="Trazado_873133" data-name="Trazado 873133" d="M32.318,32.083a1.462,1.462,0,1,1-1.958-1.971,1.463,1.463,0,0,0,1.958,1.971Z" transform="translate(-29.553 -30.112)" fill="#2c8cff"/>
            </g>
          </g>
          <g id="Grupo_1098817" data-name="Grupo 1098817" transform="translate(5.085)">
            <g id="Grupo_1098816" data-name="Grupo 1098816">
              <path id="Trazado_873134" data-name="Trazado 873134" d="M44.279,31.208a1.464,1.464,0,1,1-1.464-1.464A1.468,1.468,0,0,1,44.279,31.208Z" transform="translate(-41.35 -29.743)" fill="#4fe88d"/>
            </g>
          </g>
          <g id="Grupo_1098819" data-name="Grupo 1098819" transform="translate(5.084 0.159)">
            <g id="Grupo_1098818" data-name="Grupo 1098818">
              <path id="Trazado_873135" data-name="Trazado 873135" d="M44.114,32.083a1.463,1.463,0,1,1-1.962-1.971,1.465,1.465,0,0,0,1.962,1.971Z" transform="translate(-41.349 -30.112)" fill="#35d175"/>
            </g>
          </g>
          <g id="Grupo_1098821" data-name="Grupo 1098821" transform="translate(10.169)">
            <g id="Grupo_1098820" data-name="Grupo 1098820">
              <path id="Trazado_873136" data-name="Trazado 873136" d="M56.074,31.208a1.464,1.464,0,1,1-1.464-1.464A1.468,1.468,0,0,1,56.074,31.208Z" transform="translate(-53.146 -29.743)" fill="#fc545d"/>
            </g>
          </g>
          <g id="Grupo_1098823" data-name="Grupo 1098823" transform="translate(10.169 0.159)">
            <g id="Grupo_1098822" data-name="Grupo 1098822">
              <path id="Trazado_873137" data-name="Trazado 873137" d="M55.915,32.083a1.465,1.465,0,1,1-1.971-1.971,1.469,1.469,0,0,0,1.971,1.971Z" transform="translate(-53.145 -30.112)" fill="#f14448"/>
            </g>
          </g>
        </g>
        <g id="Grupo_1098831" data-name="Grupo 1098831" transform="translate(19.894 3.414)">
          <g id="Grupo_1098827" data-name="Grupo 1098827" transform="translate(0.003)">
            <g id="Grupo_1098826" data-name="Grupo 1098826">
              <g id="Grupo_1098825" data-name="Grupo 1098825">
                <path id="Trazado_873138" data-name="Trazado 873138" d="M81.451,33.081H66.785a1.025,1.025,0,0,1,0-2.049H81.451a1.025,1.025,0,0,1,0,2.049Z" transform="translate(-65.761 -31.031)" fill="#13181e"/>
              </g>
            </g>
          </g>
          <g id="Grupo_1098830" data-name="Grupo 1098830" transform="translate(0 0.004)">
            <g id="Grupo_1098829" data-name="Grupo 1098829">
              <g id="Grupo_1098828" data-name="Grupo 1098828">
                <path id="Trazado_873139" data-name="Trazado 873139" d="M82.4,31.667c-.375-.156.388-.05-15.063-.082a1.023,1.023,0,0,0-.943,1.424,1.022,1.022,0,0,1,.39-1.967H81.453a1.023,1.023,0,0,1,.943.625Z" transform="translate(-65.755 -31.042)"/>
              </g>
            </g>
          </g>
        </g>
      </g>
      <g id="Grupo_1098848" data-name="Grupo 1098848" transform="translate(9.705 16.9)">
        <g id="Grupo_1098834" data-name="Grupo 1098834" transform="translate(0 0)">
          <g id="Grupo_1098833" data-name="Grupo 1098833">
            <path id="Trazado_873140" data-name="Trazado 873140" d="M30.338,48.1v2.49a1.082,1.082,0,0,0,1.082,1.082H61.292a1.082,1.082,0,0,0,1.082-1.082V48.1a1.082,1.082,0,0,0-1.082-1.082H31.42A1.082,1.082,0,0,0,30.338,48.1Z" transform="translate(-30.338 -47.015)" fill="#e5f5f9"/>
          </g>
        </g>
        <g id="Grupo_1098836" data-name="Grupo 1098836" transform="translate(0.001)">
          <g id="Grupo_1098835" data-name="Grupo 1098835">
            <path id="Trazado_873141" data-name="Trazado 873141" d="M30.341,48.1v2.489a1.08,1.08,0,0,0,1.083,1.083h3.712V47.015H31.423A1.08,1.08,0,0,0,30.341,48.1Z" transform="translate(-30.341 -47.015)" fill="#fc545d"/>
          </g>
        </g>
        <g id="Grupo_1098838" data-name="Grupo 1098838" transform="translate(0.001 3.466)">
          <g id="Grupo_1098837" data-name="Grupo 1098837">
            <path id="Trazado_873142" data-name="Trazado 873142" d="M30.341,55.056v.105a1.08,1.08,0,0,0,1.083,1.083h3.712V55.056Z" transform="translate(-30.341 -55.056)" fill="#f14448"/>
          </g>
        </g>
        <g id="Grupo_1098841" data-name="Grupo 1098841" transform="translate(1.13 0.749)">
          <g id="Grupo_1098840" data-name="Grupo 1098840">
            <g id="Grupo_1098839" data-name="Grupo 1098839">
              <path id="Trazado_873143" data-name="Trazado 873143" d="M33.575,49.1a1.2,1.2,0,0,0-.148,1.509l-.4.4a.239.239,0,0,0,.338.338l.4-.4a1.2,1.2,0,1,0-.19-1.847Zm.338.338a.722.722,0,1,1,0,1.021.723.723,0,0,1,0-1.021Z" transform="translate(-32.96 -48.752)" fill="#fff"/>
            </g>
          </g>
        </g>
        <g id="Grupo_1098845" data-name="Grupo 1098845" transform="translate(6.924 1.276)">
          <g id="Grupo_1098842" data-name="Grupo 1098842" transform="translate(7.171 0)">
            <path id="Trazado_873144" data-name="Trazado 873144" d="M65.452,52.329a.288.288,0,0,1-.267-.195l-.48-1.5-.48,1.5a.288.288,0,0,1-.267.195.28.28,0,0,1-.263-.19l-.643-1.883a.2.2,0,0,1,.19-.281.192.192,0,0,1,.186.122l.53,1.743.525-1.7a.232.232,0,0,1,.444,0l.525,1.7.53-1.743a.193.193,0,0,1,.186-.122.2.2,0,0,1,.19.281l-.643,1.883A.28.28,0,0,1,65.452,52.329Z" transform="translate(-63.039 -49.975)" fill="#24272b"/>
          </g>
          <g id="Grupo_1098843" data-name="Grupo 1098843" transform="translate(3.586 0)">
            <path id="Trazado_873145" data-name="Trazado 873145" d="M57.134,52.329a.288.288,0,0,1-.267-.195l-.48-1.5-.48,1.5a.288.288,0,0,1-.267.195.28.28,0,0,1-.263-.19l-.643-1.883a.2.2,0,0,1,.19-.281.192.192,0,0,1,.186.122l.53,1.743.525-1.7a.232.232,0,0,1,.444,0l.525,1.7.53-1.743a.193.193,0,0,1,.186-.122.2.2,0,0,1,.19.281L57.4,52.138a.28.28,0,0,1-.262.19Z" transform="translate(-54.721 -49.975)" fill="#24272b"/>
          </g>
          <g id="Grupo_1098844" data-name="Grupo 1098844">
            <path id="Trazado_873146" data-name="Trazado 873146" d="M48.816,52.329a.288.288,0,0,1-.267-.195l-.48-1.5-.48,1.5a.288.288,0,0,1-.267.195.28.28,0,0,1-.263-.19l-.643-1.883a.2.2,0,0,1,.19-.281c.279,0,.18.292.716,1.865l.525-1.7a.232.232,0,0,1,.444,0l.525,1.7.53-1.743a.193.193,0,0,1,.186-.122.2.2,0,0,1,.19.281l-.643,1.883A.28.28,0,0,1,48.816,52.329Z" transform="translate(-46.403 -49.975)" fill="#24272b"/>
          </g>
        </g>
        <g id="Grupo_1098847" data-name="Grupo 1098847" transform="translate(5.929 0.488)">
          <g id="Grupo_1098846" data-name="Grupo 1098846">
            <path id="Trazado_873147" data-name="Trazado 873147" d="M44.094,48.389v3.124a.239.239,0,0,0,.241.238.236.236,0,0,0,.238-.238V48.389a.239.239,0,0,0-.238-.241A.243.243,0,0,0,44.094,48.389Z" transform="translate(-44.094 -48.147)" fill="#24272b"/>
          </g>
        </g>
      </g>
      <g id="Grupo_1098850" data-name="Grupo 1098850" transform="translate(9.706 22.779)">
        <g id="Grupo_1098849" data-name="Grupo 1098849">
          <path id="Trazado_873148" data-name="Trazado 873148" d="M35.387,61.74v2.871A1.088,1.088,0,0,1,34.3,65.7H31.426a1.088,1.088,0,0,1-1.086-1.091V61.74a1.087,1.087,0,0,1,1.086-1.086H34.3A1.087,1.087,0,0,1,35.387,61.74Z" transform="translate(-30.34 -60.654)" fill="#4fe88d"/>
        </g>
      </g>
      <g id="Grupo_1098852" data-name="Grupo 1098852" transform="translate(9.706 22.779)">
        <g id="Grupo_1098851" data-name="Grupo 1098851">
          <path id="Trazado_873149" data-name="Trazado 873149" d="M35.387,64.593v.017A1.088,1.088,0,0,1,34.3,65.7H31.426a1.088,1.088,0,0,1-1.086-1.091V61.74a1.087,1.087,0,0,1,1.086-1.086h.022V63.5a1.088,1.088,0,0,0,1.086,1.091h2.854Z" transform="translate(-30.34 -60.654)" fill="#35d175"/>
        </g>
      </g>
      <g id="Grupo_1098857" data-name="Grupo 1098857" transform="translate(16.384 24.808)">
        <g id="Grupo_1098853" data-name="Grupo 1098853" transform="translate(0 2.092)">
          <path id="Trazado_873150" data-name="Trazado 873150" d="M46.119,70.946a.277.277,0,0,1-.085-.2.3.3,0,0,1,.085-.235.349.349,0,0,1,.46,0,.294.294,0,0,1,.085.235.279.279,0,0,1-.085.2A.347.347,0,0,1,46.119,70.946Z" transform="translate(-45.948 -70.332)" fill="#4fe88d"/>
          <path id="Trazado_873151" data-name="Trazado 873151" d="M45.944,70.89a.363.363,0,0,1-.111-.265.377.377,0,0,1,.111-.3.429.429,0,0,1,.582,0,.407.407,0,0,1,0,.562A.429.429,0,0,1,45.944,70.89Zm.122-.439a.207.207,0,0,0-.06.174.19.19,0,0,0,.06.143h0a.258.258,0,0,0,.338,0,.192.192,0,0,0,.06-.144.21.21,0,0,0-.06-.174A.265.265,0,0,0,46.067,70.451Z" transform="translate(-45.834 -70.215)" fill="#4fe88d"/>
        </g>
        <g id="Grupo_1098854" data-name="Grupo 1098854" transform="translate(1.184)">
          <path id="Trazado_873152" data-name="Trazado 873152" d="M48.782,66.933a1.329,1.329,0,0,1,1.381-1.371,1.463,1.463,0,0,1,.843.248.206.206,0,1,1-.207.357A1.1,1.1,0,0,0,50.2,66a.931.931,0,1,0,0,1.862A1.1,1.1,0,0,0,50.8,67.7a.206.206,0,1,1,.207.357,1.462,1.462,0,0,1-.843.248,1.327,1.327,0,0,1-1.381-1.371Z" transform="translate(-48.696 -65.476)" fill="#4fe88d"/>
          <path id="Trazado_873153" data-name="Trazado 873153" d="M50.049,68.276a1.457,1.457,0,1,1,0-2.914,1.549,1.549,0,0,1,.889.262.293.293,0,0,1-.295.506,1.016,1.016,0,0,0-.554-.155.845.845,0,1,0,0,1.69,1.016,1.016,0,0,0,.555-.156.292.292,0,0,1,.294.506,1.55,1.55,0,0,1-.89.262Zm0-.173a1.378,1.378,0,0,0,.8-.235.12.12,0,1,0-.12-.208,1.18,1.18,0,0,1-.636.176,1.018,1.018,0,1,1,0-2.035,1.18,1.18,0,0,1,.634.175.12.12,0,1,0,.12-.208,1.379,1.379,0,0,0-.8-.234,1.285,1.285,0,1,0,0,2.569Z" transform="translate(-48.582 -65.362)" fill="#4fe88d"/>
        </g>
        <g id="Grupo_1098855" data-name="Grupo 1098855" transform="translate(3.921)">
          <path id="Trazado_873154" data-name="Trazado 873154" d="M55.13,66.933A1.325,1.325,0,1,1,56.454,68.3,1.268,1.268,0,0,1,55.13,66.933Zm2.177-.005a.858.858,0,1,0-.853.946A.848.848,0,0,0,57.307,66.928Z" transform="translate(-55.043 -65.476)" fill="#4fe88d"/>
          <path id="Trazado_873155" data-name="Trazado 873155" d="M56.34,68.276a1.458,1.458,0,1,1,1.41-1.457A1.354,1.354,0,0,1,56.34,68.276Zm0-2.742a1.285,1.285,0,1,0,1.238,1.284A1.183,1.183,0,0,0,56.34,65.535Zm0,2.312a.931.931,0,0,1-.94-1.033.944.944,0,1,1,.94,1.033Zm0-1.883a.756.756,0,0,0-.767.85.773.773,0,1,0,1.534,0A.762.762,0,0,0,56.34,65.964Z" transform="translate(-54.929 -65.362)" fill="#4fe88d"/>
        </g>
        <g id="Grupo_1098856" data-name="Grupo 1098856" transform="translate(7.226 0)">
          <path id="Trazado_873156" data-name="Trazado 873156" d="M62.8,68.045V65.826a.235.235,0,1,1,.471,0v.212a1.293,1.293,0,0,1,.349-.341.951.951,0,0,1,.53-.134.8.8,0,0,1,.5.155.866.866,0,0,1,.295.378,1.042,1.042,0,0,1,.952-.533.89.89,0,0,1,.864.993v1.49a.235.235,0,0,1-.471,0v-1.4c0-.505-.191-.652-.528-.652a.821.821,0,0,0-.745.5v1.552a.235.235,0,0,1-.471,0v-1.4a.822.822,0,0,0-.119-.494A.481.481,0,0,0,64.013,66a.683.683,0,0,0-.437.137,1.33,1.33,0,0,0-.308.359v1.552A.235.235,0,0,1,62.8,68.045Z" transform="translate(-62.711 -65.476)" fill="#4fe88d"/>
          <path id="Trazado_873157" data-name="Trazado 873157" d="M66.084,67.931v-1.4c0-.454-.151-.565-.442-.565-.224,0-.432.072-.658.435v1.527a.322.322,0,0,1-.643,0v-1.4a.75.75,0,0,0-.1-.442.4.4,0,0,0-.34-.123.6.6,0,0,0-.383.118,1.233,1.233,0,0,0-.275.316v1.527a.322.322,0,0,1-.643,0V65.712a.322.322,0,0,1,.642-.024,1.362,1.362,0,0,1,.216-.177,1.04,1.04,0,0,1,.578-.149.892.892,0,0,1,.548.173.989.989,0,0,1,.254.276,1.119,1.119,0,0,1,.94-.449.975.975,0,0,1,.95,1.079v1.49A.322.322,0,0,1,66.084,67.931ZM65.642,65.8c.462,0,.614.276.614.738v1.4a.149.149,0,0,0,.3,0v-1.49a.806.806,0,0,0-.777-.907.954.954,0,0,0-.878.491l-.09.149-.064-.162a.788.788,0,0,0-.266-.34.713.713,0,0,0-.445-.138.872.872,0,0,0-.483.12,1.816,1.816,0,0,0-.482.543v-.486a.149.149,0,1,0-.3,0v2.219a.149.149,0,0,0,.3,0V66.356a1.485,1.485,0,0,1,.341-.4.769.769,0,0,1,.49-.156.562.562,0,0,1,.478.192.893.893,0,0,1,.136.546v1.4a.149.149,0,0,0,.3,0V66.356c.24-.337.4-.559.831-.559Z" transform="translate(-62.597 -65.362)" fill="#4fe88d"/>
        </g>
      </g>
      <g id="Grupo_1098859" data-name="Grupo 1098859" transform="translate(9.706 29.207)">
        <g id="Grupo_1098858" data-name="Grupo 1098858">
          <path id="Trazado_873158" data-name="Trazado 873158" d="M35.387,76.653v2.871A1.088,1.088,0,0,1,34.3,80.614H31.426a1.088,1.088,0,0,1-1.086-1.091V76.653a1.087,1.087,0,0,1,1.086-1.086H34.3A1.087,1.087,0,0,1,35.387,76.653Z" transform="translate(-30.34 -75.567)" fill="#ffbc50"/>
        </g>
      </g>
      <g id="Grupo_1098861" data-name="Grupo 1098861" transform="translate(9.706 29.205)">
        <g id="Grupo_1098860" data-name="Grupo 1098860">
          <path id="Trazado_873159" data-name="Trazado 873159" d="M35.387,79.508v.013A1.088,1.088,0,0,1,34.3,80.611H31.426a1.088,1.088,0,0,1-1.086-1.091V76.65a1.087,1.087,0,0,1,1.086-1.086h.022v2.853a1.088,1.088,0,0,0,1.086,1.09Z" transform="translate(-30.34 -75.564)" fill="#ffb32c"/>
        </g>
      </g>
      <g id="Grupo_1098867" data-name="Grupo 1098867" transform="translate(16.384 30.094)">
        <g id="Grupo_1098862" data-name="Grupo 1098862" transform="translate(0 3.237)">
          <path id="Trazado_873160" data-name="Trazado 873160" d="M46.119,85.861a.289.289,0,0,1-.085-.235.278.278,0,0,1,.085-.2.344.344,0,0,1,.256-.085.291.291,0,0,1,.29.29v.031a.292.292,0,0,1-.29.29A.313.313,0,0,1,46.119,85.861Z" transform="translate(-45.948 -85.25)" fill="#ffbc50"/>
          <path id="Trazado_873161" data-name="Trazado 873161" d="M46.261,85.919a.392.392,0,0,1-.317-.111.374.374,0,0,1-.111-.3.364.364,0,0,1,.111-.265.393.393,0,0,1,.317-.11.378.378,0,0,1,.376.376v.031a.378.378,0,0,1-.376.376Zm-.195-.55a.19.19,0,0,0-.06.143.209.209,0,0,0,.06.174h0a.232.232,0,0,0,.195.06.194.194,0,0,0,.143-.06.192.192,0,0,0,.06-.144v-.031a.192.192,0,0,0-.06-.144.194.194,0,0,0-.143-.06A.23.23,0,0,0,46.066,85.368Z" transform="translate(-45.834 -85.136)" fill="#ffbc50"/>
        </g>
        <g id="Grupo_1098863" data-name="Grupo 1098863" transform="translate(1.355 0.108)">
          <path id="Trazado_873162" data-name="Trazado 873162" d="M49.178,78.36V78.34a.264.264,0,0,1,.264-.264h.031a.264.264,0,0,1,.264.264v.021a.264.264,0,0,1-.264.264h-.031A.264.264,0,0,1,49.178,78.36Zm.042,3.233V79.374a.235.235,0,1,1,.471,0v2.219A.235.235,0,0,1,49.219,81.593Z" transform="translate(-49.091 -77.989)" fill="#ffbc50"/>
          <path id="Trazado_873163" data-name="Trazado 873163" d="M49.112,81.706h0a.314.314,0,0,1-.092-.226V79.26a.322.322,0,1,1,.643,0v2.219a.324.324,0,0,1-.551.226Zm.378-.226V79.26a.149.149,0,1,0-.3,0v2.219A.149.149,0,0,0,49.49,81.479ZM49.359,78.6h-.031a.361.361,0,0,1,0-.721h.031a.361.361,0,0,1,0,.721Zm-.031-.173h.031a.178.178,0,0,0,.178-.177.18.18,0,0,0-.178-.2h-.031a.188.188,0,0,0,0,.376Z" transform="translate(-48.977 -77.875)" fill="#ffbc50"/>
        </g>
        <g id="Grupo_1098864" data-name="Grupo 1098864" transform="translate(2.684 1.142)">
          <path id="Trazado_873164" data-name="Trazado 873164" d="M52.262,82.958V80.739a.235.235,0,1,1,.471,0v.212a1.217,1.217,0,0,1,.962-.476.929.929,0,0,1,.926,1.014v1.469a.235.235,0,0,1-.471,0V81.541q0-.631-.569-.631a1.087,1.087,0,0,0-.848.5v1.552a.235.235,0,0,1-.471,0Z" transform="translate(-52.175 -80.389)" fill="#ffbc50"/>
          <path id="Trazado_873165" data-name="Trazado 873165" d="M53.949,82.845V81.427c0-.372-.153-.545-.483-.545a.986.986,0,0,0-.762.441v1.521a.322.322,0,0,1-.643,0V80.626a.322.322,0,0,1,.643,0v0a1.22,1.22,0,0,1,.876-.355,1.014,1.014,0,0,1,1.012,1.1v1.469a.322.322,0,0,1-.643,0Zm-.483-2.135c.3,0,.655.125.655.717v1.417a.149.149,0,0,0,.3,0V81.375a.843.843,0,0,0-.839-.928,1.407,1.407,0,0,0-1.049.614v-.436a.149.149,0,1,0-.3,0v2.219a.149.149,0,0,0,.3,0V81.263c.644-.653.821-.553.934-.553Z" transform="translate(-52.061 -80.275)" fill="#ffbc50"/>
        </g>
        <g id="Grupo_1098865" data-name="Grupo 1098865" transform="translate(5.46)">
          <path id="Trazado_873166" data-name="Trazado 873166" d="M59.2,81.451V79.423H58.9a.2.2,0,0,1,0-.4H59.2v-.3a.808.808,0,0,1,1.226-.786c.208.1.143.445-.192.362-.385-.049-.564.051-.564.44v.284h.647a.2.2,0,0,1,0,.4h-.647v2.028a.235.235,0,0,1-.471,0Z" transform="translate(-58.613 -77.739)" fill="#ffbc50"/>
          <path id="Trazado_873167" data-name="Trazado 873167" d="M59,81.336V79.4h-.219a.288.288,0,0,1,0-.576H59v-.214a.894.894,0,0,1,1.35-.864c.3.15.182.629-.25.523-.36-.043-.457.056-.457.356v.2h.56a.288.288,0,0,1,0,.576h-.56v1.941a.322.322,0,0,1-.643,0Zm.471,0V79.223h.733a.115.115,0,1,0,0-.231h-.733v-.371c0-.438.222-.581.661-.525.253.059.255-.143.142-.2a.723.723,0,0,0-1.1.709v.386h-.391a.115.115,0,0,0,0,.231h.391v2.114A.149.149,0,0,0,59.475,81.336Z" transform="translate(-58.5 -77.625)" fill="#ffbc50"/>
        </g>
        <g id="Grupo_1098866" data-name="Grupo 1098866" transform="translate(7.433 1.142)">
          <path id="Trazado_873168" data-name="Trazado 873168" d="M63.278,81.846A1.325,1.325,0,1,1,64.6,83.217,1.268,1.268,0,0,1,63.278,81.846Zm2.177-.005a.858.858,0,1,0-1.707,0,.858.858,0,1,0,1.707,0Z" transform="translate(-63.192 -80.389)" fill="#ffbc50"/>
          <path id="Trazado_873169" data-name="Trazado 873169" d="M64.488,83.189a1.458,1.458,0,1,1,1.41-1.457A1.354,1.354,0,0,1,64.488,83.189Zm0-2.742a1.285,1.285,0,1,0,1.238,1.284A1.183,1.183,0,0,0,64.488,80.448Zm0,2.312a.931.931,0,0,1-.94-1.033.944.944,0,1,1,.94,1.033Zm-.767-1.033a.773.773,0,1,0,1.534,0A.773.773,0,1,0,63.721,81.727Z" transform="translate(-63.078 -80.275)" fill="#ffbc50"/>
        </g>
      </g>
      <g id="Grupo_1098869" data-name="Grupo 1098869" transform="translate(9.706 35.635)">
        <g id="Grupo_1098868" data-name="Grupo 1098868">
          <path id="Trazado_873170" data-name="Trazado 873170" d="M35.387,91.566v2.871A1.088,1.088,0,0,1,34.3,95.527H31.426a1.088,1.088,0,0,1-1.086-1.091V91.566a1.087,1.087,0,0,1,1.086-1.086H34.3A1.087,1.087,0,0,1,35.387,91.566Z" transform="translate(-30.34 -90.48)" fill="#fc545d"/>
        </g>
      </g>
      <g id="Grupo_1098871" data-name="Grupo 1098871" transform="translate(9.706 35.636)">
        <g id="Grupo_1098870" data-name="Grupo 1098870">
          <path id="Trazado_873171" data-name="Trazado 873171" d="M35.387,94.423v.017a1.088,1.088,0,0,1-1.086,1.09H31.426a1.088,1.088,0,0,1-1.086-1.09V91.57a1.087,1.087,0,0,1,1.086-1.086h.022v2.849a1.088,1.088,0,0,0,1.086,1.091h2.854Z" transform="translate(-30.34 -90.484)" fill="#f14448"/>
        </g>
      </g>
      <g id="Grupo_1098876" data-name="Grupo 1098876" transform="translate(16.384 37.2)">
        <g id="Grupo_1098872" data-name="Grupo 1098872" transform="translate(0 2.559)">
          <path id="Trazado_873172" data-name="Trazado 873172" d="M46.119,100.774a.289.289,0,0,1-.085-.235.278.278,0,0,1,.085-.2.344.344,0,0,1,.256-.085.291.291,0,0,1,.29.29.3.3,0,0,1-.085.235.278.278,0,0,1-.2.085A.313.313,0,0,1,46.119,100.774Z" transform="translate(-45.948 -100.163)" fill="#fc545d"/>
          <path id="Trazado_873173" data-name="Trazado 873173" d="M46.261,100.832a.392.392,0,0,1-.317-.111.374.374,0,0,1-.111-.3.364.364,0,0,1,.111-.265.393.393,0,0,1,.317-.11.378.378,0,0,1,.376.376.374.374,0,0,1-.111.3A.363.363,0,0,1,46.261,100.832Zm-.195-.55a.19.19,0,0,0-.06.143.209.209,0,0,0,.06.174h0a.258.258,0,0,0,.338,0,.21.21,0,0,0,.06-.174.192.192,0,0,0-.06-.144.194.194,0,0,0-.143-.06A.23.23,0,0,0,46.066,100.281Z" transform="translate(-45.834 -100.049)" fill="#fc545d"/>
        </g>
        <g id="Grupo_1098873" data-name="Grupo 1098873" transform="translate(1.397 0.452)">
          <path id="Trazado_873174" data-name="Trazado 873174" d="M49.274,97.856V95.637a.235.235,0,1,1,.471,0v.212a1.715,1.715,0,0,1,.424-.346.957.957,0,0,1,1.464.884v1.469a.235.235,0,0,1-.471,0V96.439c0-.728-.676-.731-1.032-.5a1.682,1.682,0,0,0-.385.362v1.552A.235.235,0,0,1,49.274,97.856Z" transform="translate(-49.188 -95.275)" fill="#fc545d"/>
          <path id="Trazado_873175" data-name="Trazado 873175" d="M50.962,97.742V96.325c0-.646-.591-.627-.9-.425a1.582,1.582,0,0,0-.346.321v1.521a.322.322,0,0,1-.643,0V95.523a.322.322,0,0,1,.643,0v0a1.722,1.722,0,0,1,.3-.214,1.043,1.043,0,0,1,1.592.959v1.469A.322.322,0,0,1,50.962,97.742Zm.173-1.417v1.417a.149.149,0,0,0,.3,0V96.273a.873.873,0,0,0-1.335-.809,2.228,2.228,0,0,0-.553.5v-.436a.149.149,0,1,0-.3,0v2.219a.149.149,0,0,0,.3,0V96.16a1.862,1.862,0,0,1,.424-.4c.423-.278,1.166-.231,1.166.568Z" transform="translate(-49.074 -95.161)" fill="#fc545d"/>
        </g>
        <g id="Grupo_1098874" data-name="Grupo 1098874" transform="translate(4.386 0.464)">
          <path id="Trazado_873176" data-name="Trazado 873176" d="M56.21,96.759a1.374,1.374,0,0,1,.548-1.179,1.189,1.189,0,0,1,.688-.192,1.2,1.2,0,0,1,.662.178,1.3,1.3,0,0,1,.569,1.125.225.225,0,0,1-.238.233H56.685a.812.812,0,0,0,.905.765,1.457,1.457,0,0,0,.7-.16.2.2,0,1,1,.165.372,1.624,1.624,0,0,1-.905.228A1.238,1.238,0,0,1,56.21,96.759Zm2-.217a.759.759,0,0,0-.419-.675.789.789,0,0,0-.693,0,.756.756,0,0,0-.414.675Z" transform="translate(-56.123 -95.302)" fill="#fc545d"/>
          <path id="Trazado_873177" data-name="Trazado 873177" d="M57.435,98.1a1.325,1.325,0,0,1-1.426-1.457,1.459,1.459,0,0,1,.586-1.25,1.28,1.28,0,0,1,.737-.207,1.293,1.293,0,0,1,.708.192,1.383,1.383,0,0,1,.609,1.2.312.312,0,0,1-.324.319H56.672a.724.724,0,0,0,.8.593,1.371,1.371,0,0,0,.66-.151.29.29,0,1,1,.247.524A1.708,1.708,0,0,1,57.435,98.1Zm-.1-2.742a1.111,1.111,0,0,0-.639.176,1.29,1.29,0,0,0-.511,1.108,1.154,1.154,0,0,0,1.253,1.284,1.535,1.535,0,0,0,.863-.217c.194-.111.034-.281-.084-.22a1.545,1.545,0,0,1-.737.17c-.948,0-.935-.781-1-.938h1.85a.139.139,0,0,0,.152-.146,1.211,1.211,0,0,0-.529-1.053A1.126,1.126,0,0,0,57.332,95.361Zm.857,1.154H56.48l.006-.092a.842.842,0,0,1,.463-.748.881.881,0,0,1,.767,0,.845.845,0,0,1,.468.748Zm-1.522-.173H58a.653.653,0,0,0-.36-.511.7.7,0,0,0-.62,0,.65.65,0,0,0-.355.511Z" transform="translate(-56.009 -95.188)" fill="#fc545d"/>
        </g>
        <g id="Grupo_1098875" data-name="Grupo 1098875" transform="translate(7.163)">
          <path id="Trazado_873178" data-name="Trazado 873178" d="M63.118,96.835v-1.6h-.367a.1.1,0,0,1-.052-.186l.7-.688c.094-.094.186-.024.186.057v.414h.584a.2.2,0,0,1,0,.4h-.584v1.562c0,.345.311.349.543.279.3-.075.385.24.17.352-.464.215-1.185.114-1.185-.59Z" transform="translate(-62.566 -94.226)" fill="#fc545d"/>
          <path id="Trazado_873179" data-name="Trazado 873179" d="M62.918,96.721V95.2h-.281a.187.187,0,0,1-.1-.341l.7-.681a.186.186,0,0,1,.333.118v.327h.5a.288.288,0,0,1,0,.576h-.5v1.476c0,.247.2.267.432.2l.047-.011a.278.278,0,0,1,.188.522c-.5.232-1.31.132-1.31-.666ZM63.35,94.3l-.7.688c-.021.017-.021.023-.021.026l.466.012v1.69c0,.654.688.684,1.062.511a.106.106,0,0,0-.072-.2l-.041.01c-.338.1-.65.02-.65-.363V95.031h.671a.115.115,0,1,0,0-.231h-.671v-.5c-.012-.019-.023-.013-.039,0Z" transform="translate(-62.452 -94.112)" fill="#fc545d"/>
        </g>
      </g>
    </g>
  </g>
</svg>
