<svg xmlns="http://www.w3.org/2000/svg" xmlns:xlink="http://www.w3.org/1999/xlink" width="106.136" height="106.136" viewBox="0 0 106.136 106.136">
  <defs>
    <filter id="Elipse_9685" x="0" y="0" width="106.136" height="106.136" filterUnits="userSpaceOnUse">
      <feOffset dy="3" input="SourceAlpha"/>
      <feGaussianBlur stdDeviation="3" result="blur"/>
      <feFlood flood-opacity="0.161"/>
      <feComposite operator="in" in2="blur"/>
      <feComposite in="SourceGraphic"/>
    </filter>
  </defs>
  <g id="Grupo_1099273" data-name="Grupo 1099273" transform="translate(-737.932 -9747.46)">
    <circle id="Elipse_11310" data-name="Elipse 11310" cx="50" cy="50" r="50" transform="translate(741 9747.527)" fill="#fff"/>
    <g id="Grupo_1098210" data-name="Grupo 1098210" transform="translate(746.932 9753.46)">
      <g transform="matrix(1, 0, 0, 1, -9, -6)" filter="url(#Elipse_9685)">
        <g id="Elipse_9685-2" data-name="Elipse 9685" transform="translate(9 6)" fill="#f2e5fd" stroke="#a854f3" stroke-width="5">
          <circle cx="44.068" cy="44.068" r="44.068" stroke="none"/>
          <circle cx="44.068" cy="44.068" r="41.568" fill="none"/>
        </g>
      </g>
    </g>
    <g id="Layer_2_00000152954410773410740190000001965354332290775687_" transform="translate(762.717 9775.133)">
      <g id="layer" transform="translate(0 0)">
        <path id="folder" d="M56.544,68.093v-.088a26.343,26.343,0,0,0-.641-3.524A14.336,14.336,0,0,0,42.215,54.449H18.472l-.055-.077A2.371,2.371,0,0,0,16.44,53.3H15.5A15.5,15.5,0,0,0,0,68.8V82.589a15.5,15.5,0,0,0,15.5,15.5H41.066a15.5,15.5,0,0,0,15.5-15.5V68.8C56.566,68.568,56.555,68.325,56.544,68.093Zm-7.678-8.242a11.126,11.126,0,0,1,3.2,3.745H24.405l-3.911-5.944H42.215a11.023,11.023,0,0,1,6.651,2.2Zm4.5,22.737a12.292,12.292,0,0,1-12.3,12.3H15.5a12.292,12.292,0,0,1-12.3-12.3V68.8A12.292,12.292,0,0,1,15.5,56.5h.4l6.784,10.3H53.2a11.285,11.285,0,0,1,.144,1.37v.077c.011.21.011.387.011.541Z" transform="translate(0 -53.3)" fill="#a854f3"/>
        <path id="Trazado_874115" data-name="Trazado 874115" d="M209.788,197H196.851a2.756,2.756,0,0,0-2.751,2.74v1.392h10.927a3.381,3.381,0,0,1,3.381,3.381v10.927h1.381a2.756,2.756,0,0,0,2.751-2.74V199.751A2.744,2.744,0,0,0,209.788,197Z" transform="translate(-172.656 -181.124)" fill="#a854f3"/>
        <path id="Trazado_874116" data-name="Trazado 874116" d="M153.751,240.2h12.937a2.751,2.751,0,0,1,2.751,2.751V255.9a2.751,2.751,0,0,1-2.751,2.751H153.751A2.751,2.751,0,0,1,151,255.9V242.94A2.742,2.742,0,0,1,153.751,240.2Z" transform="translate(-134.317 -219.551)" fill="#a854f3"/>
      </g>
    </g>
  </g>
</svg>
