<svg xmlns="http://www.w3.org/2000/svg" width="70" height="70" viewBox="0 0 70 70">
  <g id="Grupo_1098913" data-name="Grupo 1098913" transform="translate(-195 -1219)">
    <circle id="Elipse_11440" data-name="Elipse 11440" cx="35" cy="35" r="35" transform="translate(195 1219)" fill="#00ffdf"/>
    <g id="Grupo_1098911" data-name="Grupo 1098911" transform="translate(189.542 1230.875)">
      <g id="Grupo_1098910" data-name="Grupo 1098910" transform="translate(19.055 0)">
        <g id="Grupo_1098909" data-name="Grupo 1098909">
          <path id="Trazado_873209" data-name="Trazado 873209" d="M24.82,14.877a2.608,2.608,0,0,0,2.605,2.605h1.627a.677.677,0,1,0,0-1.355H27.425a1.252,1.252,0,0,1-1.251-1.251V12.849a6.442,6.442,0,1,0-1.355,0v2.029ZM20.41,6.442A5.087,5.087,0,1,1,25.5,11.53,5.093,5.093,0,0,1,20.41,6.442Z" transform="translate(-19.055 0)" fill="#a854f3"/>
          <path id="Trazado_873210" data-name="Trazado 873210" d="M63.162,45.065a.677.677,0,0,0,.958-.958L62.4,42.39l1.716-1.716a.677.677,0,0,0-.958-.958l-1.716,1.716L59.73,39.716a.677.677,0,0,0-.958.958l1.716,1.716-1.716,1.716a.677.677,0,0,0,.958.958l1.716-1.716Z" transform="translate(-55.004 -35.948)" fill="#a854f3"/>
          <path id="Trazado_873211" data-name="Trazado 873211" d="M393.43,44.851a.677.677,0,0,0-.938.194l-2.211,3.364-1.55-1.48a.677.677,0,1,0-.936.98l1.732,1.654a1.145,1.145,0,0,0,1.749-.2l2.349-3.574A.677.677,0,0,0,393.43,44.851Z" transform="translate(-354.296 -40.698)" fill="#a854f3"/>
          <path id="Trazado_873212" data-name="Trazado 873212" d="M104.052,142.853a19.964,19.964,0,0,0-4.478-1.311c-.766-.493-.494-1.361-.549-1.764a8.144,8.144,0,0,0,1.2-.88,6.8,6.8,0,0,0,2.228-4.388,1.869,1.869,0,0,0,1.662-1.868l-.006-2.546a1.861,1.861,0,0,0-.066-.485,1.884,1.884,0,0,0,.1-.592V125.5a6.005,6.005,0,0,0-6-6h-6.2a6,6,0,0,0-6,6v3.516a1.884,1.884,0,0,0,.181.8,2.361,2.361,0,0,0-.157.844V132.2a2.378,2.378,0,0,0,2.18,2.365,6.794,6.794,0,0,0,2.264,4.37c.211.183.428.35.649.507-.073.655.253,1.58-.549,2.1a19.964,19.964,0,0,0-4.478,1.311,11.479,11.479,0,0,0-6.976,10.586,1.521,1.521,0,0,0,1.519,1.519h28.928a1.521,1.521,0,0,0,1.519-1.519A11.479,11.479,0,0,0,104.052,142.853ZM87.3,125.5a4.649,4.649,0,0,1,4.643-4.643h6.2a4.649,4.649,0,0,1,4.643,4.643v3.516a.537.537,0,0,1-.36.506l-1.311.456a.023.023,0,0,1-.024,0,.023.023,0,0,1-.011-.022l0-2.477a2.851,2.851,0,0,0-2.822-2.873,4.126,4.126,0,0,0-1.306.2,12.23,12.23,0,0,1-1.913.278c-2.289-.185-2.06-.477-3.193-.476h-.025A2.851,2.851,0,0,0,89,127.475l0,2.48a.027.027,0,0,1-.036.025l-1.311-.456a.537.537,0,0,1-.36-.506Zm2.159,8.381a.677.677,0,0,0-.677-.66h-.437a1.021,1.021,0,0,1-1.02-1.019v-1.361l1.2.418a1.382,1.382,0,0,0,1.836-1.307l0-2.481a1.5,1.5,0,0,1,1.474-1.512,2.8,2.8,0,0,1,.885.133,12.918,12.918,0,0,0,2.379.343,13.786,13.786,0,0,0,2.275-.343,2.9,2.9,0,0,1,.886-.133,1.5,1.5,0,0,1,1.473,1.514l0,2.479a1.382,1.382,0,0,0,1.836,1.307l1.2-.417,0,1.8a.511.511,0,0,1-.5.519l-.446,0a.677.677,0,0,0-.674.666,5.5,5.5,0,0,1-1.808,4.048,5.942,5.942,0,0,1-8.035.034A5.494,5.494,0,0,1,89.459,133.882Zm5.864,6.934h.015a7.432,7.432,0,0,0,2.332-.4,2.573,2.573,0,0,0,.621,1.792,5.467,5.467,0,0,1-6.493,0,2.741,2.741,0,0,0,.621-1.99A7.353,7.353,0,0,0,95.323,140.816ZM109.509,153.6h-4.867v-2.169a.677.677,0,1,0-1.355,0V153.6H86.8v-2.169a.677.677,0,0,0-1.355,0V153.6H80.581a.164.164,0,0,1-.164-.164,10.126,10.126,0,0,1,6.152-9.339,19.09,19.09,0,0,1,3.957-1.185,6.822,6.822,0,0,0,9.039,0,19.089,19.089,0,0,1,3.957,1.185,10.126,10.126,0,0,1,6.152,9.339A.164.164,0,0,1,109.509,153.6Z" transform="translate(-73.642 -108.708)" fill="#a854f3"/>
          <path id="Trazado_873213" data-name="Trazado 873213" d="M356.75,0a6.442,6.442,0,0,0-.678,12.849v2.029a1.252,1.252,0,0,1-1.251,1.251H353.2a.677.677,0,0,0,0,1.355h1.627a2.608,2.608,0,0,0,2.605-2.605V12.849A6.442,6.442,0,0,0,356.75,0Zm0,11.53a5.087,5.087,0,1,1,5.087-5.087A5.093,5.093,0,0,1,356.75,11.53Z" transform="translate(-320.386 0)" fill="#a854f3"/>
        </g>
      </g>
    </g>
  </g>
</svg>
