<svg xmlns="http://www.w3.org/2000/svg" width="70" height="70" viewBox="0 0 70 70">
  <g id="Grupo_1098914" data-name="Grupo 1098914" transform="translate(-615 -1219)">
    <circle id="Elipse_11440" data-name="Elipse 11440" cx="35" cy="35" r="35" transform="translate(615 1219)" fill="#00ffdf"/>
    <path id="creation" d="M50.844,10.6V8.723a.723.723,0,1,1,1.445,0V10.6a.723.723,0,0,1-1.445,0Zm-5.923,1.974a.723.723,0,0,0,1.252-.723l-.94-1.628a.723.723,0,0,0-1.251.723ZM39.15,16.309l1.628.94A.723.723,0,1,0,41.5,16l-1.628-.94a.723.723,0,0,0-.723,1.251Zm18.076-3.467a.722.722,0,0,0,.987-.264l.94-1.628a.723.723,0,0,0-1.251-.723l-.94,1.628A.722.722,0,0,0,57.226,12.842Zm4.769,4.5a.72.72,0,0,0,.361-.1l1.628-.94a.723.723,0,0,0-.723-1.251L61.633,16a.723.723,0,0,0,.362,1.348Zm10.264-.486L60.9,28.218a13.057,13.057,0,0,1-2.684,11.656,3.5,3.5,0,0,0-.845,1.963c-.313,2.854.466,6.284,2.252,9.919a.722.722,0,0,1-.648,1.041H44.9a.723.723,0,0,1-.711-.6,3.982,3.982,0,0,0-1.485-2.763,4.3,4.3,0,0,0-3.349-.286l-.036.007c-1.761.306-2.874.191-3.5-.363A1.549,1.549,0,0,1,35.3,47.53c-.009-1-.134-1.6-.373-1.776l-.009-.007a1.42,1.42,0,0,1-.614-1.26,1.907,1.907,0,0,1,.617-1.166,2.183,2.183,0,0,1-.711-.689,1.174,1.174,0,0,1-.119-1.035c.291-1.011.111-1.125-.017-1.192a2.342,2.342,0,0,1-1.4-1.487,1.969,1.969,0,0,1,.48-1.681q.018-.023.038-.044A11.141,11.141,0,0,0,34.9,34.816a3.455,3.455,0,0,0,.395-2.052c-.044-.435-.066-.878-.066-1.315A13.038,13.038,0,0,1,43.046,19.5a8.7,8.7,0,0,1,17.216,1.392l8.014-8.014a2.47,2.47,0,0,1,3.489,0l.493.493a2.47,2.47,0,0,1,0,3.489ZM50.15,38.471a.575.575,0,0,0,.575.575h1.683a.575.575,0,0,0,.575-.575V37.9H50.15ZM54.313,35.3H48.82v.575a.575.575,0,0,0,.575.575h4.344a.575.575,0,0,0,.574-.575Zm1.3-2.594H47.523v.575a.575.575,0,0,0,.575.575h6.938a.575.575,0,0,0,.574-.575v-.575ZM49.466,21.342a1.132,1.132,0,1,0-1.132,1.132h1.132Zm2.757,2.577H50.911v7.344h1.312Zm5.6,4.588-1.191-1.191-.436,1.626Zm1.4-.648L69.285,17.789,67.347,15.85,57.276,25.921ZM44.307,21.283a6.7,6.7,0,0,0,1.206,3.926,12.817,12.817,0,0,1,1.958,6.054h1.995V23.919H48.333a2.577,2.577,0,1,1,2.577-2.577v1.132h1.312V21.342A2.577,2.577,0,1,1,54.8,23.919H53.668v7.344h1.994c.022-.241.048-.474.078-.7l-.382.1a.723.723,0,0,1-.885-.885l1.084-4.044a.723.723,0,0,1,.187-.324L58.749,22.4a7.687,7.687,0,0,0,.077-1.122,7.26,7.26,0,0,0-14.519,0ZM54.8,22.474a1.132,1.132,0,1,0-1.132-1.132v1.132Zm5.06,8.975a11.681,11.681,0,0,0-.176-2.02.722.722,0,0,1-.282.15l-2.143.574a17.664,17.664,0,0,0-.2,1.857v1.273a2.022,2.022,0,0,1-1.3,1.885v.709a2.023,2.023,0,0,1-1.33,1.9v.7a2.022,2.022,0,0,1-2.02,2.02H50.725a2.022,2.022,0,0,1-2.02-2.02v-.7a2.023,2.023,0,0,1-1.33-1.9v-.709a2.023,2.023,0,0,1-1.3-1.885V32.009a11.584,11.584,0,0,0-1.812-6.07,8.069,8.069,0,0,1-1.4-4.656c0-.031,0-.063,0-.094a11.535,11.535,0,0,0-6.189,10.26c0,.39.02.784.059,1.171a4.949,4.949,0,0,1-.551,2.864,12.561,12.561,0,0,1-1.907,2.665.684.684,0,0,0-.194.445c.026.111.207.306.639.517l.015.008c1.321.685.965,2.127.763,2.826a1.893,1.893,0,0,0,1.015.442.723.723,0,0,1,.287,1.355,2.671,2.671,0,0,0-1.037.827c.01.009.022.02.038.033.661.5.936,1.35.947,2.935,0,.013,0,.026,0,.039-.005.108.018.128.03.138.041.036.45.341,2.281.026a5.628,5.628,0,0,1,4.448.5,5.01,5.01,0,0,1,1.982,3.118h12.35a19.155,19.155,0,0,1-1.9-9.673,4.944,4.944,0,0,1,1.179-2.74A11.6,11.6,0,0,0,59.86,31.449ZM71.236,14.393l-.493-.493a1.023,1.023,0,0,0-1.445,0l-.929.929,1.939,1.939.929-.929A1.023,1.023,0,0,0,71.236,14.393Z" transform="translate(597.194 1223.601)" fill="#a854f3"/>
  </g>
</svg>
