<svg xmlns="http://www.w3.org/2000/svg" width="190" height="80" viewBox="0 0 190 80">
  <g id="Grupo_1099298" data-name="Grupo 1099298" transform="translate(-285 -1557)">
    <path id="Trazado_874120" data-name="Trazado 874120" d="M10,0H180c5.523,0,10,3.893,10,8.7V53.913c0,4.8-4.462,7.405-10,8.7L95.33,80,10,62.609c-5.082-1.184-10-3.893-10-8.7V8.7C0,3.893,4.477,0,10,0Z" transform="translate(285 1557)" fill="#0b47db"/>
    <path id="Trazado_874190" data-name="Trazado 874190" d="M35.637,11.211A4.025,4.025,0,0,1,34.281,14.1a4.76,4.76,0,0,1-3.223,1.055,4.28,4.28,0,0,1-3.441-1.473,6.038,6.038,0,0,1-1.254-4.043v-.7a6.819,6.819,0,0,1,.578-2.891,4.332,4.332,0,0,1,1.652-1.918,4.629,4.629,0,0,1,2.5-.668,4.637,4.637,0,0,1,3.172,1.055,4.326,4.326,0,0,1,1.391,2.961H33.309a2.376,2.376,0,0,0-.613-1.6,2.271,2.271,0,0,0-1.605-.5,1.991,1.991,0,0,0-1.754.84,4.707,4.707,0,0,0-.6,2.605V9.7a5.038,5.038,0,0,0,.559,2.7,1.954,1.954,0,0,0,1.762.852,2.314,2.314,0,0,0,1.621-.5,2.241,2.241,0,0,0,.613-1.535ZM39.41,15H37.145V3H39.41Zm4.242,0H41.387V6.547h2.266Zm-2.4-10.641a1.112,1.112,0,0,1,.34-.836,1.465,1.465,0,0,1,1.848,0,1.105,1.105,0,0,1,.344.836,1.108,1.108,0,0,1-.348.844,1.448,1.448,0,0,1-1.836,0A1.108,1.108,0,0,1,41.254,4.359Zm8.148,10.8a4.15,4.15,0,0,1-3.027-1.141,4.054,4.054,0,0,1-1.168-3.039v-.219A5.106,5.106,0,0,1,45.7,8.48a3.612,3.612,0,0,1,1.395-1.547,3.914,3.914,0,0,1,2.059-.543,3.508,3.508,0,0,1,2.73,1.094,4.444,4.444,0,0,1,1,3.1v.922H47.5a2.1,2.1,0,0,0,.66,1.328,2,2,0,0,0,1.395.5,2.437,2.437,0,0,0,2.039-.945L52.7,13.633a3.389,3.389,0,0,1-1.375,1.121A4.511,4.511,0,0,1,49.4,15.156Zm-.258-6.945a1.411,1.411,0,0,0-1.09.455,2.357,2.357,0,0,0-.535,1.3H50.66V9.788a1.681,1.681,0,0,0-.406-1.165A1.456,1.456,0,0,0,49.145,8.211Zm7.094-1.664.07.977a2.951,2.951,0,0,1,2.43-1.133,2.453,2.453,0,0,1,2,.789,3.682,3.682,0,0,1,.672,2.359V15H59.152V9.581a1.47,1.47,0,0,0-.312-1.045A1.4,1.4,0,0,0,57.8,8.211a1.553,1.553,0,0,0-1.43.814V15H54.113V6.547Zm9.586-2.078V6.547H67.27V8.2H65.824v4.219a1.007,1.007,0,0,0,.18.672.9.9,0,0,0,.688.2,3.6,3.6,0,0,0,.664-.055v1.711a4.648,4.648,0,0,1-1.367.2,2.156,2.156,0,0,1-2.422-2.4V8.2H62.332V6.547h1.234V4.469Zm6.594,10.688a4.15,4.15,0,0,1-3.027-1.141,4.054,4.054,0,0,1-1.168-3.039v-.219a5.106,5.106,0,0,1,.492-2.277,3.612,3.612,0,0,1,1.395-1.547,3.914,3.914,0,0,1,2.059-.543A3.508,3.508,0,0,1,74.9,7.484a4.444,4.444,0,0,1,1,3.1v.922H70.512a2.1,2.1,0,0,0,.66,1.328,2,2,0,0,0,1.395.5,2.437,2.437,0,0,0,2.039-.945l1.109,1.242a3.389,3.389,0,0,1-1.375,1.121A4.511,4.511,0,0,1,72.418,15.156ZM72.16,8.211a1.411,1.411,0,0,0-1.09.455,2.357,2.357,0,0,0-.535,1.3h3.141V9.788a1.681,1.681,0,0,0-.406-1.165A1.456,1.456,0,0,0,72.16,8.211Z" transform="translate(329 1581)" fill="#fff"/>
  </g>
</svg>
